G04 start of page 2 for group 0 idx 0 *
G04 Title: (unknown), top *
G04 Creator: pcb 20140316 *
G04 CreationDate: Sat 19 Jul 2014 12:31:25 AM GMT UTC *
G04 For: visage *
G04 Format: Gerber/RS-274X *
G04 PCB-Dimensions (mil): 2010.00 1020.00 *
G04 PCB-Coordinate-Origin: lower left *
%MOIN*%
%FSLAX25Y25*%
%LNTOP*%
%ADD20C,0.0380*%
%ADD19C,0.0350*%
%ADD18C,0.0200*%
%ADD17C,0.1260*%
%ADD16C,0.0360*%
%ADD15R,0.0200X0.0200*%
%ADD14C,0.0600*%
%ADD13C,0.0100*%
%ADD12C,0.0250*%
%ADD11C,0.0001*%
G54D11*G36*
X177974Y100000D02*X199000D01*
Y2000D01*
X177974D01*
Y6401D01*
X178000Y6399D01*
X180597Y6603D01*
X183130Y7211D01*
X185537Y8208D01*
X187758Y9569D01*
X189739Y11261D01*
X191431Y13242D01*
X192792Y15463D01*
X193789Y17870D01*
X194397Y20403D01*
X194550Y23000D01*
X194397Y25597D01*
X193789Y28130D01*
X192792Y30537D01*
X191431Y32758D01*
X189739Y34739D01*
X187758Y36431D01*
X185537Y37792D01*
X183130Y38789D01*
X180597Y39397D01*
X178000Y39601D01*
X177974Y39599D01*
Y62401D01*
X178000Y62399D01*
X180597Y62603D01*
X183130Y63211D01*
X185537Y64208D01*
X187758Y65569D01*
X189739Y67261D01*
X191431Y69242D01*
X192792Y71463D01*
X193789Y73870D01*
X194397Y76403D01*
X194550Y79000D01*
X194397Y81597D01*
X193789Y84130D01*
X192792Y86537D01*
X191431Y88758D01*
X189739Y90739D01*
X187758Y92431D01*
X185537Y93792D01*
X183130Y94789D01*
X180597Y95397D01*
X178000Y95601D01*
X177974Y95599D01*
Y100000D01*
G37*
G36*
X155284D02*X177974D01*
Y95599D01*
X175403Y95397D01*
X172870Y94789D01*
X170463Y93792D01*
X168242Y92431D01*
X166261Y90739D01*
X164569Y88758D01*
X163208Y86537D01*
X162211Y84130D01*
X161603Y81597D01*
X161399Y79000D01*
X161603Y76403D01*
X162211Y73870D01*
X163208Y71463D01*
X164569Y69242D01*
X166261Y67261D01*
X168242Y65569D01*
X170463Y64208D01*
X172870Y63211D01*
X175403Y62603D01*
X177974Y62401D01*
Y39599D01*
X175403Y39397D01*
X172870Y38789D01*
X170463Y37792D01*
X168242Y36431D01*
X166261Y34739D01*
X164569Y32758D01*
X163208Y30537D01*
X162211Y28130D01*
X161603Y25597D01*
X161399Y23000D01*
X161603Y20403D01*
X162211Y17870D01*
X163208Y15463D01*
X164569Y13242D01*
X166261Y11261D01*
X168242Y9569D01*
X170463Y8208D01*
X172870Y7211D01*
X175403Y6603D01*
X177974Y6401D01*
Y2000D01*
X155284D01*
Y12869D01*
X155287Y12870D01*
X155355Y12909D01*
X155416Y12958D01*
X155469Y13017D01*
X155511Y13083D01*
X155674Y13408D01*
X155803Y13748D01*
X155901Y14098D01*
X155967Y14456D01*
X156000Y14818D01*
Y15182D01*
X155967Y15544D01*
X155901Y15902D01*
X155803Y16252D01*
X155674Y16592D01*
X155515Y16919D01*
X155472Y16985D01*
X155419Y17044D01*
X155357Y17094D01*
X155288Y17133D01*
X155284Y17135D01*
Y100000D01*
G37*
G36*
X152002D02*X155284D01*
Y17135D01*
X155214Y17161D01*
X155137Y17177D01*
X155058Y17181D01*
X154979Y17173D01*
X154903Y17152D01*
X154830Y17120D01*
X154764Y17077D01*
X154705Y17024D01*
X154656Y16962D01*
X154616Y16893D01*
X154588Y16819D01*
X154572Y16742D01*
X154568Y16663D01*
X154576Y16584D01*
X154597Y16507D01*
X154630Y16436D01*
X154753Y16193D01*
X154850Y15938D01*
X154923Y15676D01*
X154972Y15408D01*
X154997Y15136D01*
Y14864D01*
X154972Y14592D01*
X154923Y14324D01*
X154850Y14062D01*
X154753Y13807D01*
X154633Y13563D01*
X154600Y13491D01*
X154579Y13416D01*
X154571Y13337D01*
X154575Y13259D01*
X154591Y13182D01*
X154619Y13108D01*
X154658Y13040D01*
X154707Y12979D01*
X154766Y12926D01*
X154832Y12883D01*
X154904Y12851D01*
X154980Y12830D01*
X155058Y12822D01*
X155136Y12826D01*
X155213Y12842D01*
X155284Y12869D01*
Y2000D01*
X152002D01*
Y11000D01*
X152182D01*
X152544Y11033D01*
X152902Y11099D01*
X153252Y11197D01*
X153592Y11326D01*
X153919Y11485D01*
X153985Y11528D01*
X154044Y11581D01*
X154094Y11643D01*
X154133Y11712D01*
X154161Y11786D01*
X154177Y11863D01*
X154181Y11942D01*
X154173Y12021D01*
X154152Y12097D01*
X154120Y12170D01*
X154077Y12236D01*
X154024Y12295D01*
X153962Y12344D01*
X153893Y12384D01*
X153819Y12412D01*
X153742Y12428D01*
X153663Y12432D01*
X153584Y12424D01*
X153507Y12403D01*
X153436Y12370D01*
X153193Y12247D01*
X152938Y12150D01*
X152676Y12077D01*
X152408Y12028D01*
X152136Y12003D01*
X152002D01*
Y17997D01*
X152136D01*
X152408Y17972D01*
X152676Y17923D01*
X152938Y17850D01*
X153193Y17753D01*
X153437Y17633D01*
X153509Y17600D01*
X153584Y17579D01*
X153663Y17571D01*
X153741Y17575D01*
X153818Y17591D01*
X153892Y17619D01*
X153960Y17658D01*
X154021Y17707D01*
X154074Y17766D01*
X154117Y17832D01*
X154149Y17904D01*
X154170Y17980D01*
X154178Y18058D01*
X154174Y18136D01*
X154158Y18213D01*
X154130Y18287D01*
X154091Y18355D01*
X154042Y18416D01*
X153983Y18469D01*
X153917Y18511D01*
X153592Y18674D01*
X153252Y18803D01*
X152902Y18901D01*
X152544Y18967D01*
X152182Y19000D01*
X152002D01*
Y31105D01*
X154141Y31108D01*
X154279Y31141D01*
X154410Y31196D01*
X154531Y31270D01*
X154638Y31362D01*
X154730Y31469D01*
X154804Y31590D01*
X154859Y31721D01*
X154892Y31859D01*
X154900Y32000D01*
X154892Y38141D01*
X154859Y38279D01*
X154804Y38410D01*
X154730Y38531D01*
X154638Y38638D01*
X154531Y38730D01*
X154410Y38804D01*
X154279Y38859D01*
X154141Y38892D01*
X154000Y38900D01*
X152002Y38897D01*
Y41230D01*
X152209Y41279D01*
X152776Y41514D01*
X153299Y41835D01*
X153766Y42234D01*
X154165Y42701D01*
X154486Y43224D01*
X154721Y43791D01*
X154864Y44388D01*
X154900Y45000D01*
X154864Y45612D01*
X154721Y46209D01*
X154486Y46776D01*
X154165Y47299D01*
X153766Y47766D01*
X153299Y48165D01*
X152776Y48486D01*
X152209Y48721D01*
X152002Y48770D01*
Y61006D01*
X154157Y61009D01*
X154310Y61046D01*
X154455Y61106D01*
X154590Y61188D01*
X154709Y61291D01*
X154812Y61410D01*
X154894Y61545D01*
X154954Y61690D01*
X154991Y61843D01*
X155000Y62000D01*
X154991Y68157D01*
X154954Y68310D01*
X154894Y68455D01*
X154812Y68590D01*
X154709Y68709D01*
X154590Y68812D01*
X154455Y68894D01*
X154310Y68954D01*
X154157Y68991D01*
X154000Y69000D01*
X152002Y68997D01*
Y71127D01*
X152240Y71184D01*
X152822Y71425D01*
X153358Y71754D01*
X153837Y72163D01*
X154246Y72642D01*
X154575Y73178D01*
X154816Y73760D01*
X154963Y74372D01*
X155000Y75000D01*
X154963Y75628D01*
X154816Y76240D01*
X154575Y76822D01*
X154246Y77358D01*
X153837Y77837D01*
X153358Y78246D01*
X152822Y78575D01*
X152240Y78816D01*
X152002Y78873D01*
Y81127D01*
X152240Y81184D01*
X152822Y81425D01*
X153358Y81754D01*
X153837Y82163D01*
X154246Y82642D01*
X154575Y83178D01*
X154816Y83760D01*
X154963Y84372D01*
X155000Y85000D01*
X154963Y85628D01*
X154816Y86240D01*
X154575Y86822D01*
X154246Y87358D01*
X153837Y87837D01*
X153358Y88246D01*
X152822Y88575D01*
X152240Y88816D01*
X152002Y88873D01*
Y100000D01*
G37*
G36*
X148716Y41826D02*X149224Y41514D01*
X149791Y41279D01*
X150388Y41136D01*
X151000Y41088D01*
X151612Y41136D01*
X152002Y41230D01*
Y38897D01*
X148716Y38893D01*
Y41826D01*
G37*
G36*
Y60595D02*X149123Y61002D01*
X152002Y61006D01*
Y48770D01*
X151612Y48864D01*
X151000Y48912D01*
X150388Y48864D01*
X149791Y48721D01*
X149224Y48486D01*
X148716Y48174D01*
Y60595D01*
G37*
G36*
X152002Y2000D02*X148716D01*
Y12865D01*
X148786Y12839D01*
X148863Y12823D01*
X148942Y12819D01*
X149021Y12827D01*
X149097Y12848D01*
X149170Y12880D01*
X149236Y12923D01*
X149295Y12976D01*
X149344Y13038D01*
X149384Y13107D01*
X149412Y13181D01*
X149428Y13258D01*
X149432Y13337D01*
X149424Y13416D01*
X149403Y13493D01*
X149370Y13564D01*
X149247Y13807D01*
X149150Y14062D01*
X149077Y14324D01*
X149028Y14592D01*
X149003Y14864D01*
Y15136D01*
X149028Y15408D01*
X149077Y15676D01*
X149150Y15938D01*
X149247Y16193D01*
X149367Y16437D01*
X149400Y16509D01*
X149421Y16585D01*
X149429Y16663D01*
X149425Y16741D01*
X149409Y16818D01*
X149381Y16892D01*
X149342Y16960D01*
X149293Y17021D01*
X149234Y17074D01*
X149168Y17117D01*
X149096Y17149D01*
X149020Y17170D01*
X148942Y17178D01*
X148864Y17174D01*
X148787Y17158D01*
X148716Y17131D01*
Y31101D01*
X152002Y31105D01*
Y19000D01*
X151818D01*
X151456Y18967D01*
X151098Y18901D01*
X150748Y18803D01*
X150408Y18674D01*
X150081Y18515D01*
X150015Y18472D01*
X149956Y18419D01*
X149906Y18357D01*
X149867Y18288D01*
X149839Y18214D01*
X149823Y18137D01*
X149819Y18058D01*
X149827Y17979D01*
X149848Y17903D01*
X149880Y17830D01*
X149923Y17764D01*
X149976Y17705D01*
X150038Y17656D01*
X150107Y17616D01*
X150181Y17588D01*
X150258Y17572D01*
X150337Y17568D01*
X150416Y17576D01*
X150493Y17597D01*
X150564Y17630D01*
X150807Y17753D01*
X151062Y17850D01*
X151324Y17923D01*
X151592Y17972D01*
X151864Y17997D01*
X152002D01*
Y12003D01*
X151864D01*
X151592Y12028D01*
X151324Y12077D01*
X151062Y12150D01*
X150807Y12247D01*
X150563Y12367D01*
X150491Y12400D01*
X150415Y12421D01*
X150337Y12429D01*
X150259Y12425D01*
X150182Y12409D01*
X150108Y12381D01*
X150040Y12342D01*
X149979Y12293D01*
X149926Y12234D01*
X149883Y12168D01*
X149851Y12096D01*
X149830Y12020D01*
X149822Y11942D01*
X149826Y11864D01*
X149842Y11787D01*
X149870Y11713D01*
X149909Y11645D01*
X149958Y11584D01*
X150017Y11531D01*
X150083Y11489D01*
X150408Y11326D01*
X150748Y11197D01*
X151098Y11099D01*
X151456Y11033D01*
X151818Y11000D01*
X152002D01*
Y2000D01*
G37*
G36*
X148716D02*X145284D01*
Y12869D01*
X145287Y12870D01*
X145355Y12909D01*
X145416Y12958D01*
X145469Y13017D01*
X145511Y13083D01*
X145674Y13408D01*
X145803Y13748D01*
X145901Y14098D01*
X145967Y14456D01*
X146000Y14818D01*
Y15182D01*
X145967Y15544D01*
X145901Y15902D01*
X145803Y16252D01*
X145674Y16592D01*
X145515Y16919D01*
X145472Y16985D01*
X145419Y17044D01*
X145357Y17094D01*
X145288Y17133D01*
X145284Y17135D01*
Y57526D01*
X145465Y57569D01*
X145683Y57659D01*
X145884Y57783D01*
X146064Y57936D01*
X146102Y57981D01*
X148716Y60595D01*
Y48174D01*
X148701Y48165D01*
X148234Y47766D01*
X147835Y47299D01*
X147514Y46776D01*
X147279Y46209D01*
X147136Y45612D01*
X147088Y45000D01*
X147136Y44388D01*
X147279Y43791D01*
X147514Y43224D01*
X147835Y42701D01*
X148234Y42234D01*
X148701Y41835D01*
X148716Y41826D01*
Y38893D01*
X147859Y38892D01*
X147721Y38859D01*
X147590Y38804D01*
X147469Y38730D01*
X147362Y38638D01*
X147270Y38531D01*
X147196Y38410D01*
X147141Y38279D01*
X147108Y38141D01*
X147100Y38000D01*
X147108Y31859D01*
X147141Y31721D01*
X147196Y31590D01*
X147270Y31469D01*
X147362Y31362D01*
X147469Y31270D01*
X147590Y31196D01*
X147721Y31141D01*
X147859Y31108D01*
X148000Y31100D01*
X148716Y31101D01*
Y17131D01*
X148713Y17130D01*
X148645Y17091D01*
X148584Y17042D01*
X148531Y16983D01*
X148489Y16917D01*
X148326Y16592D01*
X148197Y16252D01*
X148099Y15902D01*
X148033Y15544D01*
X148000Y15182D01*
Y14818D01*
X148033Y14456D01*
X148099Y14098D01*
X148197Y13748D01*
X148326Y13408D01*
X148485Y13081D01*
X148528Y13015D01*
X148581Y12956D01*
X148643Y12906D01*
X148712Y12867D01*
X148716Y12865D01*
Y2000D01*
G37*
G36*
X145284Y100000D02*X152002D01*
Y88873D01*
X151628Y88963D01*
X151000Y89012D01*
X150372Y88963D01*
X149760Y88816D01*
X149178Y88575D01*
X148642Y88246D01*
X148163Y87837D01*
X147754Y87358D01*
X147425Y86822D01*
X147184Y86240D01*
X147037Y85628D01*
X146988Y85000D01*
X147037Y84372D01*
X147184Y83760D01*
X147425Y83178D01*
X147754Y82642D01*
X148163Y82163D01*
X148642Y81754D01*
X149178Y81425D01*
X149760Y81184D01*
X150372Y81037D01*
X151000Y80988D01*
X151628Y81037D01*
X152002Y81127D01*
Y78873D01*
X151628Y78963D01*
X151000Y79012D01*
X150372Y78963D01*
X149760Y78816D01*
X149178Y78575D01*
X148642Y78246D01*
X148163Y77837D01*
X147754Y77358D01*
X147425Y76822D01*
X147184Y76240D01*
X147037Y75628D01*
X146988Y75000D01*
X147037Y74372D01*
X147184Y73760D01*
X147425Y73178D01*
X147754Y72642D01*
X148163Y72163D01*
X148642Y71754D01*
X149178Y71425D01*
X149760Y71184D01*
X150372Y71037D01*
X151000Y70988D01*
X151628Y71037D01*
X152002Y71127D01*
Y68997D01*
X147843Y68991D01*
X147690Y68954D01*
X147545Y68894D01*
X147410Y68812D01*
X147291Y68709D01*
X147188Y68590D01*
X147106Y68455D01*
X147046Y68310D01*
X147009Y68157D01*
X147000Y68000D01*
X147007Y63129D01*
X145284Y61405D01*
Y100000D01*
G37*
G36*
Y2000D02*X142002D01*
Y11000D01*
X142182D01*
X142544Y11033D01*
X142902Y11099D01*
X143252Y11197D01*
X143592Y11326D01*
X143919Y11485D01*
X143985Y11528D01*
X144044Y11581D01*
X144094Y11643D01*
X144133Y11712D01*
X144161Y11786D01*
X144177Y11863D01*
X144181Y11942D01*
X144173Y12021D01*
X144152Y12097D01*
X144120Y12170D01*
X144077Y12236D01*
X144024Y12295D01*
X143962Y12344D01*
X143893Y12384D01*
X143819Y12412D01*
X143742Y12428D01*
X143663Y12432D01*
X143584Y12424D01*
X143507Y12403D01*
X143436Y12370D01*
X143193Y12247D01*
X142938Y12150D01*
X142676Y12077D01*
X142408Y12028D01*
X142136Y12003D01*
X142002D01*
Y17997D01*
X142136D01*
X142408Y17972D01*
X142676Y17923D01*
X142938Y17850D01*
X143193Y17753D01*
X143437Y17633D01*
X143509Y17600D01*
X143584Y17579D01*
X143663Y17571D01*
X143741Y17575D01*
X143818Y17591D01*
X143892Y17619D01*
X143960Y17658D01*
X144021Y17707D01*
X144074Y17766D01*
X144117Y17832D01*
X144149Y17904D01*
X144170Y17980D01*
X144178Y18058D01*
X144174Y18136D01*
X144158Y18213D01*
X144130Y18287D01*
X144091Y18355D01*
X144042Y18416D01*
X143983Y18469D01*
X143917Y18511D01*
X143592Y18674D01*
X143252Y18803D01*
X142902Y18901D01*
X142544Y18967D01*
X142182Y19000D01*
X142002D01*
Y57500D01*
X144941D01*
X145000Y57495D01*
X145235Y57514D01*
X145235Y57514D01*
X145284Y57526D01*
Y17135D01*
X145214Y17161D01*
X145137Y17177D01*
X145058Y17181D01*
X144979Y17173D01*
X144903Y17152D01*
X144830Y17120D01*
X144764Y17077D01*
X144705Y17024D01*
X144656Y16962D01*
X144616Y16893D01*
X144588Y16819D01*
X144572Y16742D01*
X144568Y16663D01*
X144576Y16584D01*
X144597Y16507D01*
X144630Y16436D01*
X144753Y16193D01*
X144850Y15938D01*
X144923Y15676D01*
X144972Y15408D01*
X144997Y15136D01*
Y14864D01*
X144972Y14592D01*
X144923Y14324D01*
X144850Y14062D01*
X144753Y13807D01*
X144633Y13563D01*
X144600Y13491D01*
X144579Y13416D01*
X144571Y13337D01*
X144575Y13259D01*
X144591Y13182D01*
X144619Y13108D01*
X144658Y13040D01*
X144707Y12979D01*
X144766Y12926D01*
X144832Y12883D01*
X144904Y12851D01*
X144980Y12830D01*
X145058Y12822D01*
X145136Y12826D01*
X145213Y12842D01*
X145284Y12869D01*
Y2000D01*
G37*
G36*
X142002Y100000D02*X145284D01*
Y61405D01*
X144379Y60500D01*
X142002D01*
Y100000D01*
G37*
G36*
Y2000D02*X138716D01*
Y12865D01*
X138786Y12839D01*
X138863Y12823D01*
X138942Y12819D01*
X139021Y12827D01*
X139097Y12848D01*
X139170Y12880D01*
X139236Y12923D01*
X139295Y12976D01*
X139344Y13038D01*
X139384Y13107D01*
X139412Y13181D01*
X139428Y13258D01*
X139432Y13337D01*
X139424Y13416D01*
X139403Y13493D01*
X139370Y13564D01*
X139247Y13807D01*
X139150Y14062D01*
X139077Y14324D01*
X139028Y14592D01*
X139003Y14864D01*
Y15136D01*
X139028Y15408D01*
X139077Y15676D01*
X139150Y15938D01*
X139247Y16193D01*
X139367Y16437D01*
X139400Y16509D01*
X139421Y16585D01*
X139429Y16663D01*
X139425Y16741D01*
X139409Y16818D01*
X139381Y16892D01*
X139342Y16960D01*
X139293Y17021D01*
X139234Y17074D01*
X139168Y17117D01*
X139096Y17149D01*
X139020Y17170D01*
X138942Y17178D01*
X138864Y17174D01*
X138787Y17158D01*
X138716Y17131D01*
Y57500D01*
X142002D01*
Y19000D01*
X141818D01*
X141456Y18967D01*
X141098Y18901D01*
X140748Y18803D01*
X140408Y18674D01*
X140081Y18515D01*
X140015Y18472D01*
X139956Y18419D01*
X139906Y18357D01*
X139867Y18288D01*
X139839Y18214D01*
X139823Y18137D01*
X139819Y18058D01*
X139827Y17979D01*
X139848Y17903D01*
X139880Y17830D01*
X139923Y17764D01*
X139976Y17705D01*
X140038Y17656D01*
X140107Y17616D01*
X140181Y17588D01*
X140258Y17572D01*
X140337Y17568D01*
X140416Y17576D01*
X140493Y17597D01*
X140564Y17630D01*
X140807Y17753D01*
X141062Y17850D01*
X141324Y17923D01*
X141592Y17972D01*
X141864Y17997D01*
X142002D01*
Y12003D01*
X141864D01*
X141592Y12028D01*
X141324Y12077D01*
X141062Y12150D01*
X140807Y12247D01*
X140563Y12367D01*
X140491Y12400D01*
X140415Y12421D01*
X140337Y12429D01*
X140259Y12425D01*
X140182Y12409D01*
X140108Y12381D01*
X140040Y12342D01*
X139979Y12293D01*
X139926Y12234D01*
X139883Y12168D01*
X139851Y12096D01*
X139830Y12020D01*
X139822Y11942D01*
X139826Y11864D01*
X139842Y11787D01*
X139870Y11713D01*
X139909Y11645D01*
X139958Y11584D01*
X140017Y11531D01*
X140083Y11489D01*
X140408Y11326D01*
X140748Y11197D01*
X141098Y11099D01*
X141456Y11033D01*
X141818Y11000D01*
X142002D01*
Y2000D01*
G37*
G36*
X138716D02*X136596D01*
Y57500D01*
X138716D01*
Y17131D01*
X138713Y17130D01*
X138645Y17091D01*
X138584Y17042D01*
X138531Y16983D01*
X138489Y16917D01*
X138326Y16592D01*
X138197Y16252D01*
X138099Y15902D01*
X138033Y15544D01*
X138000Y15182D01*
Y14818D01*
X138033Y14456D01*
X138099Y14098D01*
X138197Y13748D01*
X138326Y13408D01*
X138485Y13081D01*
X138528Y13015D01*
X138581Y12956D01*
X138643Y12906D01*
X138712Y12867D01*
X138716Y12865D01*
Y2000D01*
G37*
G36*
X136596Y100000D02*X142002D01*
Y60500D01*
X136596D01*
Y100000D01*
G37*
G36*
X52899Y82750D02*X53068D01*
X55750Y80068D01*
Y48932D01*
X54068Y47250D01*
X52622D01*
Y53293D01*
X52816Y53760D01*
X52963Y54372D01*
X53000Y55000D01*
X52963Y55628D01*
X52816Y56240D01*
X52622Y56707D01*
Y73554D01*
X52721Y73791D01*
X52864Y74388D01*
X52900Y75000D01*
X52864Y75612D01*
X52721Y76209D01*
X52622Y76446D01*
Y81348D01*
X52638Y81362D01*
X52730Y81469D01*
X52804Y81590D01*
X52859Y81721D01*
X52892Y81859D01*
X52900Y82000D01*
X52899Y82750D01*
G37*
G36*
X131994Y57500D02*X136596D01*
Y2000D01*
X131994D01*
Y10988D01*
X132000Y10988D01*
X132628Y11037D01*
X133240Y11184D01*
X133822Y11425D01*
X134358Y11754D01*
X134837Y12163D01*
X135246Y12642D01*
X135575Y13178D01*
X135816Y13760D01*
X135963Y14372D01*
X136000Y15000D01*
X135963Y15628D01*
X135816Y16240D01*
X135575Y16822D01*
X135246Y17358D01*
X134837Y17837D01*
X134358Y18246D01*
X133822Y18575D01*
X133240Y18816D01*
X132628Y18963D01*
X132000Y19012D01*
X131994Y19012D01*
Y57500D01*
G37*
G36*
X119200Y56855D02*X119349Y56728D01*
X119725Y56497D01*
X120132Y56329D01*
X120561Y56226D01*
X121000Y56191D01*
X121439Y56226D01*
X121868Y56329D01*
X122275Y56497D01*
X122651Y56728D01*
X122986Y57014D01*
X123272Y57349D01*
X123365Y57500D01*
X131994D01*
Y19012D01*
X131372Y18963D01*
X130760Y18816D01*
X130178Y18575D01*
X129642Y18246D01*
X129163Y17837D01*
X128754Y17358D01*
X128425Y16822D01*
X128184Y16240D01*
X128037Y15628D01*
X127988Y15000D01*
X128037Y14372D01*
X128184Y13760D01*
X128425Y13178D01*
X128754Y12642D01*
X129163Y12163D01*
X129642Y11754D01*
X130178Y11425D01*
X130760Y11184D01*
X131372Y11037D01*
X131994Y10988D01*
Y2000D01*
X119200D01*
Y16416D01*
X119760Y16184D01*
X120372Y16037D01*
X121000Y15988D01*
X121628Y16037D01*
X122240Y16184D01*
X122822Y16425D01*
X123358Y16754D01*
X123837Y17163D01*
X124246Y17642D01*
X124575Y18178D01*
X124816Y18760D01*
X124963Y19372D01*
X125000Y20000D01*
X124963Y20628D01*
X124816Y21240D01*
X124575Y21822D01*
X124246Y22358D01*
X123837Y22837D01*
X123358Y23246D01*
X122822Y23575D01*
X122240Y23816D01*
X121628Y23963D01*
X121000Y24012D01*
X120372Y23963D01*
X119760Y23816D01*
X119200Y23584D01*
Y56855D01*
G37*
G36*
Y100000D02*X136596D01*
Y60500D01*
X123365D01*
X123272Y60651D01*
X122986Y60986D01*
X122651Y61272D01*
X122275Y61503D01*
X121868Y61671D01*
X121439Y61774D01*
X121000Y61809D01*
X120561Y61774D01*
X120132Y61671D01*
X119725Y61503D01*
X119349Y61272D01*
X119200Y61145D01*
Y100000D01*
G37*
G36*
X112184D02*X119200D01*
Y61145D01*
X119014Y60986D01*
X118728Y60651D01*
X118497Y60275D01*
X118329Y59868D01*
X118226Y59439D01*
X118191Y59000D01*
X118226Y58561D01*
X118329Y58132D01*
X118497Y57725D01*
X118728Y57349D01*
X119014Y57014D01*
X119200Y56855D01*
Y23584D01*
X119178Y23575D01*
X118642Y23246D01*
X118163Y22837D01*
X117754Y22358D01*
X117425Y21822D01*
X117292Y21500D01*
X116621D01*
X116500Y21621D01*
Y35168D01*
X116536Y35227D01*
X116572Y35314D01*
X116594Y35406D01*
X116600Y35500D01*
X116594Y44094D01*
X116572Y44186D01*
X116536Y44273D01*
X116487Y44354D01*
X116426Y44426D01*
X116354Y44487D01*
X116273Y44536D01*
X116186Y44572D01*
X116094Y44594D01*
X116000Y44600D01*
X113906Y44594D01*
X113814Y44572D01*
X113727Y44536D01*
X113646Y44487D01*
X113574Y44426D01*
X113513Y44354D01*
X113464Y44273D01*
X113428Y44186D01*
X113406Y44094D01*
X113400Y44000D01*
X113406Y35406D01*
X113428Y35314D01*
X113464Y35227D01*
X113500Y35168D01*
Y21059D01*
X113495Y21000D01*
X113514Y20765D01*
X113569Y20535D01*
X113659Y20317D01*
X113783Y20116D01*
X113936Y19936D01*
X113981Y19898D01*
X114898Y18981D01*
X114936Y18936D01*
X115116Y18783D01*
X115317Y18659D01*
X115535Y18569D01*
X115765Y18514D01*
X116000Y18495D01*
X116059Y18500D01*
X117292D01*
X117425Y18178D01*
X117754Y17642D01*
X118163Y17163D01*
X118642Y16754D01*
X119178Y16425D01*
X119200Y16416D01*
Y2000D01*
X112184D01*
Y23246D01*
X112272Y23349D01*
X112503Y23725D01*
X112671Y24132D01*
X112774Y24561D01*
X112800Y25000D01*
X112774Y25439D01*
X112671Y25868D01*
X112503Y26275D01*
X112272Y26651D01*
X112184Y26754D01*
Y48510D01*
X112235Y48514D01*
X112235Y48514D01*
X112465Y48569D01*
X112683Y48659D01*
X112884Y48783D01*
X113064Y48936D01*
X113102Y48981D01*
X116019Y51898D01*
X116064Y51936D01*
X116217Y52115D01*
X116217Y52116D01*
X116341Y52317D01*
X116431Y52535D01*
X116486Y52765D01*
X116505Y53000D01*
X116500Y53059D01*
Y55668D01*
X116536Y55727D01*
X116572Y55814D01*
X116594Y55906D01*
X116600Y56000D01*
X116594Y64594D01*
X116572Y64686D01*
X116536Y64773D01*
X116487Y64854D01*
X116426Y64926D01*
X116354Y64987D01*
X116273Y65036D01*
X116186Y65072D01*
X116094Y65094D01*
X116000Y65100D01*
X113906Y65094D01*
X113814Y65072D01*
X113727Y65036D01*
X113646Y64987D01*
X113574Y64926D01*
X113513Y64854D01*
X113464Y64773D01*
X113428Y64686D01*
X113406Y64594D01*
X113400Y64500D01*
X113406Y55906D01*
X113428Y55814D01*
X113464Y55727D01*
X113500Y55668D01*
Y53621D01*
X112184Y52305D01*
Y73062D01*
X113389Y74267D01*
X113561Y74226D01*
X114000Y74191D01*
X114439Y74226D01*
X114868Y74329D01*
X115275Y74497D01*
X115651Y74728D01*
X115986Y75014D01*
X116272Y75349D01*
X116503Y75725D01*
X116671Y76132D01*
X116774Y76561D01*
X116800Y77000D01*
X116774Y77439D01*
X116671Y77868D01*
X116503Y78275D01*
X116272Y78651D01*
X115986Y78986D01*
X115651Y79272D01*
X115275Y79503D01*
X114868Y79671D01*
X114439Y79774D01*
X114000Y79809D01*
X113561Y79774D01*
X113132Y79671D01*
X112725Y79503D01*
X112349Y79272D01*
X112184Y79131D01*
Y100000D01*
G37*
G36*
X108218Y22840D02*X108349Y22728D01*
X108725Y22497D01*
X109132Y22329D01*
X109561Y22226D01*
X110000Y22191D01*
X110439Y22226D01*
X110868Y22329D01*
X111275Y22497D01*
X111651Y22728D01*
X111986Y23014D01*
X112184Y23246D01*
Y2000D01*
X108218D01*
Y12886D01*
X108232Y12893D01*
X108288Y12936D01*
X108337Y12988D01*
X108376Y13047D01*
X108537Y13347D01*
X108667Y13663D01*
X108770Y13988D01*
X108844Y14321D01*
X108889Y14659D01*
X108904Y15000D01*
X108889Y15341D01*
X108844Y15679D01*
X108770Y16012D01*
X108667Y16337D01*
X108537Y16653D01*
X108379Y16955D01*
X108339Y17014D01*
X108290Y17066D01*
X108233Y17109D01*
X108218Y17117D01*
Y22840D01*
G37*
G36*
X105001Y23500D02*X107635D01*
X107728Y23349D01*
X108014Y23014D01*
X108218Y22840D01*
Y17117D01*
X108171Y17143D01*
X108103Y17167D01*
X108033Y17180D01*
X107962Y17181D01*
X107891Y17172D01*
X107823Y17152D01*
X107759Y17121D01*
X107700Y17081D01*
X107648Y17031D01*
X107605Y16975D01*
X107571Y16912D01*
X107547Y16845D01*
X107534Y16775D01*
X107533Y16704D01*
X107542Y16633D01*
X107562Y16565D01*
X107594Y16501D01*
X107718Y16270D01*
X107818Y16028D01*
X107897Y15778D01*
X107954Y15522D01*
X107989Y15262D01*
X108000Y15000D01*
X107989Y14738D01*
X107954Y14478D01*
X107897Y14222D01*
X107818Y13972D01*
X107718Y13730D01*
X107597Y13498D01*
X107565Y13434D01*
X107545Y13366D01*
X107535Y13296D01*
X107537Y13225D01*
X107550Y13156D01*
X107574Y13089D01*
X107607Y13027D01*
X107650Y12971D01*
X107702Y12922D01*
X107760Y12882D01*
X107824Y12851D01*
X107892Y12831D01*
X107962Y12821D01*
X108033Y12823D01*
X108103Y12836D01*
X108169Y12860D01*
X108218Y12886D01*
Y2000D01*
X105001D01*
Y11096D01*
X105341Y11111D01*
X105679Y11156D01*
X106012Y11230D01*
X106337Y11333D01*
X106653Y11463D01*
X106955Y11621D01*
X107014Y11661D01*
X107066Y11710D01*
X107109Y11767D01*
X107143Y11829D01*
X107167Y11897D01*
X107180Y11967D01*
X107181Y12038D01*
X107172Y12109D01*
X107152Y12177D01*
X107121Y12241D01*
X107081Y12300D01*
X107031Y12352D01*
X106975Y12395D01*
X106912Y12429D01*
X106845Y12453D01*
X106775Y12466D01*
X106704Y12467D01*
X106633Y12458D01*
X106565Y12438D01*
X106501Y12406D01*
X106270Y12282D01*
X106028Y12182D01*
X105778Y12103D01*
X105522Y12046D01*
X105262Y12011D01*
X105001Y12000D01*
Y18000D01*
X105262Y17989D01*
X105522Y17954D01*
X105778Y17897D01*
X106028Y17818D01*
X106270Y17718D01*
X106502Y17597D01*
X106566Y17565D01*
X106634Y17545D01*
X106704Y17535D01*
X106775Y17537D01*
X106844Y17550D01*
X106911Y17574D01*
X106973Y17607D01*
X107030Y17650D01*
X107078Y17702D01*
X107118Y17760D01*
X107149Y17824D01*
X107169Y17892D01*
X107179Y17962D01*
X107177Y18033D01*
X107164Y18103D01*
X107140Y18169D01*
X107107Y18232D01*
X107064Y18288D01*
X107012Y18337D01*
X106953Y18376D01*
X106653Y18537D01*
X106337Y18667D01*
X106012Y18770D01*
X105679Y18844D01*
X105341Y18889D01*
X105001Y18904D01*
Y23500D01*
G37*
G36*
X101782D02*X105001D01*
Y18904D01*
X105000Y18904D01*
X104659Y18889D01*
X104321Y18844D01*
X103988Y18770D01*
X103663Y18667D01*
X103347Y18537D01*
X103045Y18379D01*
X102986Y18339D01*
X102934Y18290D01*
X102891Y18233D01*
X102857Y18171D01*
X102833Y18103D01*
X102820Y18033D01*
X102819Y17962D01*
X102828Y17891D01*
X102848Y17823D01*
X102879Y17759D01*
X102919Y17700D01*
X102969Y17648D01*
X103025Y17605D01*
X103088Y17571D01*
X103155Y17547D01*
X103225Y17534D01*
X103296Y17533D01*
X103367Y17542D01*
X103435Y17562D01*
X103499Y17594D01*
X103730Y17718D01*
X103972Y17818D01*
X104222Y17897D01*
X104478Y17954D01*
X104738Y17989D01*
X105000Y18000D01*
X105001Y18000D01*
Y12000D01*
X105000Y12000D01*
X104738Y12011D01*
X104478Y12046D01*
X104222Y12103D01*
X103972Y12182D01*
X103730Y12282D01*
X103498Y12403D01*
X103434Y12435D01*
X103366Y12455D01*
X103296Y12465D01*
X103225Y12463D01*
X103156Y12450D01*
X103089Y12426D01*
X103027Y12393D01*
X102970Y12350D01*
X102922Y12298D01*
X102882Y12240D01*
X102851Y12176D01*
X102831Y12108D01*
X102821Y12038D01*
X102823Y11967D01*
X102836Y11897D01*
X102860Y11831D01*
X102893Y11768D01*
X102936Y11712D01*
X102988Y11663D01*
X103047Y11624D01*
X103347Y11463D01*
X103663Y11333D01*
X103988Y11230D01*
X104321Y11156D01*
X104659Y11111D01*
X105000Y11096D01*
X105001Y11096D01*
Y2000D01*
X101782D01*
Y12883D01*
X101829Y12857D01*
X101897Y12833D01*
X101967Y12820D01*
X102038Y12819D01*
X102109Y12828D01*
X102177Y12848D01*
X102241Y12879D01*
X102300Y12919D01*
X102352Y12969D01*
X102395Y13025D01*
X102429Y13088D01*
X102453Y13155D01*
X102466Y13225D01*
X102467Y13296D01*
X102458Y13367D01*
X102438Y13435D01*
X102406Y13499D01*
X102282Y13730D01*
X102182Y13972D01*
X102103Y14222D01*
X102046Y14478D01*
X102011Y14738D01*
X102000Y15000D01*
X102011Y15262D01*
X102046Y15522D01*
X102103Y15778D01*
X102182Y16028D01*
X102282Y16270D01*
X102403Y16502D01*
X102435Y16566D01*
X102455Y16634D01*
X102465Y16704D01*
X102463Y16775D01*
X102450Y16844D01*
X102426Y16911D01*
X102393Y16973D01*
X102350Y17030D01*
X102298Y17078D01*
X102240Y17118D01*
X102176Y17149D01*
X102108Y17169D01*
X102038Y17179D01*
X101967Y17177D01*
X101897Y17164D01*
X101831Y17140D01*
X101782Y17114D01*
Y23500D01*
G37*
G36*
X94994D02*X101782D01*
Y17114D01*
X101768Y17107D01*
X101712Y17064D01*
X101663Y17012D01*
X101624Y16953D01*
X101463Y16653D01*
X101333Y16337D01*
X101230Y16012D01*
X101156Y15679D01*
X101111Y15341D01*
X101096Y15000D01*
X101111Y14659D01*
X101156Y14321D01*
X101230Y13988D01*
X101333Y13663D01*
X101463Y13347D01*
X101621Y13045D01*
X101661Y12986D01*
X101710Y12934D01*
X101767Y12891D01*
X101782Y12883D01*
Y2000D01*
X94994D01*
Y11088D01*
X95000Y11088D01*
X95612Y11136D01*
X96209Y11279D01*
X96776Y11514D01*
X97299Y11835D01*
X97766Y12234D01*
X98165Y12701D01*
X98486Y13224D01*
X98721Y13791D01*
X98864Y14388D01*
X98900Y15000D01*
X98864Y15612D01*
X98721Y16209D01*
X98486Y16776D01*
X98165Y17299D01*
X97766Y17766D01*
X97299Y18165D01*
X96776Y18486D01*
X96209Y18721D01*
X95612Y18864D01*
X95000Y18912D01*
X94994Y18912D01*
Y23500D01*
G37*
G36*
X83548Y15500D02*X85941D01*
X86000Y15495D01*
X86235Y15514D01*
X86235Y15514D01*
X86465Y15569D01*
X86683Y15659D01*
X86884Y15783D01*
X87064Y15936D01*
X87102Y15981D01*
X91019Y19898D01*
X91064Y19936D01*
X91217Y20115D01*
X91217Y20116D01*
X91341Y20317D01*
X91431Y20535D01*
X91486Y20765D01*
X91505Y21000D01*
X91500Y21059D01*
Y23500D01*
X94994D01*
Y18912D01*
X94388Y18864D01*
X93791Y18721D01*
X93224Y18486D01*
X92701Y18165D01*
X92234Y17766D01*
X91835Y17299D01*
X91514Y16776D01*
X91279Y16209D01*
X91136Y15612D01*
X91088Y15000D01*
X91136Y14388D01*
X91279Y13791D01*
X91514Y13224D01*
X91835Y12701D01*
X92234Y12234D01*
X92701Y11835D01*
X93224Y11514D01*
X93791Y11279D01*
X94388Y11136D01*
X94994Y11088D01*
Y2000D01*
X83548D01*
Y15500D01*
G37*
G36*
X105002Y34903D02*X106094Y34906D01*
X106186Y34928D01*
X106273Y34964D01*
X106354Y35013D01*
X106426Y35074D01*
X106487Y35146D01*
X106536Y35227D01*
X106572Y35314D01*
X106594Y35406D01*
X106600Y35500D01*
X106594Y44094D01*
X106572Y44186D01*
X106536Y44273D01*
X106500Y44332D01*
Y46379D01*
X108621Y48500D01*
X111941D01*
X112000Y48495D01*
X112184Y48510D01*
Y26754D01*
X111986Y26986D01*
X111651Y27272D01*
X111500Y27365D01*
Y35168D01*
X111536Y35227D01*
X111572Y35314D01*
X111594Y35406D01*
X111600Y35500D01*
X111594Y44094D01*
X111572Y44186D01*
X111536Y44273D01*
X111487Y44354D01*
X111426Y44426D01*
X111354Y44487D01*
X111273Y44536D01*
X111186Y44572D01*
X111094Y44594D01*
X111000Y44600D01*
X108906Y44594D01*
X108814Y44572D01*
X108727Y44536D01*
X108646Y44487D01*
X108574Y44426D01*
X108513Y44354D01*
X108464Y44273D01*
X108428Y44186D01*
X108406Y44094D01*
X108400Y44000D01*
X108406Y35406D01*
X108428Y35314D01*
X108464Y35227D01*
X108500Y35168D01*
Y27365D01*
X108349Y27272D01*
X108014Y26986D01*
X107728Y26651D01*
X107635Y26500D01*
X105002D01*
Y34903D01*
G37*
G36*
Y100000D02*X112184D01*
Y79131D01*
X112014Y78986D01*
X111728Y78651D01*
X111497Y78275D01*
X111329Y77868D01*
X111226Y77439D01*
X111191Y77000D01*
X111226Y76561D01*
X111267Y76389D01*
X108981Y74102D01*
X108936Y74064D01*
X108783Y73884D01*
X108659Y73683D01*
X108569Y73465D01*
X108514Y73235D01*
X108514Y73235D01*
X108495Y73000D01*
X108500Y72941D01*
Y71941D01*
X108472Y71985D01*
X108419Y72044D01*
X108357Y72094D01*
X108288Y72133D01*
X108214Y72161D01*
X108137Y72177D01*
X108058Y72181D01*
X107979Y72173D01*
X107903Y72152D01*
X107830Y72120D01*
X107764Y72077D01*
X107705Y72024D01*
X107656Y71962D01*
X107616Y71893D01*
X107588Y71819D01*
X107572Y71742D01*
X107568Y71663D01*
X107576Y71584D01*
X107597Y71507D01*
X107630Y71436D01*
X107753Y71193D01*
X107850Y70938D01*
X107923Y70676D01*
X107972Y70408D01*
X107997Y70136D01*
Y69864D01*
X107972Y69592D01*
X107923Y69324D01*
X107850Y69062D01*
X107753Y68807D01*
X107633Y68563D01*
X107600Y68491D01*
X107579Y68416D01*
X107571Y68337D01*
X107575Y68259D01*
X107591Y68182D01*
X107619Y68108D01*
X107658Y68040D01*
X107707Y67979D01*
X107766Y67926D01*
X107832Y67883D01*
X107904Y67851D01*
X107980Y67830D01*
X108058Y67822D01*
X108136Y67826D01*
X108213Y67842D01*
X108287Y67870D01*
X108355Y67909D01*
X108416Y67958D01*
X108469Y68017D01*
X108500Y68066D01*
Y64832D01*
X108464Y64773D01*
X108428Y64686D01*
X108406Y64594D01*
X108400Y64500D01*
X108406Y55906D01*
X108428Y55814D01*
X108464Y55727D01*
X108513Y55646D01*
X108574Y55574D01*
X108646Y55513D01*
X108727Y55464D01*
X108814Y55428D01*
X108906Y55406D01*
X109000Y55400D01*
X111094Y55406D01*
X111186Y55428D01*
X111273Y55464D01*
X111354Y55513D01*
X111426Y55574D01*
X111487Y55646D01*
X111536Y55727D01*
X111572Y55814D01*
X111594Y55906D01*
X111600Y56000D01*
X111594Y64594D01*
X111572Y64686D01*
X111536Y64773D01*
X111500Y64832D01*
Y72379D01*
X112184Y73062D01*
Y52305D01*
X111379Y51500D01*
X108059D01*
X108000Y51505D01*
X107765Y51486D01*
X107535Y51431D01*
X107317Y51341D01*
X107116Y51217D01*
X107115Y51217D01*
X106936Y51064D01*
X106898Y51019D01*
X105002Y49123D01*
Y55403D01*
X106094Y55406D01*
X106186Y55428D01*
X106273Y55464D01*
X106354Y55513D01*
X106426Y55574D01*
X106487Y55646D01*
X106536Y55727D01*
X106572Y55814D01*
X106594Y55906D01*
X106600Y56000D01*
X106594Y64594D01*
X106572Y64686D01*
X106536Y64773D01*
X106500Y64832D01*
Y66291D01*
X106592Y66326D01*
X106919Y66485D01*
X106985Y66528D01*
X107044Y66581D01*
X107094Y66643D01*
X107133Y66712D01*
X107161Y66786D01*
X107177Y66863D01*
X107181Y66942D01*
X107173Y67021D01*
X107152Y67097D01*
X107120Y67170D01*
X107077Y67236D01*
X107024Y67295D01*
X106962Y67344D01*
X106893Y67384D01*
X106819Y67412D01*
X106742Y67428D01*
X106663Y67432D01*
X106584Y67424D01*
X106507Y67403D01*
X106500Y67400D01*
Y70000D01*
X106486Y70235D01*
X106431Y70465D01*
X106341Y70683D01*
X106217Y70884D01*
X106064Y71064D01*
X105884Y71217D01*
X105683Y71341D01*
X105465Y71431D01*
X105235Y71486D01*
X105002Y71505D01*
Y72997D01*
X105136D01*
X105408Y72972D01*
X105676Y72923D01*
X105938Y72850D01*
X106193Y72753D01*
X106437Y72633D01*
X106509Y72600D01*
X106584Y72579D01*
X106663Y72571D01*
X106741Y72575D01*
X106818Y72591D01*
X106892Y72619D01*
X106960Y72658D01*
X107021Y72707D01*
X107074Y72766D01*
X107117Y72832D01*
X107149Y72904D01*
X107170Y72980D01*
X107178Y73058D01*
X107174Y73136D01*
X107158Y73213D01*
X107130Y73287D01*
X107091Y73355D01*
X107042Y73416D01*
X106983Y73469D01*
X106917Y73511D01*
X106592Y73674D01*
X106252Y73803D01*
X105902Y73901D01*
X105544Y73967D01*
X105182Y74000D01*
X105002D01*
Y81104D01*
X108141Y81108D01*
X108279Y81141D01*
X108410Y81196D01*
X108531Y81270D01*
X108638Y81362D01*
X108730Y81469D01*
X108804Y81590D01*
X108859Y81721D01*
X108892Y81859D01*
X108900Y82000D01*
X108892Y88141D01*
X108859Y88279D01*
X108804Y88410D01*
X108730Y88531D01*
X108638Y88638D01*
X108531Y88730D01*
X108410Y88804D01*
X108279Y88859D01*
X108141Y88892D01*
X108000Y88900D01*
X105002Y88896D01*
Y100000D01*
G37*
G36*
X103284Y66388D02*X103408Y66326D01*
X103500Y66291D01*
Y64832D01*
X103464Y64773D01*
X103428Y64686D01*
X103406Y64594D01*
X103400Y64500D01*
X103406Y55906D01*
X103428Y55814D01*
X103464Y55727D01*
X103513Y55646D01*
X103574Y55574D01*
X103646Y55513D01*
X103727Y55464D01*
X103814Y55428D01*
X103906Y55406D01*
X104000Y55400D01*
X105002Y55403D01*
Y49123D01*
X103981Y48102D01*
X103936Y48064D01*
X103783Y47884D01*
X103659Y47683D01*
X103569Y47465D01*
X103514Y47235D01*
X103514Y47235D01*
X103495Y47000D01*
X103500Y46941D01*
Y44332D01*
X103464Y44273D01*
X103428Y44186D01*
X103406Y44094D01*
X103400Y44000D01*
X103406Y35406D01*
X103428Y35314D01*
X103464Y35227D01*
X103513Y35146D01*
X103574Y35074D01*
X103646Y35013D01*
X103727Y34964D01*
X103814Y34928D01*
X103906Y34906D01*
X104000Y34900D01*
X105002Y34903D01*
Y26500D01*
X103284D01*
Y27869D01*
X103287Y27870D01*
X103355Y27909D01*
X103416Y27958D01*
X103469Y28017D01*
X103511Y28083D01*
X103674Y28408D01*
X103803Y28748D01*
X103901Y29098D01*
X103967Y29456D01*
X104000Y29818D01*
Y30182D01*
X103967Y30544D01*
X103901Y30902D01*
X103803Y31252D01*
X103674Y31592D01*
X103515Y31919D01*
X103472Y31985D01*
X103419Y32044D01*
X103357Y32094D01*
X103288Y32133D01*
X103284Y32135D01*
Y66388D01*
G37*
G36*
Y72570D02*X103337Y72568D01*
X103416Y72576D01*
X103493Y72597D01*
X103564Y72630D01*
X103807Y72753D01*
X104062Y72850D01*
X104324Y72923D01*
X104592Y72972D01*
X104864Y72997D01*
X105002D01*
Y71505D01*
X105000Y71505D01*
X104765Y71486D01*
X104535Y71431D01*
X104317Y71341D01*
X104116Y71217D01*
X103936Y71064D01*
X103783Y70884D01*
X103659Y70683D01*
X103569Y70465D01*
X103514Y70235D01*
X103500Y70000D01*
Y67396D01*
X103491Y67400D01*
X103415Y67421D01*
X103337Y67429D01*
X103284Y67427D01*
Y72570D01*
G37*
G36*
Y81102D02*X105002Y81104D01*
Y74000D01*
X104818D01*
X104456Y73967D01*
X104098Y73901D01*
X103748Y73803D01*
X103408Y73674D01*
X103284Y73613D01*
Y81102D01*
G37*
G36*
X101716Y81143D02*X101721Y81141D01*
X101859Y81108D01*
X102000Y81100D01*
X103284Y81102D01*
Y73613D01*
X103081Y73515D01*
X103015Y73472D01*
X102956Y73419D01*
X102906Y73357D01*
X102867Y73288D01*
X102839Y73214D01*
X102823Y73137D01*
X102819Y73058D01*
X102827Y72979D01*
X102848Y72903D01*
X102880Y72830D01*
X102923Y72764D01*
X102976Y72705D01*
X103038Y72656D01*
X103107Y72616D01*
X103181Y72588D01*
X103258Y72572D01*
X103284Y72570D01*
Y67427D01*
X103259Y67425D01*
X103182Y67409D01*
X103108Y67381D01*
X103040Y67342D01*
X102979Y67293D01*
X102926Y67234D01*
X102883Y67168D01*
X102851Y67096D01*
X102830Y67020D01*
X102822Y66942D01*
X102826Y66864D01*
X102842Y66787D01*
X102870Y66713D01*
X102909Y66645D01*
X102958Y66584D01*
X103017Y66531D01*
X103083Y66489D01*
X103284Y66388D01*
Y32135D01*
X103214Y32161D01*
X103137Y32177D01*
X103058Y32181D01*
X102979Y32173D01*
X102903Y32152D01*
X102830Y32120D01*
X102764Y32077D01*
X102705Y32024D01*
X102656Y31962D01*
X102616Y31893D01*
X102588Y31819D01*
X102572Y31742D01*
X102568Y31663D01*
X102576Y31584D01*
X102597Y31507D01*
X102630Y31436D01*
X102753Y31193D01*
X102850Y30938D01*
X102923Y30676D01*
X102972Y30408D01*
X102997Y30136D01*
Y29864D01*
X102972Y29592D01*
X102923Y29324D01*
X102850Y29062D01*
X102753Y28807D01*
X102633Y28563D01*
X102600Y28491D01*
X102579Y28415D01*
X102571Y28337D01*
X102575Y28259D01*
X102591Y28182D01*
X102619Y28108D01*
X102658Y28040D01*
X102707Y27979D01*
X102766Y27926D01*
X102832Y27883D01*
X102904Y27851D01*
X102980Y27830D01*
X103058Y27822D01*
X103136Y27826D01*
X103213Y27842D01*
X103284Y27869D01*
Y26500D01*
X101941D01*
X101985Y26528D01*
X102044Y26581D01*
X102094Y26643D01*
X102133Y26712D01*
X102161Y26786D01*
X102177Y26863D01*
X102181Y26942D01*
X102173Y27021D01*
X102152Y27097D01*
X102120Y27170D01*
X102077Y27236D01*
X102024Y27295D01*
X101962Y27344D01*
X101893Y27384D01*
X101819Y27412D01*
X101742Y27428D01*
X101716Y27430D01*
Y32573D01*
X101741Y32575D01*
X101818Y32591D01*
X101892Y32619D01*
X101960Y32658D01*
X102021Y32707D01*
X102074Y32766D01*
X102117Y32832D01*
X102149Y32904D01*
X102170Y32980D01*
X102178Y33058D01*
X102174Y33136D01*
X102158Y33213D01*
X102130Y33287D01*
X102091Y33355D01*
X102042Y33416D01*
X101983Y33469D01*
X101917Y33511D01*
X101716Y33612D01*
Y67865D01*
X101786Y67839D01*
X101863Y67823D01*
X101942Y67819D01*
X102021Y67827D01*
X102097Y67848D01*
X102170Y67880D01*
X102236Y67923D01*
X102295Y67976D01*
X102344Y68038D01*
X102384Y68107D01*
X102412Y68181D01*
X102428Y68258D01*
X102432Y68337D01*
X102424Y68416D01*
X102403Y68493D01*
X102370Y68564D01*
X102247Y68807D01*
X102150Y69062D01*
X102077Y69324D01*
X102028Y69592D01*
X102003Y69864D01*
Y70136D01*
X102028Y70408D01*
X102077Y70676D01*
X102150Y70938D01*
X102247Y71193D01*
X102367Y71437D01*
X102400Y71509D01*
X102421Y71585D01*
X102429Y71663D01*
X102425Y71741D01*
X102409Y71818D01*
X102381Y71892D01*
X102342Y71960D01*
X102293Y72021D01*
X102234Y72074D01*
X102168Y72117D01*
X102096Y72149D01*
X102020Y72170D01*
X101942Y72178D01*
X101864Y72174D01*
X101787Y72158D01*
X101716Y72131D01*
Y81143D01*
G37*
G36*
Y100000D02*X105002D01*
Y88896D01*
X101859Y88892D01*
X101721Y88859D01*
X101716Y88857D01*
Y100000D01*
G37*
G36*
Y27430D02*X101663Y27432D01*
X101584Y27424D01*
X101507Y27403D01*
X101436Y27370D01*
X101193Y27247D01*
X100938Y27150D01*
X100676Y27077D01*
X100408Y27028D01*
X100136Y27003D01*
X99998D01*
Y28496D01*
X100000Y28495D01*
X100235Y28514D01*
X100465Y28569D01*
X100683Y28659D01*
X100884Y28783D01*
X101064Y28936D01*
X101217Y29116D01*
X101341Y29317D01*
X101431Y29535D01*
X101486Y29765D01*
X101500Y30000D01*
Y32604D01*
X101509Y32600D01*
X101584Y32579D01*
X101663Y32571D01*
X101716Y32573D01*
Y27430D01*
G37*
G36*
X99998Y100000D02*X101716D01*
Y88857D01*
X101590Y88804D01*
X101469Y88730D01*
X101362Y88638D01*
X101270Y88531D01*
X101196Y88410D01*
X101141Y88279D01*
X101108Y88141D01*
X101100Y88000D01*
X101108Y81859D01*
X101141Y81721D01*
X101196Y81590D01*
X101270Y81469D01*
X101362Y81362D01*
X101469Y81270D01*
X101590Y81196D01*
X101716Y81143D01*
Y72131D01*
X101713Y72130D01*
X101645Y72091D01*
X101584Y72042D01*
X101531Y71983D01*
X101489Y71917D01*
X101326Y71592D01*
X101197Y71252D01*
X101099Y70902D01*
X101033Y70544D01*
X101000Y70182D01*
Y69818D01*
X101033Y69456D01*
X101099Y69098D01*
X101197Y68748D01*
X101326Y68408D01*
X101485Y68081D01*
X101528Y68015D01*
X101581Y67956D01*
X101643Y67906D01*
X101712Y67867D01*
X101716Y67865D01*
Y33612D01*
X101592Y33674D01*
X101500Y33709D01*
Y35168D01*
X101536Y35227D01*
X101572Y35314D01*
X101594Y35406D01*
X101600Y35500D01*
X101594Y44094D01*
X101572Y44186D01*
X101536Y44273D01*
X101487Y44354D01*
X101426Y44426D01*
X101354Y44487D01*
X101273Y44536D01*
X101186Y44572D01*
X101094Y44594D01*
X101000Y44600D01*
X99998Y44597D01*
Y55502D01*
X101078Y55505D01*
X101155Y55523D01*
X101228Y55553D01*
X101295Y55594D01*
X101355Y55645D01*
X101406Y55705D01*
X101447Y55772D01*
X101477Y55845D01*
X101495Y55922D01*
X101500Y56000D01*
X101495Y64578D01*
X101477Y64655D01*
X101447Y64728D01*
X101406Y64795D01*
X101355Y64855D01*
X101295Y64906D01*
X101228Y64947D01*
X101155Y64977D01*
X101078Y64995D01*
X101000Y65000D01*
X99998Y64998D01*
Y100000D01*
G37*
G36*
X96716D02*X99998D01*
Y64998D01*
X98922Y64995D01*
X98845Y64977D01*
X98772Y64947D01*
X98705Y64906D01*
X98645Y64855D01*
X98594Y64795D01*
X98553Y64728D01*
X98523Y64655D01*
X98505Y64578D01*
X98500Y64500D01*
X98505Y55922D01*
X98523Y55845D01*
X98553Y55772D01*
X98594Y55705D01*
X98645Y55645D01*
X98705Y55594D01*
X98772Y55553D01*
X98845Y55523D01*
X98922Y55505D01*
X99000Y55500D01*
X99998Y55502D01*
Y44597D01*
X98906Y44594D01*
X98814Y44572D01*
X98727Y44536D01*
X98646Y44487D01*
X98574Y44426D01*
X98513Y44354D01*
X98464Y44273D01*
X98428Y44186D01*
X98406Y44094D01*
X98400Y44000D01*
X98406Y35406D01*
X98428Y35314D01*
X98464Y35227D01*
X98500Y35168D01*
Y33709D01*
X98408Y33674D01*
X98081Y33515D01*
X98015Y33472D01*
X97956Y33419D01*
X97906Y33357D01*
X97867Y33288D01*
X97839Y33214D01*
X97823Y33137D01*
X97819Y33058D01*
X97827Y32979D01*
X97848Y32903D01*
X97880Y32830D01*
X97923Y32764D01*
X97976Y32705D01*
X98038Y32656D01*
X98107Y32616D01*
X98181Y32588D01*
X98258Y32572D01*
X98337Y32568D01*
X98416Y32576D01*
X98493Y32597D01*
X98500Y32600D01*
Y30000D01*
X98514Y29765D01*
X98569Y29535D01*
X98659Y29317D01*
X98783Y29116D01*
X98936Y28936D01*
X99116Y28783D01*
X99317Y28659D01*
X99535Y28569D01*
X99765Y28514D01*
X99998Y28496D01*
Y27003D01*
X99864D01*
X99592Y27028D01*
X99324Y27077D01*
X99062Y27150D01*
X98807Y27247D01*
X98563Y27367D01*
X98491Y27400D01*
X98415Y27421D01*
X98337Y27429D01*
X98259Y27425D01*
X98182Y27409D01*
X98108Y27381D01*
X98040Y27342D01*
X97979Y27293D01*
X97926Y27234D01*
X97883Y27168D01*
X97851Y27096D01*
X97830Y27020D01*
X97822Y26942D01*
X97826Y26864D01*
X97842Y26787D01*
X97870Y26713D01*
X97909Y26645D01*
X97958Y26584D01*
X98017Y26531D01*
X98066Y26500D01*
X96716D01*
Y27865D01*
X96786Y27839D01*
X96863Y27823D01*
X96942Y27819D01*
X97021Y27827D01*
X97097Y27848D01*
X97170Y27880D01*
X97236Y27923D01*
X97295Y27976D01*
X97344Y28038D01*
X97384Y28107D01*
X97412Y28181D01*
X97428Y28258D01*
X97432Y28337D01*
X97424Y28416D01*
X97403Y28493D01*
X97370Y28564D01*
X97247Y28807D01*
X97150Y29062D01*
X97077Y29324D01*
X97028Y29592D01*
X97003Y29864D01*
Y30136D01*
X97028Y30408D01*
X97077Y30676D01*
X97150Y30938D01*
X97247Y31193D01*
X97367Y31437D01*
X97400Y31509D01*
X97421Y31585D01*
X97429Y31663D01*
X97425Y31741D01*
X97409Y31818D01*
X97381Y31892D01*
X97342Y31960D01*
X97293Y32021D01*
X97234Y32074D01*
X97168Y32117D01*
X97096Y32149D01*
X97020Y32170D01*
X96942Y32178D01*
X96864Y32174D01*
X96787Y32158D01*
X96716Y32131D01*
Y66784D01*
X96986Y67014D01*
X97272Y67349D01*
X97503Y67725D01*
X97671Y68132D01*
X97774Y68561D01*
X97800Y69000D01*
X97774Y69439D01*
X97671Y69868D01*
X97503Y70275D01*
X97272Y70651D01*
X96986Y70986D01*
X96716Y71216D01*
Y81490D01*
X96776Y81514D01*
X97299Y81835D01*
X97766Y82234D01*
X98165Y82701D01*
X98486Y83224D01*
X98721Y83791D01*
X98864Y84388D01*
X98900Y85000D01*
X98864Y85612D01*
X98721Y86209D01*
X98486Y86776D01*
X98165Y87299D01*
X97766Y87766D01*
X97299Y88165D01*
X96776Y88486D01*
X96716Y88510D01*
Y100000D01*
G37*
G36*
Y26500D02*X95000D01*
Y34903D01*
X96094Y34906D01*
X96186Y34928D01*
X96273Y34964D01*
X96354Y35013D01*
X96426Y35074D01*
X96487Y35146D01*
X96536Y35227D01*
X96572Y35314D01*
X96594Y35406D01*
X96600Y35500D01*
X96594Y44094D01*
X96572Y44186D01*
X96536Y44273D01*
X96487Y44354D01*
X96426Y44426D01*
X96354Y44487D01*
X96273Y44536D01*
X96186Y44572D01*
X96094Y44594D01*
X96000Y44600D01*
X95000Y44597D01*
Y55403D01*
X96094Y55406D01*
X96186Y55428D01*
X96273Y55464D01*
X96354Y55513D01*
X96426Y55574D01*
X96487Y55646D01*
X96536Y55727D01*
X96572Y55814D01*
X96594Y55906D01*
X96600Y56000D01*
X96594Y64594D01*
X96572Y64686D01*
X96536Y64773D01*
X96500Y64832D01*
Y66635D01*
X96651Y66728D01*
X96716Y66784D01*
Y32131D01*
X96713Y32130D01*
X96645Y32091D01*
X96584Y32042D01*
X96531Y31983D01*
X96489Y31917D01*
X96326Y31592D01*
X96197Y31252D01*
X96099Y30902D01*
X96033Y30544D01*
X96000Y30182D01*
Y29818D01*
X96033Y29456D01*
X96099Y29098D01*
X96197Y28748D01*
X96326Y28408D01*
X96485Y28081D01*
X96528Y28015D01*
X96581Y27956D01*
X96643Y27906D01*
X96712Y27867D01*
X96716Y27865D01*
Y26500D01*
G37*
G36*
X95000D02*X91500D01*
Y35168D01*
X91536Y35227D01*
X91572Y35314D01*
X91594Y35406D01*
X91600Y35500D01*
X91594Y44094D01*
X91572Y44186D01*
X91536Y44273D01*
X91487Y44354D01*
X91426Y44426D01*
X91354Y44487D01*
X91273Y44536D01*
X91186Y44572D01*
X91094Y44594D01*
X91000Y44600D01*
X88906Y44594D01*
X88814Y44572D01*
X88727Y44536D01*
X88646Y44487D01*
X88574Y44426D01*
X88513Y44354D01*
X88464Y44273D01*
X88428Y44186D01*
X88406Y44094D01*
X88400Y44000D01*
X88406Y35406D01*
X88428Y35314D01*
X88464Y35227D01*
X88500Y35168D01*
Y25059D01*
X88495Y25000D01*
X88500Y24941D01*
Y21621D01*
X85379Y18500D01*
X83548D01*
Y20606D01*
X83725Y20497D01*
X84132Y20329D01*
X84561Y20226D01*
X85000Y20191D01*
X85439Y20226D01*
X85868Y20329D01*
X86275Y20497D01*
X86651Y20728D01*
X86986Y21014D01*
X87272Y21349D01*
X87503Y21725D01*
X87671Y22132D01*
X87774Y22561D01*
X87800Y23000D01*
X87774Y23439D01*
X87671Y23868D01*
X87503Y24275D01*
X87272Y24651D01*
X86986Y24986D01*
X86651Y25272D01*
X86500Y25365D01*
Y35168D01*
X86536Y35227D01*
X86572Y35314D01*
X86594Y35406D01*
X86600Y35500D01*
X86594Y44094D01*
X86572Y44186D01*
X86536Y44273D01*
X86487Y44354D01*
X86426Y44426D01*
X86354Y44487D01*
X86273Y44536D01*
X86186Y44572D01*
X86094Y44594D01*
X86000Y44600D01*
X83906Y44594D01*
X83814Y44572D01*
X83727Y44536D01*
X83646Y44487D01*
X83574Y44426D01*
X83548Y44394D01*
Y55606D01*
X83574Y55574D01*
X83646Y55513D01*
X83727Y55464D01*
X83814Y55428D01*
X83906Y55406D01*
X84000Y55400D01*
X86094Y55406D01*
X86186Y55428D01*
X86273Y55464D01*
X86354Y55513D01*
X86426Y55574D01*
X86487Y55646D01*
X86536Y55727D01*
X86572Y55814D01*
X86594Y55906D01*
X86600Y56000D01*
X86594Y64594D01*
X86572Y64686D01*
X86536Y64773D01*
X86500Y64832D01*
Y73941D01*
X86505Y74000D01*
X86486Y74235D01*
X86486Y74235D01*
X86431Y74465D01*
X86341Y74683D01*
X86217Y74884D01*
X86064Y75064D01*
X86019Y75102D01*
X85683Y75438D01*
X85724Y75528D01*
X85842Y75871D01*
X85859Y75949D01*
X85863Y76028D01*
X85854Y76107D01*
X85833Y76183D01*
X85801Y76255D01*
X85758Y76322D01*
X85705Y76380D01*
X85643Y76430D01*
X85574Y76470D01*
X85500Y76498D01*
X85423Y76514D01*
X85344Y76518D01*
X85265Y76510D01*
X85189Y76489D01*
X85116Y76456D01*
X85050Y76413D01*
X84991Y76360D01*
X84942Y76298D01*
X84902Y76230D01*
X84899Y76222D01*
X83548Y77574D01*
Y79568D01*
X83589Y79545D01*
X83813Y79390D01*
X84023Y79215D01*
X84215Y79023D01*
X84390Y78813D01*
X84545Y78589D01*
X84678Y78352D01*
X84790Y78103D01*
X84878Y77846D01*
X84905Y77772D01*
X84944Y77703D01*
X84994Y77642D01*
X85052Y77589D01*
X85118Y77546D01*
X85190Y77514D01*
X85266Y77494D01*
X85344Y77485D01*
X85422Y77489D01*
X85499Y77505D01*
X85573Y77533D01*
X85641Y77572D01*
X85703Y77622D01*
X85755Y77680D01*
X85798Y77746D01*
X85830Y77818D01*
X85851Y77894D01*
X85859Y77972D01*
X85856Y78051D01*
X85838Y78127D01*
X85724Y78472D01*
X85575Y78804D01*
X85396Y79121D01*
X85190Y79420D01*
X84957Y79700D01*
X84700Y79957D01*
X84420Y80190D01*
X84121Y80396D01*
X83804Y80575D01*
X83548Y80690D01*
Y82624D01*
X83569Y82535D01*
X83659Y82317D01*
X83783Y82116D01*
X83936Y81936D01*
X83981Y81898D01*
X93500Y72379D01*
Y71365D01*
X93349Y71272D01*
X93014Y70986D01*
X92728Y70651D01*
X92635Y70500D01*
X92059D01*
X92000Y70505D01*
X91765Y70486D01*
X91535Y70431D01*
X91317Y70341D01*
X91116Y70217D01*
X91115Y70217D01*
X90936Y70064D01*
X90898Y70019D01*
X88981Y68102D01*
X88936Y68064D01*
X88783Y67884D01*
X88659Y67683D01*
X88569Y67465D01*
X88514Y67235D01*
X88514Y67235D01*
X88495Y67000D01*
X88500Y66941D01*
Y64832D01*
X88464Y64773D01*
X88428Y64686D01*
X88406Y64594D01*
X88400Y64500D01*
X88406Y55906D01*
X88428Y55814D01*
X88464Y55727D01*
X88513Y55646D01*
X88574Y55574D01*
X88646Y55513D01*
X88727Y55464D01*
X88814Y55428D01*
X88906Y55406D01*
X89000Y55400D01*
X91094Y55406D01*
X91186Y55428D01*
X91273Y55464D01*
X91354Y55513D01*
X91426Y55574D01*
X91487Y55646D01*
X91536Y55727D01*
X91572Y55814D01*
X91594Y55906D01*
X91600Y56000D01*
X91594Y64594D01*
X91572Y64686D01*
X91536Y64773D01*
X91500Y64832D01*
Y66379D01*
X92621Y67500D01*
X92635D01*
X92728Y67349D01*
X93014Y67014D01*
X93349Y66728D01*
X93500Y66635D01*
Y64832D01*
X93464Y64773D01*
X93428Y64686D01*
X93406Y64594D01*
X93400Y64500D01*
X93406Y55906D01*
X93428Y55814D01*
X93464Y55727D01*
X93513Y55646D01*
X93574Y55574D01*
X93646Y55513D01*
X93727Y55464D01*
X93814Y55428D01*
X93906Y55406D01*
X94000Y55400D01*
X95000Y55403D01*
Y44597D01*
X93906Y44594D01*
X93814Y44572D01*
X93727Y44536D01*
X93646Y44487D01*
X93574Y44426D01*
X93513Y44354D01*
X93464Y44273D01*
X93428Y44186D01*
X93406Y44094D01*
X93400Y44000D01*
X93406Y35406D01*
X93428Y35314D01*
X93464Y35227D01*
X93513Y35146D01*
X93574Y35074D01*
X93646Y35013D01*
X93727Y34964D01*
X93814Y34928D01*
X93906Y34906D01*
X94000Y34900D01*
X95000Y34903D01*
Y26500D01*
G37*
G36*
X83548Y100000D02*X96716D01*
Y88510D01*
X96209Y88721D01*
X95612Y88864D01*
X95000Y88912D01*
X94388Y88864D01*
X93791Y88721D01*
X93224Y88486D01*
X92701Y88165D01*
X92234Y87766D01*
X91835Y87299D01*
X91514Y86776D01*
X91279Y86209D01*
X91136Y85612D01*
X91088Y85000D01*
X91136Y84388D01*
X91279Y83791D01*
X91514Y83224D01*
X91835Y82701D01*
X92234Y82234D01*
X92701Y81835D01*
X93224Y81514D01*
X93791Y81279D01*
X94388Y81136D01*
X95000Y81088D01*
X95612Y81136D01*
X96209Y81279D01*
X96716Y81490D01*
Y71216D01*
X96651Y71272D01*
X96500Y71365D01*
Y72941D01*
X96505Y73000D01*
X96486Y73235D01*
X96431Y73465D01*
X96341Y73683D01*
X96217Y73884D01*
X96064Y74064D01*
X96019Y74102D01*
X86500Y83621D01*
Y90635D01*
X86651Y90728D01*
X86986Y91014D01*
X87272Y91349D01*
X87503Y91725D01*
X87671Y92132D01*
X87774Y92561D01*
X87800Y93000D01*
X87774Y93439D01*
X87671Y93868D01*
X87503Y94275D01*
X87272Y94651D01*
X86986Y94986D01*
X86651Y95272D01*
X86275Y95503D01*
X85868Y95671D01*
X85439Y95774D01*
X85000Y95809D01*
X84561Y95774D01*
X84132Y95671D01*
X83725Y95503D01*
X83548Y95394D01*
Y100000D01*
G37*
G36*
X72994Y21885D02*X78898Y15981D01*
X78936Y15936D01*
X79116Y15783D01*
X79317Y15659D01*
X79535Y15569D01*
X79765Y15514D01*
X80000Y15495D01*
X80059Y15500D01*
X83548D01*
Y2000D01*
X72994D01*
Y14751D01*
X73000Y14818D01*
Y15182D01*
X72994Y15250D01*
Y21885D01*
G37*
G36*
X79826Y100000D02*X83548D01*
Y95394D01*
X83349Y95272D01*
X83014Y94986D01*
X82728Y94651D01*
X82497Y94275D01*
X82329Y93868D01*
X82226Y93439D01*
X82191Y93000D01*
X82226Y92561D01*
X82329Y92132D01*
X82497Y91725D01*
X82728Y91349D01*
X83014Y91014D01*
X83349Y90728D01*
X83500Y90635D01*
Y83059D01*
X83495Y83000D01*
X83514Y82765D01*
X83548Y82624D01*
Y80690D01*
X83472Y80724D01*
X83129Y80842D01*
X83051Y80859D01*
X82972Y80863D01*
X82893Y80854D01*
X82817Y80833D01*
X82745Y80801D01*
X82678Y80758D01*
X82620Y80705D01*
X82570Y80643D01*
X82530Y80574D01*
X82502Y80500D01*
X82486Y80423D01*
X82482Y80344D01*
X82490Y80265D01*
X82511Y80189D01*
X82544Y80116D01*
X82587Y80050D01*
X82640Y79991D01*
X82702Y79942D01*
X82770Y79902D01*
X82845Y79875D01*
X83103Y79790D01*
X83352Y79678D01*
X83548Y79568D01*
Y77574D01*
X83061Y78061D01*
X82884Y78217D01*
X82683Y78341D01*
X82465Y78431D01*
X82235Y78486D01*
X82000Y78505D01*
X81765Y78486D01*
X81535Y78431D01*
X81317Y78341D01*
X81116Y78217D01*
X80936Y78064D01*
X80783Y77884D01*
X80659Y77683D01*
X80569Y77465D01*
X80514Y77235D01*
X80495Y77000D01*
X80514Y76765D01*
X80569Y76535D01*
X80659Y76317D01*
X80783Y76116D01*
X80939Y75939D01*
X82780Y74098D01*
X82772Y74095D01*
X82703Y74056D01*
X82642Y74006D01*
X82589Y73948D01*
X82546Y73882D01*
X82514Y73810D01*
X82494Y73734D01*
X82485Y73656D01*
X82489Y73578D01*
X82505Y73501D01*
X82533Y73427D01*
X82572Y73359D01*
X82622Y73297D01*
X82680Y73245D01*
X82746Y73202D01*
X82818Y73170D01*
X82894Y73149D01*
X82972Y73141D01*
X83051Y73144D01*
X83127Y73162D01*
X83472Y73276D01*
X83500Y73289D01*
Y64832D01*
X83464Y64773D01*
X83428Y64686D01*
X83406Y64594D01*
X83400Y64500D01*
X83406Y55906D01*
X83428Y55814D01*
X83464Y55727D01*
X83513Y55646D01*
X83548Y55606D01*
Y44394D01*
X83513Y44354D01*
X83464Y44273D01*
X83428Y44186D01*
X83406Y44094D01*
X83400Y44000D01*
X83406Y35406D01*
X83428Y35314D01*
X83464Y35227D01*
X83500Y35168D01*
Y25365D01*
X83349Y25272D01*
X83014Y24986D01*
X82728Y24651D01*
X82497Y24275D01*
X82329Y23868D01*
X82226Y23439D01*
X82191Y23000D01*
X82226Y22561D01*
X82329Y22132D01*
X82497Y21725D01*
X82728Y21349D01*
X83014Y21014D01*
X83349Y20728D01*
X83548Y20606D01*
Y18500D01*
X80621D01*
X79826Y19295D01*
Y73640D01*
X79879Y73604D01*
X80196Y73425D01*
X80528Y73276D01*
X80871Y73158D01*
X80949Y73141D01*
X81028Y73137D01*
X81107Y73146D01*
X81183Y73167D01*
X81255Y73199D01*
X81322Y73242D01*
X81380Y73295D01*
X81430Y73357D01*
X81470Y73426D01*
X81498Y73500D01*
X81514Y73577D01*
X81518Y73656D01*
X81510Y73735D01*
X81489Y73811D01*
X81456Y73884D01*
X81413Y73950D01*
X81360Y74009D01*
X81298Y74058D01*
X81230Y74098D01*
X81155Y74125D01*
X80897Y74210D01*
X80648Y74322D01*
X80411Y74455D01*
X80187Y74610D01*
X79977Y74785D01*
X79826Y74936D01*
Y79064D01*
X79977Y79215D01*
X80187Y79390D01*
X80411Y79545D01*
X80648Y79678D01*
X80897Y79790D01*
X81154Y79878D01*
X81228Y79905D01*
X81297Y79944D01*
X81358Y79994D01*
X81411Y80052D01*
X81454Y80118D01*
X81486Y80190D01*
X81506Y80266D01*
X81515Y80344D01*
X81511Y80422D01*
X81495Y80499D01*
X81467Y80573D01*
X81428Y80641D01*
X81378Y80703D01*
X81320Y80755D01*
X81254Y80798D01*
X81182Y80831D01*
X81106Y80851D01*
X81028Y80859D01*
X80949Y80856D01*
X80873Y80838D01*
X80528Y80724D01*
X80196Y80575D01*
X79879Y80396D01*
X79826Y80360D01*
Y100000D01*
G37*
G36*
X72994D02*X79826D01*
Y80360D01*
X79580Y80190D01*
X79300Y79957D01*
X79043Y79700D01*
X78810Y79420D01*
X78604Y79121D01*
X78425Y78804D01*
X78276Y78472D01*
X78158Y78129D01*
X78141Y78051D01*
X78137Y77972D01*
X78146Y77893D01*
X78167Y77817D01*
X78199Y77745D01*
X78242Y77678D01*
X78295Y77620D01*
X78357Y77570D01*
X78426Y77530D01*
X78500Y77502D01*
X78577Y77486D01*
X78656Y77482D01*
X78735Y77490D01*
X78811Y77511D01*
X78884Y77544D01*
X78950Y77587D01*
X79009Y77640D01*
X79058Y77702D01*
X79098Y77770D01*
X79125Y77845D01*
X79210Y78103D01*
X79322Y78352D01*
X79455Y78589D01*
X79610Y78813D01*
X79785Y79023D01*
X79826Y79064D01*
Y74936D01*
X79785Y74977D01*
X79610Y75187D01*
X79455Y75411D01*
X79322Y75648D01*
X79210Y75897D01*
X79122Y76154D01*
X79095Y76228D01*
X79056Y76297D01*
X79006Y76358D01*
X78948Y76411D01*
X78882Y76454D01*
X78810Y76486D01*
X78734Y76506D01*
X78656Y76515D01*
X78578Y76511D01*
X78501Y76495D01*
X78427Y76467D01*
X78359Y76428D01*
X78297Y76378D01*
X78245Y76320D01*
X78202Y76254D01*
X78169Y76182D01*
X78149Y76106D01*
X78141Y76028D01*
X78144Y75949D01*
X78162Y75873D01*
X78276Y75528D01*
X78425Y75196D01*
X78604Y74879D01*
X78810Y74580D01*
X79043Y74300D01*
X79300Y74043D01*
X79580Y73810D01*
X79826Y73640D01*
Y19295D01*
X72994Y26127D01*
Y72988D01*
X73000Y72988D01*
X73628Y73037D01*
X74240Y73184D01*
X74822Y73425D01*
X75358Y73754D01*
X75837Y74163D01*
X76246Y74642D01*
X76575Y75178D01*
X76816Y75760D01*
X76963Y76372D01*
X77000Y77000D01*
X76963Y77628D01*
X76816Y78240D01*
X76575Y78822D01*
X76246Y79358D01*
X75837Y79837D01*
X75358Y80246D01*
X74822Y80575D01*
X74240Y80816D01*
X73628Y80963D01*
X73000Y81012D01*
X72994Y81012D01*
Y100000D01*
G37*
G36*
X67002Y27877D02*X72994Y21885D01*
Y15250D01*
X72967Y15544D01*
X72901Y15902D01*
X72803Y16252D01*
X72674Y16592D01*
X72515Y16919D01*
X72472Y16985D01*
X72419Y17044D01*
X72357Y17094D01*
X72288Y17133D01*
X72214Y17161D01*
X72137Y17177D01*
X72058Y17181D01*
X71979Y17173D01*
X71903Y17152D01*
X71830Y17120D01*
X71764Y17077D01*
X71705Y17024D01*
X71656Y16962D01*
X71616Y16893D01*
X71588Y16819D01*
X71572Y16742D01*
X71568Y16663D01*
X71576Y16584D01*
X71597Y16507D01*
X71630Y16436D01*
X71753Y16193D01*
X71850Y15938D01*
X71923Y15676D01*
X71972Y15408D01*
X71997Y15136D01*
Y14864D01*
X71972Y14592D01*
X71923Y14324D01*
X71850Y14062D01*
X71753Y13807D01*
X71633Y13563D01*
X71600Y13491D01*
X71579Y13416D01*
X71571Y13337D01*
X71575Y13259D01*
X71591Y13182D01*
X71619Y13108D01*
X71658Y13040D01*
X71707Y12979D01*
X71766Y12926D01*
X71832Y12883D01*
X71904Y12851D01*
X71980Y12830D01*
X72058Y12822D01*
X72136Y12826D01*
X72213Y12842D01*
X72287Y12870D01*
X72355Y12909D01*
X72416Y12958D01*
X72469Y13017D01*
X72511Y13083D01*
X72674Y13408D01*
X72803Y13748D01*
X72901Y14098D01*
X72967Y14456D01*
X72994Y14751D01*
Y2000D01*
X67002D01*
Y11544D01*
X67017Y11531D01*
X67083Y11489D01*
X67408Y11326D01*
X67748Y11197D01*
X68098Y11099D01*
X68456Y11033D01*
X68818Y11000D01*
X69182D01*
X69544Y11033D01*
X69902Y11099D01*
X70252Y11197D01*
X70592Y11326D01*
X70919Y11485D01*
X70985Y11528D01*
X71044Y11581D01*
X71094Y11643D01*
X71133Y11712D01*
X71161Y11786D01*
X71177Y11863D01*
X71181Y11942D01*
X71173Y12021D01*
X71152Y12097D01*
X71120Y12170D01*
X71077Y12236D01*
X71024Y12295D01*
X70962Y12344D01*
X70893Y12384D01*
X70819Y12412D01*
X70742Y12428D01*
X70663Y12432D01*
X70584Y12424D01*
X70507Y12403D01*
X70436Y12370D01*
X70193Y12247D01*
X69938Y12150D01*
X69676Y12077D01*
X69408Y12028D01*
X69136Y12003D01*
X68864D01*
X68592Y12028D01*
X68324Y12077D01*
X68062Y12150D01*
X67807Y12247D01*
X67563Y12367D01*
X67491Y12400D01*
X67415Y12421D01*
X67337Y12429D01*
X67259Y12425D01*
X67182Y12409D01*
X67108Y12381D01*
X67040Y12342D01*
X67002Y12311D01*
Y17685D01*
X67038Y17656D01*
X67107Y17616D01*
X67181Y17588D01*
X67258Y17572D01*
X67337Y17568D01*
X67416Y17576D01*
X67493Y17597D01*
X67564Y17630D01*
X67807Y17753D01*
X68062Y17850D01*
X68324Y17923D01*
X68592Y17972D01*
X68864Y17997D01*
X69136D01*
X69408Y17972D01*
X69676Y17923D01*
X69938Y17850D01*
X70193Y17753D01*
X70437Y17633D01*
X70509Y17600D01*
X70584Y17579D01*
X70663Y17571D01*
X70741Y17575D01*
X70818Y17591D01*
X70892Y17619D01*
X70960Y17658D01*
X71021Y17707D01*
X71074Y17766D01*
X71117Y17832D01*
X71149Y17904D01*
X71170Y17980D01*
X71178Y18058D01*
X71174Y18136D01*
X71158Y18213D01*
X71130Y18287D01*
X71091Y18355D01*
X71042Y18416D01*
X70983Y18469D01*
X70917Y18511D01*
X70592Y18674D01*
X70252Y18803D01*
X69902Y18901D01*
X69544Y18967D01*
X69182Y19000D01*
X68818D01*
X68456Y18967D01*
X68098Y18901D01*
X67748Y18803D01*
X67408Y18674D01*
X67081Y18515D01*
X67015Y18472D01*
X67002Y18460D01*
Y27877D01*
G37*
G36*
X70284Y74060D02*X70642Y73754D01*
X71178Y73425D01*
X71760Y73184D01*
X72372Y73037D01*
X72994Y72988D01*
Y26127D01*
X70284Y28838D01*
Y56869D01*
X70287Y56870D01*
X70355Y56909D01*
X70416Y56958D01*
X70469Y57017D01*
X70511Y57083D01*
X70674Y57408D01*
X70803Y57748D01*
X70901Y58098D01*
X70967Y58456D01*
X71000Y58818D01*
Y59182D01*
X70967Y59544D01*
X70901Y59902D01*
X70803Y60252D01*
X70674Y60592D01*
X70515Y60919D01*
X70472Y60985D01*
X70419Y61044D01*
X70357Y61094D01*
X70288Y61133D01*
X70284Y61135D01*
Y74060D01*
G37*
G36*
Y100000D02*X72994D01*
Y81012D01*
X72372Y80963D01*
X71760Y80816D01*
X71178Y80575D01*
X70642Y80246D01*
X70284Y79940D01*
Y100000D01*
G37*
G36*
X67002D02*X70284D01*
Y79940D01*
X70163Y79837D01*
X69754Y79358D01*
X69425Y78822D01*
X69184Y78240D01*
X69037Y77628D01*
X68988Y77000D01*
X69037Y76372D01*
X69184Y75760D01*
X69425Y75178D01*
X69754Y74642D01*
X70163Y74163D01*
X70284Y74060D01*
Y61135D01*
X70214Y61161D01*
X70137Y61177D01*
X70058Y61181D01*
X69979Y61173D01*
X69903Y61152D01*
X69830Y61120D01*
X69764Y61077D01*
X69705Y61024D01*
X69656Y60962D01*
X69616Y60893D01*
X69588Y60819D01*
X69572Y60742D01*
X69568Y60663D01*
X69576Y60584D01*
X69597Y60507D01*
X69630Y60436D01*
X69753Y60193D01*
X69850Y59938D01*
X69923Y59676D01*
X69972Y59408D01*
X69997Y59136D01*
Y58864D01*
X69972Y58592D01*
X69923Y58324D01*
X69850Y58062D01*
X69753Y57807D01*
X69633Y57563D01*
X69600Y57491D01*
X69579Y57416D01*
X69571Y57337D01*
X69575Y57259D01*
X69591Y57182D01*
X69619Y57108D01*
X69658Y57040D01*
X69707Y56979D01*
X69766Y56926D01*
X69832Y56883D01*
X69904Y56851D01*
X69980Y56830D01*
X70058Y56822D01*
X70136Y56826D01*
X70213Y56842D01*
X70284Y56869D01*
Y28838D01*
X68500Y30621D01*
Y38635D01*
X68651Y38728D01*
X68986Y39014D01*
X69272Y39349D01*
X69503Y39725D01*
X69671Y40132D01*
X69774Y40561D01*
X69800Y41000D01*
X69774Y41439D01*
X69671Y41868D01*
X69503Y42275D01*
X69272Y42651D01*
X68986Y42986D01*
X68651Y43272D01*
X68275Y43503D01*
X67868Y43671D01*
X67439Y43774D01*
X67002Y43809D01*
Y55000D01*
X67182D01*
X67544Y55033D01*
X67902Y55099D01*
X68252Y55197D01*
X68592Y55326D01*
X68919Y55485D01*
X68985Y55528D01*
X69044Y55581D01*
X69094Y55643D01*
X69133Y55712D01*
X69161Y55786D01*
X69177Y55863D01*
X69181Y55942D01*
X69173Y56021D01*
X69152Y56097D01*
X69120Y56170D01*
X69077Y56236D01*
X69024Y56295D01*
X68962Y56344D01*
X68893Y56384D01*
X68819Y56412D01*
X68742Y56428D01*
X68663Y56432D01*
X68584Y56424D01*
X68507Y56403D01*
X68436Y56370D01*
X68193Y56247D01*
X67938Y56150D01*
X67676Y56077D01*
X67408Y56028D01*
X67136Y56003D01*
X67002D01*
Y61997D01*
X67136D01*
X67408Y61972D01*
X67676Y61923D01*
X67938Y61850D01*
X68193Y61753D01*
X68437Y61633D01*
X68509Y61600D01*
X68584Y61579D01*
X68663Y61571D01*
X68741Y61575D01*
X68818Y61591D01*
X68892Y61619D01*
X68960Y61658D01*
X69021Y61707D01*
X69074Y61766D01*
X69117Y61832D01*
X69149Y61904D01*
X69170Y61980D01*
X69178Y62058D01*
X69174Y62136D01*
X69158Y62213D01*
X69130Y62287D01*
X69091Y62355D01*
X69042Y62416D01*
X68983Y62469D01*
X68917Y62511D01*
X68592Y62674D01*
X68252Y62803D01*
X67902Y62901D01*
X67544Y62967D01*
X67182Y63000D01*
X67002D01*
Y100000D01*
G37*
G36*
X65716Y29224D02*X65783Y29116D01*
X65936Y28936D01*
X65981Y28898D01*
X67002Y27877D01*
Y18460D01*
X66956Y18419D01*
X66906Y18357D01*
X66867Y18288D01*
X66839Y18214D01*
X66823Y18137D01*
X66819Y18058D01*
X66827Y17979D01*
X66848Y17903D01*
X66880Y17830D01*
X66923Y17764D01*
X66976Y17705D01*
X67002Y17685D01*
Y12311D01*
X66979Y12293D01*
X66926Y12234D01*
X66883Y12168D01*
X66851Y12096D01*
X66830Y12020D01*
X66822Y11942D01*
X66826Y11864D01*
X66842Y11787D01*
X66870Y11713D01*
X66909Y11645D01*
X66958Y11584D01*
X67002Y11544D01*
Y2000D01*
X65716D01*
Y12865D01*
X65786Y12839D01*
X65863Y12823D01*
X65942Y12819D01*
X66021Y12827D01*
X66097Y12848D01*
X66170Y12880D01*
X66236Y12923D01*
X66295Y12976D01*
X66344Y13038D01*
X66384Y13107D01*
X66412Y13181D01*
X66428Y13258D01*
X66432Y13337D01*
X66424Y13416D01*
X66403Y13493D01*
X66370Y13564D01*
X66247Y13807D01*
X66150Y14062D01*
X66077Y14324D01*
X66028Y14592D01*
X66003Y14864D01*
Y15136D01*
X66028Y15408D01*
X66077Y15676D01*
X66150Y15938D01*
X66247Y16193D01*
X66367Y16437D01*
X66400Y16509D01*
X66421Y16585D01*
X66429Y16663D01*
X66425Y16741D01*
X66409Y16818D01*
X66381Y16892D01*
X66342Y16960D01*
X66293Y17021D01*
X66234Y17074D01*
X66168Y17117D01*
X66096Y17149D01*
X66020Y17170D01*
X65942Y17178D01*
X65864Y17174D01*
X65787Y17158D01*
X65716Y17131D01*
Y29224D01*
G37*
G36*
Y55209D02*X65748Y55197D01*
X66098Y55099D01*
X66456Y55033D01*
X66818Y55000D01*
X67002D01*
Y43809D01*
X67000Y43809D01*
X66561Y43774D01*
X66132Y43671D01*
X65725Y43503D01*
X65716Y43497D01*
Y55209D01*
G37*
G36*
Y61707D02*X65807Y61753D01*
X66062Y61850D01*
X66324Y61923D01*
X66592Y61972D01*
X66864Y61997D01*
X67002D01*
Y56003D01*
X66864D01*
X66592Y56028D01*
X66324Y56077D01*
X66062Y56150D01*
X65807Y56247D01*
X65716Y56292D01*
Y61707D01*
G37*
G36*
Y100000D02*X67002D01*
Y63000D01*
X66818D01*
X66456Y62967D01*
X66098Y62901D01*
X65748Y62803D01*
X65716Y62791D01*
Y100000D01*
G37*
G36*
X63716D02*X65716D01*
Y62791D01*
X65408Y62674D01*
X65081Y62515D01*
X65015Y62472D01*
X64956Y62419D01*
X64906Y62357D01*
X64867Y62288D01*
X64839Y62214D01*
X64823Y62137D01*
X64819Y62058D01*
X64827Y61979D01*
X64848Y61903D01*
X64880Y61830D01*
X64923Y61764D01*
X64976Y61705D01*
X65038Y61656D01*
X65107Y61616D01*
X65181Y61588D01*
X65258Y61572D01*
X65337Y61568D01*
X65416Y61576D01*
X65493Y61597D01*
X65564Y61630D01*
X65716Y61707D01*
Y56292D01*
X65563Y56367D01*
X65491Y56400D01*
X65415Y56421D01*
X65337Y56429D01*
X65259Y56425D01*
X65182Y56409D01*
X65108Y56381D01*
X65040Y56342D01*
X64979Y56293D01*
X64926Y56234D01*
X64883Y56168D01*
X64851Y56096D01*
X64830Y56020D01*
X64822Y55942D01*
X64826Y55864D01*
X64842Y55787D01*
X64870Y55713D01*
X64909Y55645D01*
X64958Y55584D01*
X65017Y55531D01*
X65083Y55489D01*
X65408Y55326D01*
X65716Y55209D01*
Y43497D01*
X65349Y43272D01*
X65014Y42986D01*
X64728Y42651D01*
X64497Y42275D01*
X64329Y41868D01*
X64226Y41439D01*
X64191Y41000D01*
X64226Y40561D01*
X64329Y40132D01*
X64497Y39725D01*
X64728Y39349D01*
X65014Y39014D01*
X65349Y38728D01*
X65500Y38635D01*
Y30059D01*
X65495Y30000D01*
X65514Y29765D01*
X65569Y29535D01*
X65659Y29317D01*
X65716Y29224D01*
Y17131D01*
X65713Y17130D01*
X65645Y17091D01*
X65584Y17042D01*
X65531Y16983D01*
X65489Y16917D01*
X65326Y16592D01*
X65197Y16252D01*
X65099Y15902D01*
X65033Y15544D01*
X65000Y15182D01*
Y14818D01*
X65033Y14456D01*
X65099Y14098D01*
X65197Y13748D01*
X65326Y13408D01*
X65485Y13081D01*
X65528Y13015D01*
X65581Y12956D01*
X65643Y12906D01*
X65712Y12867D01*
X65716Y12865D01*
Y2000D01*
X63716D01*
Y56865D01*
X63786Y56839D01*
X63863Y56823D01*
X63942Y56819D01*
X64021Y56827D01*
X64097Y56848D01*
X64170Y56880D01*
X64236Y56923D01*
X64295Y56976D01*
X64344Y57038D01*
X64384Y57107D01*
X64412Y57181D01*
X64428Y57258D01*
X64432Y57337D01*
X64424Y57416D01*
X64403Y57493D01*
X64370Y57564D01*
X64247Y57807D01*
X64150Y58062D01*
X64077Y58324D01*
X64028Y58592D01*
X64003Y58864D01*
Y59136D01*
X64028Y59408D01*
X64077Y59676D01*
X64150Y59938D01*
X64247Y60193D01*
X64367Y60437D01*
X64400Y60509D01*
X64421Y60585D01*
X64429Y60663D01*
X64425Y60741D01*
X64409Y60818D01*
X64381Y60892D01*
X64342Y60960D01*
X64293Y61021D01*
X64234Y61074D01*
X64168Y61117D01*
X64096Y61149D01*
X64020Y61170D01*
X63942Y61178D01*
X63864Y61174D01*
X63787Y61158D01*
X63716Y61131D01*
Y100000D01*
G37*
G36*
X62284D02*X63716D01*
Y61131D01*
X63713Y61130D01*
X63645Y61091D01*
X63584Y61042D01*
X63531Y60983D01*
X63489Y60917D01*
X63326Y60592D01*
X63197Y60252D01*
X63099Y59902D01*
X63033Y59544D01*
X63000Y59182D01*
Y58818D01*
X63033Y58456D01*
X63099Y58098D01*
X63197Y57748D01*
X63326Y57408D01*
X63485Y57081D01*
X63528Y57015D01*
X63581Y56956D01*
X63643Y56906D01*
X63712Y56867D01*
X63716Y56865D01*
Y2000D01*
X62284D01*
Y12869D01*
X62287Y12870D01*
X62355Y12909D01*
X62416Y12958D01*
X62469Y13017D01*
X62511Y13083D01*
X62674Y13408D01*
X62803Y13748D01*
X62901Y14098D01*
X62967Y14456D01*
X63000Y14818D01*
Y15182D01*
X62967Y15544D01*
X62901Y15902D01*
X62803Y16252D01*
X62674Y16592D01*
X62515Y16919D01*
X62472Y16985D01*
X62419Y17044D01*
X62357Y17094D01*
X62288Y17133D01*
X62284Y17135D01*
Y100000D01*
G37*
G36*
X59002D02*X62284D01*
Y17135D01*
X62214Y17161D01*
X62137Y17177D01*
X62058Y17181D01*
X61979Y17173D01*
X61903Y17152D01*
X61830Y17120D01*
X61764Y17077D01*
X61705Y17024D01*
X61656Y16962D01*
X61616Y16893D01*
X61588Y16819D01*
X61572Y16742D01*
X61568Y16663D01*
X61576Y16584D01*
X61597Y16507D01*
X61630Y16436D01*
X61753Y16193D01*
X61850Y15938D01*
X61923Y15676D01*
X61972Y15408D01*
X61997Y15136D01*
Y14864D01*
X61972Y14592D01*
X61923Y14324D01*
X61850Y14062D01*
X61753Y13807D01*
X61633Y13563D01*
X61600Y13491D01*
X61579Y13416D01*
X61571Y13337D01*
X61575Y13259D01*
X61591Y13182D01*
X61619Y13108D01*
X61658Y13040D01*
X61707Y12979D01*
X61766Y12926D01*
X61832Y12883D01*
X61904Y12851D01*
X61980Y12830D01*
X62058Y12822D01*
X62136Y12826D01*
X62213Y12842D01*
X62284Y12869D01*
Y2000D01*
X59002D01*
Y11000D01*
X59182D01*
X59544Y11033D01*
X59902Y11099D01*
X60252Y11197D01*
X60592Y11326D01*
X60919Y11485D01*
X60985Y11528D01*
X61044Y11581D01*
X61094Y11643D01*
X61133Y11712D01*
X61161Y11786D01*
X61177Y11863D01*
X61181Y11942D01*
X61173Y12021D01*
X61152Y12097D01*
X61120Y12170D01*
X61077Y12236D01*
X61024Y12295D01*
X60962Y12344D01*
X60893Y12384D01*
X60819Y12412D01*
X60742Y12428D01*
X60663Y12432D01*
X60584Y12424D01*
X60507Y12403D01*
X60436Y12370D01*
X60193Y12247D01*
X59938Y12150D01*
X59676Y12077D01*
X59408Y12028D01*
X59136Y12003D01*
X59002D01*
Y17997D01*
X59136D01*
X59408Y17972D01*
X59676Y17923D01*
X59938Y17850D01*
X60193Y17753D01*
X60437Y17633D01*
X60509Y17600D01*
X60584Y17579D01*
X60663Y17571D01*
X60741Y17575D01*
X60818Y17591D01*
X60892Y17619D01*
X60960Y17658D01*
X61021Y17707D01*
X61074Y17766D01*
X61117Y17832D01*
X61149Y17904D01*
X61170Y17980D01*
X61178Y18058D01*
X61174Y18136D01*
X61158Y18213D01*
X61130Y18287D01*
X61091Y18355D01*
X61042Y18416D01*
X60983Y18469D01*
X60917Y18511D01*
X60592Y18674D01*
X60252Y18803D01*
X59902Y18901D01*
X59544Y18967D01*
X59182Y19000D01*
X59002D01*
Y45820D01*
X59529Y46347D01*
X59596Y46404D01*
X59826Y46673D01*
X59826Y46673D01*
X60011Y46975D01*
X60146Y47303D01*
X60229Y47647D01*
X60257Y48000D01*
X60250Y48088D01*
Y80912D01*
X60257Y81000D01*
X60229Y81353D01*
X60229Y81353D01*
X60146Y81697D01*
X60011Y82025D01*
X59826Y82327D01*
X59596Y82596D01*
X59529Y82653D01*
X59002Y83180D01*
Y100000D01*
G37*
G36*
Y2000D02*X55716D01*
Y12865D01*
X55786Y12839D01*
X55863Y12823D01*
X55942Y12819D01*
X56021Y12827D01*
X56097Y12848D01*
X56170Y12880D01*
X56236Y12923D01*
X56295Y12976D01*
X56344Y13038D01*
X56384Y13107D01*
X56412Y13181D01*
X56428Y13258D01*
X56432Y13337D01*
X56424Y13416D01*
X56403Y13493D01*
X56370Y13564D01*
X56247Y13807D01*
X56150Y14062D01*
X56077Y14324D01*
X56028Y14592D01*
X56003Y14864D01*
Y15136D01*
X56028Y15408D01*
X56077Y15676D01*
X56150Y15938D01*
X56247Y16193D01*
X56367Y16437D01*
X56400Y16509D01*
X56421Y16585D01*
X56429Y16663D01*
X56425Y16741D01*
X56409Y16818D01*
X56381Y16892D01*
X56342Y16960D01*
X56293Y17021D01*
X56234Y17074D01*
X56168Y17117D01*
X56096Y17149D01*
X56020Y17170D01*
X55942Y17178D01*
X55864Y17174D01*
X55787Y17158D01*
X55716Y17131D01*
Y42861D01*
X56025Y42989D01*
X56327Y43174D01*
X56596Y43404D01*
X56653Y43471D01*
X59002Y45820D01*
Y19000D01*
X58818D01*
X58456Y18967D01*
X58098Y18901D01*
X57748Y18803D01*
X57408Y18674D01*
X57081Y18515D01*
X57015Y18472D01*
X56956Y18419D01*
X56906Y18357D01*
X56867Y18288D01*
X56839Y18214D01*
X56823Y18137D01*
X56819Y18058D01*
X56827Y17979D01*
X56848Y17903D01*
X56880Y17830D01*
X56923Y17764D01*
X56976Y17705D01*
X57038Y17656D01*
X57107Y17616D01*
X57181Y17588D01*
X57258Y17572D01*
X57337Y17568D01*
X57416Y17576D01*
X57493Y17597D01*
X57564Y17630D01*
X57807Y17753D01*
X58062Y17850D01*
X58324Y17923D01*
X58592Y17972D01*
X58864Y17997D01*
X59002D01*
Y12003D01*
X58864D01*
X58592Y12028D01*
X58324Y12077D01*
X58062Y12150D01*
X57807Y12247D01*
X57563Y12367D01*
X57491Y12400D01*
X57415Y12421D01*
X57337Y12429D01*
X57259Y12425D01*
X57182Y12409D01*
X57108Y12381D01*
X57040Y12342D01*
X56979Y12293D01*
X56926Y12234D01*
X56883Y12168D01*
X56851Y12096D01*
X56830Y12020D01*
X56822Y11942D01*
X56826Y11864D01*
X56842Y11787D01*
X56870Y11713D01*
X56909Y11645D01*
X56958Y11584D01*
X57017Y11531D01*
X57083Y11489D01*
X57408Y11326D01*
X57748Y11197D01*
X58098Y11099D01*
X58456Y11033D01*
X58818Y11000D01*
X59002D01*
Y2000D01*
G37*
G36*
X55716D02*X52622D01*
Y13293D01*
X52816Y13760D01*
X52963Y14372D01*
X53000Y15000D01*
X52963Y15628D01*
X52816Y16240D01*
X52622Y16707D01*
Y31216D01*
X52709Y31291D01*
X52812Y31410D01*
X52894Y31545D01*
X52954Y31690D01*
X52991Y31843D01*
X53000Y32000D01*
X52991Y38157D01*
X52954Y38310D01*
X52894Y38455D01*
X52812Y38590D01*
X52709Y38709D01*
X52622Y38784D01*
Y42750D01*
X54912D01*
X55000Y42743D01*
X55353Y42771D01*
X55353Y42771D01*
X55697Y42854D01*
X55716Y42861D01*
Y17131D01*
X55713Y17130D01*
X55645Y17091D01*
X55584Y17042D01*
X55531Y16983D01*
X55489Y16917D01*
X55326Y16592D01*
X55197Y16252D01*
X55099Y15902D01*
X55033Y15544D01*
X55000Y15182D01*
Y14818D01*
X55033Y14456D01*
X55099Y14098D01*
X55197Y13748D01*
X55326Y13408D01*
X55485Y13081D01*
X55528Y13015D01*
X55581Y12956D01*
X55643Y12906D01*
X55712Y12867D01*
X55716Y12865D01*
Y2000D01*
G37*
G36*
X52622Y100000D02*X59002D01*
Y83180D01*
X55653Y86529D01*
X55596Y86596D01*
X55327Y86826D01*
X55025Y87011D01*
X54697Y87146D01*
X54353Y87229D01*
X54353Y87229D01*
X54000Y87257D01*
X53912Y87250D01*
X52893D01*
X52892Y88141D01*
X52859Y88279D01*
X52804Y88410D01*
X52730Y88531D01*
X52638Y88638D01*
X52622Y88652D01*
Y100000D01*
G37*
G36*
X22974D02*X52622D01*
Y88652D01*
X52531Y88730D01*
X52410Y88804D01*
X52279Y88859D01*
X52141Y88892D01*
X52000Y88900D01*
X45859Y88892D01*
X45721Y88859D01*
X45590Y88804D01*
X45469Y88730D01*
X45362Y88638D01*
X45270Y88531D01*
X45196Y88410D01*
X45141Y88279D01*
X45108Y88141D01*
X45100Y88000D01*
X45108Y81859D01*
X45141Y81721D01*
X45196Y81590D01*
X45270Y81469D01*
X45362Y81362D01*
X45469Y81270D01*
X45590Y81196D01*
X45721Y81141D01*
X45859Y81108D01*
X46000Y81100D01*
X52141Y81108D01*
X52279Y81141D01*
X52410Y81196D01*
X52531Y81270D01*
X52622Y81348D01*
Y76446D01*
X52486Y76776D01*
X52165Y77299D01*
X51766Y77766D01*
X51299Y78165D01*
X50776Y78486D01*
X50209Y78721D01*
X49612Y78864D01*
X49000Y78912D01*
X48388Y78864D01*
X47791Y78721D01*
X47224Y78486D01*
X46701Y78165D01*
X46234Y77766D01*
X45835Y77299D01*
X45514Y76776D01*
X45279Y76209D01*
X45136Y75612D01*
X45088Y75000D01*
X45136Y74388D01*
X45279Y73791D01*
X45514Y73224D01*
X45835Y72701D01*
X46234Y72234D01*
X46701Y71835D01*
X47224Y71514D01*
X47791Y71279D01*
X48388Y71136D01*
X49000Y71088D01*
X49612Y71136D01*
X50209Y71279D01*
X50776Y71514D01*
X51299Y71835D01*
X51766Y72234D01*
X52165Y72701D01*
X52486Y73224D01*
X52622Y73554D01*
Y56707D01*
X52575Y56822D01*
X52246Y57358D01*
X51837Y57837D01*
X51358Y58246D01*
X50822Y58575D01*
X50240Y58816D01*
X49628Y58963D01*
X49000Y59012D01*
X48372Y58963D01*
X47760Y58816D01*
X47178Y58575D01*
X46642Y58246D01*
X46163Y57837D01*
X45754Y57358D01*
X45425Y56822D01*
X45184Y56240D01*
X45037Y55628D01*
X44988Y55000D01*
X45037Y54372D01*
X45184Y53760D01*
X45425Y53178D01*
X45754Y52642D01*
X46163Y52163D01*
X46642Y51754D01*
X47178Y51425D01*
X47760Y51184D01*
X48372Y51037D01*
X49000Y50988D01*
X49628Y51037D01*
X50240Y51184D01*
X50822Y51425D01*
X51358Y51754D01*
X51837Y52163D01*
X52246Y52642D01*
X52575Y53178D01*
X52622Y53293D01*
Y47250D01*
X52312D01*
X52246Y47358D01*
X51837Y47837D01*
X51358Y48246D01*
X50822Y48575D01*
X50240Y48816D01*
X49628Y48963D01*
X49000Y49012D01*
X48372Y48963D01*
X47760Y48816D01*
X47178Y48575D01*
X46642Y48246D01*
X46163Y47837D01*
X45754Y47358D01*
X45425Y46822D01*
X45184Y46240D01*
X45037Y45628D01*
X44988Y45000D01*
X45037Y44372D01*
X45184Y43760D01*
X45425Y43178D01*
X45754Y42642D01*
X46163Y42163D01*
X46642Y41754D01*
X47178Y41425D01*
X47760Y41184D01*
X48372Y41037D01*
X49000Y40988D01*
X49628Y41037D01*
X50240Y41184D01*
X50822Y41425D01*
X51358Y41754D01*
X51837Y42163D01*
X52246Y42642D01*
X52312Y42750D01*
X52622D01*
Y38784D01*
X52590Y38812D01*
X52455Y38894D01*
X52310Y38954D01*
X52157Y38991D01*
X52000Y39000D01*
X45843Y38991D01*
X45690Y38954D01*
X45545Y38894D01*
X45410Y38812D01*
X45291Y38709D01*
X45188Y38590D01*
X45106Y38455D01*
X45046Y38310D01*
X45009Y38157D01*
X45000Y38000D01*
X45009Y31843D01*
X45046Y31690D01*
X45106Y31545D01*
X45188Y31410D01*
X45291Y31291D01*
X45410Y31188D01*
X45545Y31106D01*
X45690Y31046D01*
X45843Y31009D01*
X46000Y31000D01*
X52157Y31009D01*
X52310Y31046D01*
X52455Y31106D01*
X52590Y31188D01*
X52622Y31216D01*
Y16707D01*
X52575Y16822D01*
X52246Y17358D01*
X51837Y17837D01*
X51358Y18246D01*
X50822Y18575D01*
X50240Y18816D01*
X49628Y18963D01*
X49000Y19012D01*
X48372Y18963D01*
X47760Y18816D01*
X47178Y18575D01*
X46642Y18246D01*
X46163Y17837D01*
X45754Y17358D01*
X45425Y16822D01*
X45184Y16240D01*
X45037Y15628D01*
X44988Y15000D01*
X45037Y14372D01*
X45184Y13760D01*
X45425Y13178D01*
X45754Y12642D01*
X46163Y12163D01*
X46642Y11754D01*
X47178Y11425D01*
X47760Y11184D01*
X48372Y11037D01*
X49000Y10988D01*
X49628Y11037D01*
X50240Y11184D01*
X50822Y11425D01*
X51358Y11754D01*
X51837Y12163D01*
X52246Y12642D01*
X52575Y13178D01*
X52622Y13293D01*
Y2000D01*
X22974D01*
Y6401D01*
X23000Y6399D01*
X25597Y6603D01*
X28130Y7211D01*
X30537Y8208D01*
X32758Y9569D01*
X34739Y11261D01*
X36431Y13242D01*
X37792Y15463D01*
X38789Y17870D01*
X39397Y20403D01*
X39550Y23000D01*
X39397Y25597D01*
X38789Y28130D01*
X37792Y30537D01*
X36431Y32758D01*
X34739Y34739D01*
X32758Y36431D01*
X30537Y37792D01*
X28130Y38789D01*
X25597Y39397D01*
X23000Y39601D01*
X22974Y39599D01*
Y62401D01*
X23000Y62399D01*
X25597Y62603D01*
X28130Y63211D01*
X30537Y64208D01*
X32758Y65569D01*
X34739Y67261D01*
X36431Y69242D01*
X37792Y71463D01*
X38789Y73870D01*
X39397Y76403D01*
X39550Y79000D01*
X39397Y81597D01*
X38789Y84130D01*
X37792Y86537D01*
X36431Y88758D01*
X34739Y90739D01*
X32758Y92431D01*
X30537Y93792D01*
X28130Y94789D01*
X25597Y95397D01*
X23000Y95601D01*
X22974Y95599D01*
Y100000D01*
G37*
G36*
X2000D02*X22974D01*
Y95599D01*
X20403Y95397D01*
X17870Y94789D01*
X15463Y93792D01*
X13242Y92431D01*
X11261Y90739D01*
X9569Y88758D01*
X8208Y86537D01*
X7211Y84130D01*
X6603Y81597D01*
X6399Y79000D01*
X6603Y76403D01*
X7211Y73870D01*
X8208Y71463D01*
X9569Y69242D01*
X11261Y67261D01*
X13242Y65569D01*
X15463Y64208D01*
X17870Y63211D01*
X20403Y62603D01*
X22974Y62401D01*
Y39599D01*
X20403Y39397D01*
X17870Y38789D01*
X15463Y37792D01*
X13242Y36431D01*
X11261Y34739D01*
X9569Y32758D01*
X8208Y30537D01*
X7211Y28130D01*
X6603Y25597D01*
X6399Y23000D01*
X6603Y20403D01*
X7211Y17870D01*
X8208Y15463D01*
X9569Y13242D01*
X11261Y11261D01*
X13242Y9569D01*
X15463Y8208D01*
X17870Y7211D01*
X20403Y6603D01*
X22974Y6401D01*
Y2000D01*
X2000D01*
Y100000D01*
G37*
G36*
X106500Y66000D02*X108500D01*
Y64832D01*
X108464Y64773D01*
X108428Y64686D01*
X108406Y64594D01*
X108400Y64500D01*
X108402Y62000D01*
X106596D01*
X106594Y64594D01*
X106572Y64686D01*
X106536Y64773D01*
X106500Y64832D01*
Y66000D01*
G37*
G54D12*X49000Y85000D02*X54000D01*
X58000Y81000D01*
Y48000D01*
X55000Y45000D01*
X49000D01*
G54D13*X67000Y41000D02*Y30000D01*
X90000Y67000D02*X92000Y69000D01*
X94000D01*
X95000Y60250D02*Y73000D01*
X85000Y83000D01*
Y93000D01*
Y60250D02*Y74000D01*
X82000Y77000D01*
X121000Y59000D02*X145000D01*
X151000Y65000D01*
X110000Y60250D02*Y73000D01*
X115000Y60250D02*Y53000D01*
X112000Y50000D01*
X108000D01*
X110000Y73000D02*X114000Y77000D01*
X90000Y60250D02*Y67000D01*
X85000Y39750D02*Y23000D01*
X67000Y30000D02*X80000Y17000D01*
X86000D01*
X90000Y21000D01*
Y39750D01*
X108000Y50000D02*X105000Y47000D01*
Y39750D01*
X100000D02*Y30000D01*
X105000Y60250D02*Y70000D01*
X110000Y25000D02*X90000D01*
X110000Y39750D02*Y25000D01*
X115000Y39750D02*Y21000D01*
X116000Y20000D01*
X121000D01*
G54D14*X69000Y15000D03*
X59000D03*
X49000D03*
G54D11*G36*
X46000Y38000D02*Y32000D01*
X52000D01*
Y38000D01*
X46000D01*
G37*
G54D14*X49000Y55000D03*
Y45000D03*
Y75000D03*
G54D11*G36*
X46000Y88000D02*Y82000D01*
X52000D01*
Y88000D01*
X46000D01*
G37*
G54D14*X132000Y15000D03*
X142000D03*
X152000D03*
X105000D03*
X95000D03*
Y85000D03*
G54D11*G36*
X102000Y88000D02*Y82000D01*
X108000D01*
Y88000D01*
X102000D01*
G37*
G54D14*X151000Y45000D03*
G54D11*G36*
X148000Y38000D02*Y32000D01*
X154000D01*
Y38000D01*
X148000D01*
G37*
G54D14*X151000Y85000D03*
Y75000D03*
G54D11*G36*
X148000Y68000D02*Y62000D01*
X154000D01*
Y68000D01*
X148000D01*
G37*
G54D15*X115000Y43000D02*Y36500D01*
Y63500D02*Y57000D01*
X85000Y43000D02*Y36500D01*
X90000Y43000D02*Y36500D01*
X95000Y43000D02*Y36500D01*
X100000Y43000D02*Y36500D01*
Y63500D02*Y57000D01*
X95000Y63500D02*Y57000D01*
X90000Y63500D02*Y57000D01*
X85000Y63500D02*Y57000D01*
X105000Y43000D02*Y36500D01*
Y63500D02*Y57000D01*
X110000Y43000D02*Y36500D01*
Y63500D02*Y57000D01*
G54D16*X121000Y59000D03*
X114000Y77000D03*
X95000Y69000D03*
X85000Y93000D03*
G54D14*X105000Y70000D03*
G54D16*X67000Y41000D03*
G54D14*X73000Y77000D03*
X82000D03*
X67000Y59000D03*
G54D16*X85000Y23000D03*
X110000Y25000D03*
G54D14*X100000Y30000D03*
X121000Y20000D03*
G54D17*G54D18*G54D19*G54D18*G54D17*G54D19*G54D17*G54D19*G54D18*G54D19*G54D20*M02*
