G04 start of page 3 for group 1 idx 1 *
G04 Title: (unknown), ground *
G04 Creator: pcb 20140316 *
G04 CreationDate: Sat 19 Jul 2014 12:31:25 AM GMT UTC *
G04 For: visage *
G04 Format: Gerber/RS-274X *
G04 PCB-Dimensions (mil): 2010.00 1020.00 *
G04 PCB-Coordinate-Origin: lower left *
%MOIN*%
%FSLAX25Y25*%
%LNBOTTOM*%
%ADD30C,0.0380*%
%ADD29C,0.0350*%
%ADD28C,0.0200*%
%ADD27C,0.1260*%
%ADD26C,0.0360*%
%ADD25R,0.0600X0.0600*%
%ADD24C,0.0600*%
%ADD23C,0.0250*%
%ADD22C,0.0100*%
%ADD21C,0.0001*%
G54D21*G36*
X177974Y100000D02*X199000D01*
Y2000D01*
X177974D01*
Y6401D01*
X178000Y6399D01*
X180597Y6603D01*
X183130Y7211D01*
X185537Y8208D01*
X187758Y9569D01*
X189739Y11261D01*
X191431Y13242D01*
X192792Y15463D01*
X193789Y17870D01*
X194397Y20403D01*
X194550Y23000D01*
X194397Y25597D01*
X193789Y28130D01*
X192792Y30537D01*
X191431Y32758D01*
X189739Y34739D01*
X187758Y36431D01*
X185537Y37792D01*
X183130Y38789D01*
X180597Y39397D01*
X178000Y39601D01*
X177974Y39599D01*
Y62401D01*
X178000Y62399D01*
X180597Y62603D01*
X183130Y63211D01*
X185537Y64208D01*
X187758Y65569D01*
X189739Y67261D01*
X191431Y69242D01*
X192792Y71463D01*
X193789Y73870D01*
X194397Y76403D01*
X194550Y79000D01*
X194397Y81597D01*
X193789Y84130D01*
X192792Y86537D01*
X191431Y88758D01*
X189739Y90739D01*
X187758Y92431D01*
X185537Y93792D01*
X183130Y94789D01*
X180597Y95397D01*
X178000Y95601D01*
X177974Y95599D01*
Y100000D01*
G37*
G36*
X154450D02*X177974D01*
Y95599D01*
X175403Y95397D01*
X172870Y94789D01*
X170463Y93792D01*
X168242Y92431D01*
X166261Y90739D01*
X164569Y88758D01*
X163208Y86537D01*
X162211Y84130D01*
X161603Y81597D01*
X161399Y79000D01*
X161603Y76403D01*
X162211Y73870D01*
X163208Y71463D01*
X164569Y69242D01*
X166261Y67261D01*
X168242Y65569D01*
X170463Y64208D01*
X172870Y63211D01*
X175403Y62603D01*
X177974Y62401D01*
Y39599D01*
X175403Y39397D01*
X172870Y38789D01*
X170463Y37792D01*
X168242Y36431D01*
X166261Y34739D01*
X164569Y32758D01*
X163208Y30537D01*
X162211Y28130D01*
X161603Y25597D01*
X161399Y23000D01*
X161603Y20403D01*
X162211Y17870D01*
X163208Y15463D01*
X164569Y13242D01*
X166261Y11261D01*
X168242Y9569D01*
X170463Y8208D01*
X172870Y7211D01*
X175403Y6603D01*
X177974Y6401D01*
Y2000D01*
X154450D01*
Y11832D01*
X154837Y12163D01*
X155246Y12642D01*
X155575Y13178D01*
X155816Y13760D01*
X155963Y14372D01*
X156000Y15000D01*
X155963Y15628D01*
X155816Y16240D01*
X155575Y16822D01*
X155246Y17358D01*
X154837Y17837D01*
X154450Y18168D01*
Y32449D01*
X154521Y32454D01*
X154589Y32471D01*
X154655Y32498D01*
X154715Y32535D01*
X154769Y32581D01*
X154815Y32635D01*
X154852Y32695D01*
X154879Y32761D01*
X154896Y32829D01*
X154900Y32900D01*
Y37100D01*
X154896Y37171D01*
X154879Y37239D01*
X154852Y37305D01*
X154815Y37365D01*
X154769Y37419D01*
X154715Y37465D01*
X154655Y37502D01*
X154589Y37529D01*
X154521Y37546D01*
X154450Y37551D01*
Y43166D01*
X154486Y43224D01*
X154721Y43791D01*
X154864Y44388D01*
X154900Y45000D01*
X154864Y45612D01*
X154721Y46209D01*
X154486Y46776D01*
X154450Y46834D01*
Y62502D01*
X154500Y62498D01*
X154578Y62505D01*
X154655Y62523D01*
X154728Y62553D01*
X154795Y62594D01*
X154855Y62645D01*
X154906Y62705D01*
X154947Y62772D01*
X154977Y62845D01*
X154995Y62922D01*
X155000Y63000D01*
Y67000D01*
X154995Y67078D01*
X154977Y67155D01*
X154947Y67228D01*
X154906Y67295D01*
X154855Y67355D01*
X154795Y67406D01*
X154728Y67447D01*
X154655Y67477D01*
X154578Y67495D01*
X154500Y67502D01*
X154450Y67498D01*
Y72974D01*
X154575Y73178D01*
X154816Y73760D01*
X154963Y74372D01*
X155000Y75000D01*
X154963Y75628D01*
X154816Y76240D01*
X154575Y76822D01*
X154450Y77026D01*
Y82974D01*
X154575Y83178D01*
X154816Y83760D01*
X154963Y84372D01*
X155000Y85000D01*
X154963Y85628D01*
X154816Y86240D01*
X154575Y86822D01*
X154450Y87026D01*
Y100000D01*
G37*
G36*
Y77026D02*X154246Y77358D01*
X153837Y77837D01*
X153358Y78246D01*
X152822Y78575D01*
X152240Y78816D01*
X151628Y78963D01*
X151000Y79012D01*
X150372Y78963D01*
X149760Y78816D01*
X149248Y78604D01*
Y81396D01*
X149760Y81184D01*
X150372Y81037D01*
X151000Y80988D01*
X151628Y81037D01*
X152240Y81184D01*
X152822Y81425D01*
X153358Y81754D01*
X153837Y82163D01*
X154246Y82642D01*
X154450Y82974D01*
Y77026D01*
G37*
G36*
Y46834D02*X154165Y47299D01*
X153766Y47766D01*
X153299Y48165D01*
X152776Y48486D01*
X152209Y48721D01*
X151612Y48864D01*
X151000Y48912D01*
X150388Y48864D01*
X149791Y48721D01*
X149515Y48606D01*
X149248Y48874D01*
Y61000D01*
X153000D01*
X153078Y61005D01*
X153155Y61023D01*
X153228Y61053D01*
X153295Y61094D01*
X153355Y61145D01*
X153406Y61205D01*
X153447Y61272D01*
X153477Y61345D01*
X153495Y61422D01*
X153502Y61500D01*
X153495Y61578D01*
X153477Y61655D01*
X153447Y61728D01*
X153406Y61795D01*
X153355Y61855D01*
X153295Y61906D01*
X153228Y61947D01*
X153155Y61977D01*
X153078Y61995D01*
X153000Y62000D01*
X149248D01*
Y68000D01*
X153000D01*
X153078Y68005D01*
X153155Y68023D01*
X153228Y68053D01*
X153295Y68094D01*
X153355Y68145D01*
X153406Y68205D01*
X153447Y68272D01*
X153477Y68345D01*
X153495Y68422D01*
X153502Y68500D01*
X153495Y68578D01*
X153477Y68655D01*
X153447Y68728D01*
X153406Y68795D01*
X153355Y68855D01*
X153295Y68906D01*
X153228Y68947D01*
X153155Y68977D01*
X153078Y68995D01*
X153000Y69000D01*
X149248D01*
Y71126D01*
X149439Y71317D01*
X149760Y71184D01*
X150372Y71037D01*
X151000Y70988D01*
X151628Y71037D01*
X152240Y71184D01*
X152822Y71425D01*
X153358Y71754D01*
X153837Y72163D01*
X154246Y72642D01*
X154450Y72974D01*
Y67498D01*
X154422Y67495D01*
X154345Y67477D01*
X154272Y67447D01*
X154205Y67406D01*
X154145Y67355D01*
X154094Y67295D01*
X154053Y67228D01*
X154023Y67155D01*
X154005Y67078D01*
X154000Y67000D01*
Y63000D01*
X154005Y62922D01*
X154023Y62845D01*
X154053Y62772D01*
X154094Y62705D01*
X154145Y62645D01*
X154205Y62594D01*
X154272Y62553D01*
X154345Y62523D01*
X154422Y62505D01*
X154450Y62502D01*
Y46834D01*
G37*
G36*
Y18168D02*X154358Y18246D01*
X153822Y18575D01*
X153240Y18816D01*
X152628Y18963D01*
X152000Y19012D01*
X151372Y18963D01*
X150760Y18816D01*
X150178Y18575D01*
X149642Y18246D01*
X149248Y17910D01*
Y31100D01*
X153100D01*
X153171Y31104D01*
X153239Y31121D01*
X153305Y31148D01*
X153365Y31185D01*
X153419Y31231D01*
X153465Y31285D01*
X153502Y31345D01*
X153529Y31411D01*
X153546Y31479D01*
X153551Y31550D01*
X153546Y31621D01*
X153529Y31689D01*
X153502Y31755D01*
X153465Y31815D01*
X153419Y31869D01*
X153365Y31915D01*
X153305Y31952D01*
X153239Y31979D01*
X153171Y31996D01*
X153100Y32000D01*
X149248D01*
Y38000D01*
X153100D01*
X153171Y38004D01*
X153239Y38021D01*
X153305Y38048D01*
X153365Y38085D01*
X153419Y38131D01*
X153465Y38185D01*
X153502Y38245D01*
X153529Y38311D01*
X153546Y38379D01*
X153551Y38450D01*
X153546Y38521D01*
X153529Y38589D01*
X153502Y38655D01*
X153465Y38715D01*
X153419Y38769D01*
X153365Y38815D01*
X153305Y38852D01*
X153239Y38879D01*
X153171Y38896D01*
X153100Y38900D01*
X149248D01*
Y41505D01*
X149791Y41279D01*
X150388Y41136D01*
X151000Y41088D01*
X151612Y41136D01*
X152209Y41279D01*
X152776Y41514D01*
X153299Y41835D01*
X153766Y42234D01*
X154165Y42701D01*
X154450Y43166D01*
Y37551D01*
X154379Y37546D01*
X154311Y37529D01*
X154245Y37502D01*
X154185Y37465D01*
X154131Y37419D01*
X154085Y37365D01*
X154048Y37305D01*
X154021Y37239D01*
X154004Y37171D01*
X154000Y37100D01*
Y32900D01*
X154004Y32829D01*
X154021Y32761D01*
X154048Y32695D01*
X154085Y32635D01*
X154131Y32581D01*
X154185Y32535D01*
X154245Y32498D01*
X154311Y32471D01*
X154379Y32454D01*
X154450Y32449D01*
Y18168D01*
G37*
G36*
Y2000D02*X149248D01*
Y12090D01*
X149642Y11754D01*
X150178Y11425D01*
X150760Y11184D01*
X151372Y11037D01*
X152000Y10988D01*
X152628Y11037D01*
X153240Y11184D01*
X153822Y11425D01*
X154358Y11754D01*
X154450Y11832D01*
Y2000D01*
G37*
G36*
X149248Y100000D02*X154450D01*
Y87026D01*
X154246Y87358D01*
X153837Y87837D01*
X153358Y88246D01*
X152822Y88575D01*
X152240Y88816D01*
X151628Y88963D01*
X151000Y89012D01*
X150372Y88963D01*
X149760Y88816D01*
X149248Y88604D01*
Y100000D01*
G37*
G36*
Y48874D02*X147500Y50621D01*
Y62498D01*
X147578Y62505D01*
X147655Y62523D01*
X147728Y62553D01*
X147795Y62594D01*
X147855Y62645D01*
X147906Y62705D01*
X147947Y62772D01*
X147977Y62845D01*
X147995Y62922D01*
X148000Y63000D01*
Y67000D01*
X147995Y67078D01*
X147977Y67155D01*
X147947Y67228D01*
X147906Y67295D01*
X147855Y67355D01*
X147795Y67406D01*
X147728Y67447D01*
X147655Y67477D01*
X147578Y67495D01*
X147500Y67502D01*
Y69379D01*
X149248Y71126D01*
Y69000D01*
X149000D01*
X148922Y68995D01*
X148845Y68977D01*
X148772Y68947D01*
X148705Y68906D01*
X148645Y68855D01*
X148594Y68795D01*
X148553Y68728D01*
X148523Y68655D01*
X148505Y68578D01*
X148498Y68500D01*
X148505Y68422D01*
X148523Y68345D01*
X148553Y68272D01*
X148594Y68205D01*
X148645Y68145D01*
X148705Y68094D01*
X148772Y68053D01*
X148845Y68023D01*
X148922Y68005D01*
X149000Y68000D01*
X149248D01*
Y62000D01*
X149000D01*
X148922Y61995D01*
X148845Y61977D01*
X148772Y61947D01*
X148705Y61906D01*
X148645Y61855D01*
X148594Y61795D01*
X148553Y61728D01*
X148523Y61655D01*
X148505Y61578D01*
X148498Y61500D01*
X148505Y61422D01*
X148523Y61345D01*
X148553Y61272D01*
X148594Y61205D01*
X148645Y61145D01*
X148705Y61094D01*
X148772Y61053D01*
X148845Y61023D01*
X148922Y61005D01*
X149000Y61000D01*
X149248D01*
Y48874D01*
G37*
G36*
X147500Y50621D02*X146500Y51621D01*
Y68379D01*
X147500Y69379D01*
Y67502D01*
X147422Y67495D01*
X147345Y67477D01*
X147272Y67447D01*
X147205Y67406D01*
X147145Y67355D01*
X147094Y67295D01*
X147053Y67228D01*
X147023Y67155D01*
X147005Y67078D01*
X147000Y67000D01*
Y63000D01*
X147005Y62922D01*
X147023Y62845D01*
X147053Y62772D01*
X147094Y62705D01*
X147145Y62645D01*
X147205Y62594D01*
X147272Y62553D01*
X147345Y62523D01*
X147422Y62505D01*
X147500Y62498D01*
Y50621D01*
G37*
G36*
X147550Y80429D02*X148786Y81665D01*
X149178Y81425D01*
X149248Y81396D01*
Y78604D01*
X149178Y78575D01*
X148642Y78246D01*
X148163Y77837D01*
X147754Y77358D01*
X147550Y77026D01*
Y80429D01*
G37*
G36*
X149248Y2000D02*X147550D01*
Y32449D01*
X147621Y32454D01*
X147689Y32471D01*
X147755Y32498D01*
X147815Y32535D01*
X147869Y32581D01*
X147915Y32635D01*
X147952Y32695D01*
X147979Y32761D01*
X147996Y32829D01*
X148000Y32900D01*
Y37100D01*
X147996Y37171D01*
X147979Y37239D01*
X147952Y37305D01*
X147915Y37365D01*
X147869Y37419D01*
X147815Y37465D01*
X147755Y37502D01*
X147689Y37529D01*
X147621Y37546D01*
X147550Y37551D01*
Y43166D01*
X147835Y42701D01*
X148234Y42234D01*
X148701Y41835D01*
X149224Y41514D01*
X149248Y41505D01*
Y38900D01*
X148900D01*
X148829Y38896D01*
X148761Y38879D01*
X148695Y38852D01*
X148635Y38815D01*
X148581Y38769D01*
X148535Y38715D01*
X148498Y38655D01*
X148471Y38589D01*
X148454Y38521D01*
X148449Y38450D01*
X148454Y38379D01*
X148471Y38311D01*
X148498Y38245D01*
X148535Y38185D01*
X148581Y38131D01*
X148635Y38085D01*
X148695Y38048D01*
X148761Y38021D01*
X148829Y38004D01*
X148900Y38000D01*
X149248D01*
Y32000D01*
X148900D01*
X148829Y31996D01*
X148761Y31979D01*
X148695Y31952D01*
X148635Y31915D01*
X148581Y31869D01*
X148535Y31815D01*
X148498Y31755D01*
X148471Y31689D01*
X148454Y31621D01*
X148449Y31550D01*
X148454Y31479D01*
X148471Y31411D01*
X148498Y31345D01*
X148535Y31285D01*
X148581Y31231D01*
X148635Y31185D01*
X148695Y31148D01*
X148761Y31121D01*
X148829Y31104D01*
X148900Y31100D01*
X149248D01*
Y17910D01*
X149163Y17837D01*
X148754Y17358D01*
X148425Y16822D01*
X148184Y16240D01*
X148037Y15628D01*
X147988Y15000D01*
X148037Y14372D01*
X148184Y13760D01*
X148425Y13178D01*
X148754Y12642D01*
X149163Y12163D01*
X149248Y12090D01*
Y2000D01*
G37*
G36*
X147550D02*X142000D01*
Y10988D01*
X142628Y11037D01*
X143240Y11184D01*
X143822Y11425D01*
X144358Y11754D01*
X144837Y12163D01*
X145246Y12642D01*
X145575Y13178D01*
X145816Y13760D01*
X145963Y14372D01*
X146000Y15000D01*
X145963Y15628D01*
X145816Y16240D01*
X145575Y16822D01*
X145246Y17358D01*
X144837Y17837D01*
X144358Y18246D01*
X143822Y18575D01*
X143240Y18816D01*
X142628Y18963D01*
X142000Y19012D01*
Y22879D01*
X142019Y22898D01*
X142064Y22936D01*
X142217Y23115D01*
X142217Y23116D01*
X142341Y23317D01*
X142431Y23535D01*
X142486Y23765D01*
X142505Y24000D01*
X142500Y24059D01*
Y35941D01*
X142505Y36000D01*
X142486Y36235D01*
X142486Y36235D01*
X142431Y36465D01*
X142341Y36683D01*
X142217Y36884D01*
X142064Y37064D01*
X142019Y37102D01*
X142000Y37121D01*
Y74879D01*
X147550Y80429D01*
Y77026D01*
X147425Y76822D01*
X147184Y76240D01*
X147037Y75628D01*
X146988Y75000D01*
X147037Y74372D01*
X147184Y73760D01*
X147317Y73439D01*
X143981Y70102D01*
X143936Y70064D01*
X143783Y69884D01*
X143659Y69683D01*
X143569Y69465D01*
X143514Y69235D01*
X143514Y69235D01*
X143495Y69000D01*
X143500Y68941D01*
Y51059D01*
X143495Y51000D01*
X143514Y50765D01*
X143569Y50535D01*
X143659Y50317D01*
X143783Y50116D01*
X143783Y50115D01*
X143936Y49936D01*
X143981Y49898D01*
X147394Y46485D01*
X147279Y46209D01*
X147136Y45612D01*
X147088Y45000D01*
X147136Y44388D01*
X147279Y43791D01*
X147514Y43224D01*
X147550Y43166D01*
Y37551D01*
X147479Y37546D01*
X147411Y37529D01*
X147345Y37502D01*
X147285Y37465D01*
X147231Y37419D01*
X147185Y37365D01*
X147148Y37305D01*
X147121Y37239D01*
X147104Y37171D01*
X147100Y37100D01*
Y32900D01*
X147104Y32829D01*
X147121Y32761D01*
X147148Y32695D01*
X147185Y32635D01*
X147231Y32581D01*
X147285Y32535D01*
X147345Y32498D01*
X147411Y32471D01*
X147479Y32454D01*
X147550Y32449D01*
Y2000D01*
G37*
G36*
X142000Y100000D02*X149248D01*
Y88604D01*
X149178Y88575D01*
X148642Y88246D01*
X148163Y87837D01*
X147754Y87358D01*
X147425Y86822D01*
X147184Y86240D01*
X147037Y85628D01*
X146988Y85000D01*
X147037Y84372D01*
X147078Y84200D01*
X142000Y79121D01*
Y100000D01*
G37*
G36*
X118096Y11500D02*X124941D01*
X125000Y11495D01*
X125235Y11514D01*
X125235Y11514D01*
X125465Y11569D01*
X125683Y11659D01*
X125884Y11783D01*
X126064Y11936D01*
X126102Y11981D01*
X128019Y13898D01*
X128064Y13936D01*
X128125Y14007D01*
X128184Y13760D01*
X128425Y13178D01*
X128754Y12642D01*
X129163Y12163D01*
X129642Y11754D01*
X130178Y11425D01*
X130760Y11184D01*
X131372Y11037D01*
X132000Y10988D01*
X132628Y11037D01*
X133240Y11184D01*
X133822Y11425D01*
X134358Y11754D01*
X134837Y12163D01*
X135246Y12642D01*
X135575Y13178D01*
X135816Y13760D01*
X135963Y14372D01*
X136000Y15000D01*
X135963Y15628D01*
X135816Y16240D01*
X135683Y16561D01*
X142000Y22879D01*
Y19012D01*
X141372Y18963D01*
X140760Y18816D01*
X140178Y18575D01*
X139642Y18246D01*
X139163Y17837D01*
X138754Y17358D01*
X138425Y16822D01*
X138184Y16240D01*
X138037Y15628D01*
X137988Y15000D01*
X138037Y14372D01*
X138184Y13760D01*
X138425Y13178D01*
X138754Y12642D01*
X139163Y12163D01*
X139642Y11754D01*
X140178Y11425D01*
X140760Y11184D01*
X141372Y11037D01*
X142000Y10988D01*
Y2000D01*
X118096D01*
Y11500D01*
G37*
G36*
X124225Y39500D02*X135379D01*
X139500Y35379D01*
Y24621D01*
X133561Y18683D01*
X133240Y18816D01*
X132628Y18963D01*
X132000Y19012D01*
X131372Y18963D01*
X130760Y18816D01*
X130178Y18575D01*
X129642Y18246D01*
X129163Y17837D01*
X128754Y17358D01*
X128500Y16944D01*
Y30379D01*
X128621Y30500D01*
X129006D01*
X129009Y28343D01*
X129046Y28190D01*
X129106Y28045D01*
X129188Y27910D01*
X129291Y27791D01*
X129410Y27688D01*
X129545Y27606D01*
X129690Y27546D01*
X129843Y27509D01*
X130000Y27500D01*
X136157Y27509D01*
X136310Y27546D01*
X136455Y27606D01*
X136590Y27688D01*
X136709Y27791D01*
X136812Y27910D01*
X136894Y28045D01*
X136954Y28190D01*
X136991Y28343D01*
X137000Y28500D01*
X136991Y35657D01*
X136954Y35810D01*
X136894Y35955D01*
X136812Y36090D01*
X136709Y36209D01*
X136590Y36312D01*
X136455Y36394D01*
X136310Y36454D01*
X136157Y36491D01*
X136000Y36500D01*
X129843Y36491D01*
X129690Y36454D01*
X129545Y36394D01*
X129410Y36312D01*
X129291Y36209D01*
X129188Y36090D01*
X129106Y35955D01*
X129046Y35810D01*
X129009Y35657D01*
X129000Y35500D01*
X129003Y33500D01*
X128059D01*
X128000Y33505D01*
X127765Y33486D01*
X127535Y33431D01*
X127317Y33341D01*
X127116Y33217D01*
X127115Y33217D01*
X126936Y33064D01*
X126898Y33019D01*
X125981Y32102D01*
X125936Y32064D01*
X125783Y31884D01*
X125659Y31683D01*
X125569Y31465D01*
X125514Y31235D01*
X125514Y31235D01*
X125495Y31000D01*
X125500Y30941D01*
Y15621D01*
X124379Y14500D01*
X124225D01*
Y17617D01*
X124246Y17642D01*
X124575Y18178D01*
X124816Y18760D01*
X124963Y19372D01*
X125000Y20000D01*
X124963Y20628D01*
X124816Y21240D01*
X124575Y21822D01*
X124246Y22358D01*
X124225Y22383D01*
Y27526D01*
X124310Y27546D01*
X124455Y27606D01*
X124590Y27688D01*
X124709Y27791D01*
X124812Y27910D01*
X124894Y28045D01*
X124954Y28190D01*
X124991Y28343D01*
X125000Y28500D01*
X124991Y35657D01*
X124954Y35810D01*
X124894Y35955D01*
X124812Y36090D01*
X124709Y36209D01*
X124590Y36312D01*
X124455Y36394D01*
X124310Y36454D01*
X124225Y36474D01*
Y39500D01*
G37*
G36*
Y14500D02*X121000D01*
Y15988D01*
X121628Y16037D01*
X122240Y16184D01*
X122822Y16425D01*
X123358Y16754D01*
X123456Y16837D01*
X122743Y17550D01*
X122366Y17319D01*
X121930Y17138D01*
X121471Y17028D01*
X121000Y16991D01*
Y18495D01*
X121235Y18514D01*
X121465Y18569D01*
X121683Y18659D01*
X121884Y18783D01*
X122064Y18936D01*
X122217Y19116D01*
X122341Y19317D01*
X122431Y19535D01*
X122486Y19765D01*
X122500Y20000D01*
Y22599D01*
X122743Y22450D01*
X123456Y23163D01*
X123358Y23246D01*
X122822Y23575D01*
X122500Y23708D01*
Y27507D01*
X124157Y27509D01*
X124225Y27526D01*
Y22383D01*
X124163Y22456D01*
X123450Y21743D01*
X123681Y21366D01*
X123862Y20930D01*
X123972Y20471D01*
X124000Y20000D01*
X123972Y19529D01*
X123862Y19070D01*
X123681Y18634D01*
X123450Y18257D01*
X124163Y17544D01*
X124225Y17617D01*
Y14500D01*
G37*
G36*
X121000Y39500D02*X124225D01*
Y36474D01*
X124157Y36491D01*
X124000Y36500D01*
X121000Y36495D01*
Y39500D01*
G37*
G36*
Y14500D02*X118096D01*
Y17803D01*
X118550Y18257D01*
X118319Y18634D01*
X118138Y19070D01*
X118096Y19246D01*
Y20754D01*
X118138Y20930D01*
X118319Y21366D01*
X118550Y21743D01*
X118096Y22197D01*
Y27500D01*
X119500Y27502D01*
Y23708D01*
X119178Y23575D01*
X118642Y23246D01*
X118544Y23163D01*
X119257Y22450D01*
X119500Y22599D01*
Y20000D01*
X119514Y19765D01*
X119569Y19535D01*
X119659Y19317D01*
X119783Y19116D01*
X119936Y18936D01*
X120116Y18783D01*
X120317Y18659D01*
X120535Y18569D01*
X120765Y18514D01*
X121000Y18495D01*
Y16991D01*
X120529Y17028D01*
X120070Y17138D01*
X119634Y17319D01*
X119257Y17550D01*
X118544Y16837D01*
X118642Y16754D01*
X119178Y16425D01*
X119760Y16184D01*
X120372Y16037D01*
X121000Y15988D01*
Y14500D01*
G37*
G36*
X118096Y39500D02*X121000D01*
Y36495D01*
X118096Y36491D01*
Y39500D01*
G37*
G36*
Y100000D02*X142000D01*
Y79121D01*
X135378Y72499D01*
X129843Y72491D01*
X129690Y72454D01*
X129545Y72394D01*
X129410Y72312D01*
X129291Y72209D01*
X129188Y72090D01*
X129106Y71955D01*
X129046Y71810D01*
X129009Y71657D01*
X129000Y71500D01*
X129009Y64343D01*
X129046Y64190D01*
X129106Y64045D01*
X129188Y63910D01*
X129291Y63791D01*
X129410Y63688D01*
X129545Y63606D01*
X129690Y63546D01*
X129843Y63509D01*
X130000Y63500D01*
X131500Y63502D01*
Y54493D01*
X129843Y54491D01*
X129690Y54454D01*
X129545Y54394D01*
X129410Y54312D01*
X129291Y54209D01*
X129188Y54090D01*
X129106Y53955D01*
X129046Y53810D01*
X129009Y53657D01*
X129000Y53500D01*
X129009Y46343D01*
X129046Y46190D01*
X129106Y46045D01*
X129188Y45910D01*
X129291Y45791D01*
X129410Y45688D01*
X129545Y45606D01*
X129690Y45546D01*
X129843Y45509D01*
X130000Y45500D01*
X136157Y45509D01*
X136310Y45546D01*
X136455Y45606D01*
X136590Y45688D01*
X136709Y45791D01*
X136812Y45910D01*
X136894Y46045D01*
X136954Y46190D01*
X136991Y46343D01*
X137000Y46500D01*
X136991Y53657D01*
X136954Y53810D01*
X136894Y53955D01*
X136812Y54090D01*
X136709Y54209D01*
X136590Y54312D01*
X136455Y54394D01*
X136310Y54454D01*
X136157Y54491D01*
X136000Y54500D01*
X134500Y54498D01*
Y63507D01*
X136157Y63509D01*
X136310Y63546D01*
X136455Y63606D01*
X136590Y63688D01*
X136709Y63791D01*
X136812Y63910D01*
X136894Y64045D01*
X136954Y64190D01*
X136991Y64343D01*
X137000Y64500D01*
X136993Y69872D01*
X142000Y74879D01*
Y37121D01*
X137102Y42019D01*
X137064Y42064D01*
X136884Y42217D01*
X136683Y42341D01*
X136465Y42431D01*
X136235Y42486D01*
X136000Y42505D01*
X135941Y42500D01*
X118096D01*
Y45500D01*
X124157Y45509D01*
X124310Y45546D01*
X124455Y45606D01*
X124590Y45688D01*
X124709Y45791D01*
X124812Y45910D01*
X124894Y46045D01*
X124954Y46190D01*
X124991Y46343D01*
X125000Y46500D01*
X124991Y53657D01*
X124954Y53810D01*
X124894Y53955D01*
X124812Y54090D01*
X124709Y54209D01*
X124590Y54312D01*
X124455Y54394D01*
X124310Y54454D01*
X124157Y54491D01*
X124000Y54500D01*
X122500Y54498D01*
Y56635D01*
X122651Y56728D01*
X122986Y57014D01*
X123272Y57349D01*
X123503Y57725D01*
X123671Y58132D01*
X123774Y58561D01*
X123800Y59000D01*
X123774Y59439D01*
X123671Y59868D01*
X123503Y60275D01*
X123272Y60651D01*
X122986Y60986D01*
X122651Y61272D01*
X122275Y61503D01*
X121868Y61671D01*
X121439Y61774D01*
X121000Y61809D01*
X120561Y61774D01*
X120132Y61671D01*
X119725Y61503D01*
X119349Y61272D01*
X119014Y60986D01*
X118728Y60651D01*
X118497Y60275D01*
X118329Y59868D01*
X118226Y59439D01*
X118191Y59000D01*
X118226Y58561D01*
X118329Y58132D01*
X118497Y57725D01*
X118728Y57349D01*
X119014Y57014D01*
X119349Y56728D01*
X119500Y56635D01*
Y54493D01*
X118096Y54491D01*
Y63500D01*
X124157Y63509D01*
X124310Y63546D01*
X124455Y63606D01*
X124590Y63688D01*
X124709Y63791D01*
X124812Y63910D01*
X124894Y64045D01*
X124954Y64190D01*
X124991Y64343D01*
X125000Y64500D01*
X124991Y71657D01*
X124954Y71810D01*
X124894Y71955D01*
X124812Y72090D01*
X124709Y72209D01*
X124590Y72312D01*
X124455Y72394D01*
X124310Y72454D01*
X124157Y72491D01*
X124000Y72500D01*
X122500Y72498D01*
Y74379D01*
X123621Y75500D01*
X130941D01*
X131000Y75495D01*
X131235Y75514D01*
X131235Y75514D01*
X131465Y75569D01*
X131683Y75659D01*
X131884Y75783D01*
X132064Y75936D01*
X132102Y75981D01*
X134019Y77898D01*
X134064Y77936D01*
X134217Y78115D01*
X134217Y78116D01*
X134341Y78317D01*
X134431Y78535D01*
X134486Y78765D01*
X134505Y79000D01*
X134500Y79059D01*
Y81507D01*
X136157Y81509D01*
X136310Y81546D01*
X136455Y81606D01*
X136590Y81688D01*
X136709Y81791D01*
X136812Y81910D01*
X136894Y82045D01*
X136954Y82190D01*
X136991Y82343D01*
X137000Y82500D01*
X136991Y89657D01*
X136954Y89810D01*
X136894Y89955D01*
X136812Y90090D01*
X136709Y90209D01*
X136590Y90312D01*
X136455Y90394D01*
X136310Y90454D01*
X136157Y90491D01*
X136000Y90500D01*
X129843Y90491D01*
X129690Y90454D01*
X129545Y90394D01*
X129410Y90312D01*
X129291Y90209D01*
X129188Y90090D01*
X129106Y89955D01*
X129046Y89810D01*
X129009Y89657D01*
X129000Y89500D01*
X129009Y82343D01*
X129046Y82190D01*
X129106Y82045D01*
X129188Y81910D01*
X129291Y81791D01*
X129410Y81688D01*
X129545Y81606D01*
X129690Y81546D01*
X129843Y81509D01*
X130000Y81500D01*
X131500Y81502D01*
Y79621D01*
X130379Y78500D01*
X123059D01*
X123000Y78505D01*
X122765Y78486D01*
X122535Y78431D01*
X122317Y78341D01*
X122116Y78217D01*
X122115Y78217D01*
X121936Y78064D01*
X121898Y78019D01*
X119981Y76102D01*
X119936Y76064D01*
X119783Y75884D01*
X119659Y75683D01*
X119569Y75465D01*
X119514Y75235D01*
X119514Y75235D01*
X119495Y75000D01*
X119500Y74941D01*
Y72493D01*
X118096Y72491D01*
Y81500D01*
X124157Y81509D01*
X124310Y81546D01*
X124455Y81606D01*
X124590Y81688D01*
X124709Y81791D01*
X124812Y81910D01*
X124894Y82045D01*
X124954Y82190D01*
X124991Y82343D01*
X125000Y82500D01*
X124991Y89657D01*
X124954Y89810D01*
X124894Y89955D01*
X124812Y90090D01*
X124709Y90209D01*
X124590Y90312D01*
X124455Y90394D01*
X124310Y90454D01*
X124157Y90491D01*
X124000Y90500D01*
X118096Y90491D01*
Y100000D01*
G37*
G36*
Y19246D02*X118028Y19529D01*
X117991Y20000D01*
X118028Y20471D01*
X118096Y20754D01*
Y19246D01*
G37*
G36*
X104994Y39500D02*X118096D01*
Y36491D01*
X117843Y36491D01*
X117690Y36454D01*
X117545Y36394D01*
X117410Y36312D01*
X117291Y36209D01*
X117188Y36090D01*
X117106Y35955D01*
X117046Y35810D01*
X117009Y35657D01*
X117000Y35500D01*
X117009Y28343D01*
X117046Y28190D01*
X117106Y28045D01*
X117188Y27910D01*
X117291Y27791D01*
X117410Y27688D01*
X117545Y27606D01*
X117690Y27546D01*
X117843Y27509D01*
X118000Y27500D01*
X118096Y27500D01*
Y22197D01*
X117837Y22456D01*
X117754Y22358D01*
X117425Y21822D01*
X117184Y21240D01*
X117037Y20628D01*
X116988Y20000D01*
X117037Y19372D01*
X117184Y18760D01*
X117425Y18178D01*
X117754Y17642D01*
X117837Y17544D01*
X118096Y17803D01*
Y14500D01*
X117621D01*
X111500Y20621D01*
Y22635D01*
X111651Y22728D01*
X111986Y23014D01*
X112272Y23349D01*
X112503Y23725D01*
X112671Y24132D01*
X112774Y24561D01*
X112800Y25000D01*
X112774Y25439D01*
X112671Y25868D01*
X112503Y26275D01*
X112272Y26651D01*
X111986Y26986D01*
X111651Y27272D01*
X111275Y27503D01*
X110868Y27671D01*
X110439Y27774D01*
X110000Y27809D01*
X109561Y27774D01*
X109132Y27671D01*
X108725Y27503D01*
X108349Y27272D01*
X108014Y26986D01*
X107728Y26651D01*
X107497Y26275D01*
X107329Y25868D01*
X107226Y25439D01*
X107191Y25000D01*
X107226Y24561D01*
X107329Y24132D01*
X107497Y23725D01*
X107728Y23349D01*
X108014Y23014D01*
X108349Y22728D01*
X108500Y22635D01*
Y20059D01*
X108495Y20000D01*
X108514Y19765D01*
X108569Y19535D01*
X108659Y19317D01*
X108783Y19116D01*
X108936Y18936D01*
X108981Y18898D01*
X115898Y11981D01*
X115936Y11936D01*
X116115Y11783D01*
X116116Y11783D01*
X116317Y11659D01*
X116535Y11569D01*
X116765Y11514D01*
X117000Y11495D01*
X117059Y11500D01*
X118096D01*
Y2000D01*
X104994D01*
Y11088D01*
X105000Y11088D01*
X105612Y11136D01*
X106209Y11279D01*
X106776Y11514D01*
X107299Y11835D01*
X107766Y12234D01*
X108165Y12701D01*
X108486Y13224D01*
X108721Y13791D01*
X108864Y14388D01*
X108900Y15000D01*
X108864Y15612D01*
X108721Y16209D01*
X108486Y16776D01*
X108165Y17299D01*
X107766Y17766D01*
X107299Y18165D01*
X106776Y18486D01*
X106209Y18721D01*
X105612Y18864D01*
X105000Y18912D01*
X104994Y18912D01*
Y39500D01*
G37*
G36*
X108450Y100000D02*X118096D01*
Y90491D01*
X117843Y90491D01*
X117690Y90454D01*
X117545Y90394D01*
X117410Y90312D01*
X117291Y90209D01*
X117188Y90090D01*
X117106Y89955D01*
X117046Y89810D01*
X117009Y89657D01*
X117000Y89500D01*
X117003Y87500D01*
X116059D01*
X116000Y87505D01*
X115765Y87486D01*
X115535Y87431D01*
X115317Y87341D01*
X115116Y87217D01*
X115115Y87217D01*
X114936Y87064D01*
X114898Y87019D01*
X112981Y85102D01*
X112936Y85064D01*
X112783Y84884D01*
X112659Y84683D01*
X112569Y84465D01*
X112514Y84235D01*
X112514Y84235D01*
X112495Y84000D01*
X112500Y83941D01*
Y79365D01*
X112349Y79272D01*
X112014Y78986D01*
X111728Y78651D01*
X111497Y78275D01*
X111329Y77868D01*
X111226Y77439D01*
X111191Y77000D01*
X111226Y76561D01*
X111329Y76132D01*
X111497Y75725D01*
X111728Y75349D01*
X112014Y75014D01*
X112349Y74728D01*
X112725Y74497D01*
X113132Y74329D01*
X113561Y74226D01*
X114000Y74191D01*
X114439Y74226D01*
X114868Y74329D01*
X115275Y74497D01*
X115651Y74728D01*
X115986Y75014D01*
X116272Y75349D01*
X116503Y75725D01*
X116671Y76132D01*
X116774Y76561D01*
X116800Y77000D01*
X116774Y77439D01*
X116671Y77868D01*
X116503Y78275D01*
X116272Y78651D01*
X115986Y78986D01*
X115651Y79272D01*
X115500Y79365D01*
Y83379D01*
X116621Y84500D01*
X117006D01*
X117009Y82343D01*
X117046Y82190D01*
X117106Y82045D01*
X117188Y81910D01*
X117291Y81791D01*
X117410Y81688D01*
X117545Y81606D01*
X117690Y81546D01*
X117843Y81509D01*
X118000Y81500D01*
X118096Y81500D01*
Y72491D01*
X117843Y72491D01*
X117690Y72454D01*
X117545Y72394D01*
X117410Y72312D01*
X117291Y72209D01*
X117188Y72090D01*
X117106Y71955D01*
X117046Y71810D01*
X117009Y71657D01*
X117000Y71500D01*
X117009Y64343D01*
X117046Y64190D01*
X117106Y64045D01*
X117188Y63910D01*
X117291Y63791D01*
X117410Y63688D01*
X117545Y63606D01*
X117690Y63546D01*
X117843Y63509D01*
X118000Y63500D01*
X118096Y63500D01*
Y54491D01*
X117843Y54491D01*
X117690Y54454D01*
X117545Y54394D01*
X117410Y54312D01*
X117291Y54209D01*
X117188Y54090D01*
X117106Y53955D01*
X117046Y53810D01*
X117009Y53657D01*
X117000Y53500D01*
X117009Y46343D01*
X117046Y46190D01*
X117106Y46045D01*
X117188Y45910D01*
X117291Y45791D01*
X117410Y45688D01*
X117545Y45606D01*
X117690Y45546D01*
X117843Y45509D01*
X118000Y45500D01*
X118096Y45500D01*
Y42500D01*
X108450D01*
Y67974D01*
X108575Y68178D01*
X108816Y68760D01*
X108963Y69372D01*
X109000Y70000D01*
X108963Y70628D01*
X108816Y71240D01*
X108575Y71822D01*
X108450Y72026D01*
Y82449D01*
X108521Y82454D01*
X108589Y82471D01*
X108655Y82498D01*
X108715Y82535D01*
X108769Y82581D01*
X108815Y82635D01*
X108852Y82695D01*
X108879Y82761D01*
X108896Y82829D01*
X108900Y82900D01*
Y87100D01*
X108896Y87171D01*
X108879Y87239D01*
X108852Y87305D01*
X108815Y87365D01*
X108769Y87419D01*
X108715Y87465D01*
X108655Y87502D01*
X108589Y87529D01*
X108521Y87546D01*
X108450Y87551D01*
Y100000D01*
G37*
G36*
Y42500D02*X104994D01*
Y65988D01*
X105000Y65988D01*
X105628Y66037D01*
X106240Y66184D01*
X106822Y66425D01*
X107358Y66754D01*
X107837Y67163D01*
X108246Y67642D01*
X108450Y67974D01*
Y42500D01*
G37*
G36*
X104994Y100000D02*X108450D01*
Y87551D01*
X108379Y87546D01*
X108311Y87529D01*
X108245Y87502D01*
X108185Y87465D01*
X108131Y87419D01*
X108085Y87365D01*
X108048Y87305D01*
X108021Y87239D01*
X108004Y87171D01*
X108000Y87100D01*
Y82900D01*
X108004Y82829D01*
X108021Y82761D01*
X108048Y82695D01*
X108085Y82635D01*
X108131Y82581D01*
X108185Y82535D01*
X108245Y82498D01*
X108311Y82471D01*
X108379Y82454D01*
X108450Y82449D01*
Y72026D01*
X108246Y72358D01*
X107837Y72837D01*
X107358Y73246D01*
X106822Y73575D01*
X106240Y73816D01*
X105628Y73963D01*
X105000Y74012D01*
X104994Y74012D01*
Y81100D01*
X107100D01*
X107171Y81104D01*
X107239Y81121D01*
X107305Y81148D01*
X107365Y81185D01*
X107419Y81231D01*
X107465Y81285D01*
X107502Y81345D01*
X107529Y81411D01*
X107546Y81479D01*
X107551Y81550D01*
X107546Y81621D01*
X107529Y81689D01*
X107502Y81755D01*
X107465Y81815D01*
X107419Y81869D01*
X107365Y81915D01*
X107305Y81952D01*
X107239Y81979D01*
X107171Y81996D01*
X107100Y82000D01*
X104994D01*
Y88000D01*
X107100D01*
X107171Y88004D01*
X107239Y88021D01*
X107305Y88048D01*
X107365Y88085D01*
X107419Y88131D01*
X107465Y88185D01*
X107502Y88245D01*
X107529Y88311D01*
X107546Y88379D01*
X107551Y88450D01*
X107546Y88521D01*
X107529Y88589D01*
X107502Y88655D01*
X107465Y88715D01*
X107419Y88769D01*
X107365Y88815D01*
X107305Y88852D01*
X107239Y88879D01*
X107171Y88896D01*
X107100Y88900D01*
X104994D01*
Y100000D01*
G37*
G36*
X99994Y42885D02*X102898Y39981D01*
X102936Y39936D01*
X103115Y39783D01*
X103116Y39783D01*
X103317Y39659D01*
X103535Y39569D01*
X103765Y39514D01*
X104000Y39495D01*
X104059Y39500D01*
X104994D01*
Y18912D01*
X104388Y18864D01*
X103791Y18721D01*
X103224Y18486D01*
X102701Y18165D01*
X102234Y17766D01*
X101835Y17299D01*
X101514Y16776D01*
X101279Y16209D01*
X101136Y15612D01*
X101088Y15000D01*
X101136Y14388D01*
X101279Y13791D01*
X101514Y13224D01*
X101835Y12701D01*
X102234Y12234D01*
X102701Y11835D01*
X103224Y11514D01*
X103791Y11279D01*
X104388Y11136D01*
X104994Y11088D01*
Y2000D01*
X99994D01*
Y25988D01*
X100000Y25988D01*
X100628Y26037D01*
X101240Y26184D01*
X101822Y26425D01*
X102358Y26754D01*
X102837Y27163D01*
X103246Y27642D01*
X103575Y28178D01*
X103816Y28760D01*
X103963Y29372D01*
X104000Y30000D01*
X103963Y30628D01*
X103816Y31240D01*
X103575Y31822D01*
X103246Y32358D01*
X102837Y32837D01*
X102358Y33246D01*
X101822Y33575D01*
X101240Y33816D01*
X100628Y33963D01*
X100000Y34012D01*
X99994Y34012D01*
Y42885D01*
G37*
G36*
X101550Y67974D02*X101754Y67642D01*
X102163Y67163D01*
X102642Y66754D01*
X103178Y66425D01*
X103760Y66184D01*
X104372Y66037D01*
X104994Y65988D01*
Y42500D01*
X104621D01*
X101550Y45571D01*
Y67974D01*
G37*
G36*
Y100000D02*X104994D01*
Y88900D01*
X102900D01*
X102829Y88896D01*
X102761Y88879D01*
X102695Y88852D01*
X102635Y88815D01*
X102581Y88769D01*
X102535Y88715D01*
X102498Y88655D01*
X102471Y88589D01*
X102454Y88521D01*
X102449Y88450D01*
X102454Y88379D01*
X102471Y88311D01*
X102498Y88245D01*
X102535Y88185D01*
X102581Y88131D01*
X102635Y88085D01*
X102695Y88048D01*
X102761Y88021D01*
X102829Y88004D01*
X102900Y88000D01*
X104994D01*
Y82000D01*
X102900D01*
X102829Y81996D01*
X102761Y81979D01*
X102695Y81952D01*
X102635Y81915D01*
X102581Y81869D01*
X102535Y81815D01*
X102498Y81755D01*
X102471Y81689D01*
X102454Y81621D01*
X102449Y81550D01*
X102454Y81479D01*
X102471Y81411D01*
X102498Y81345D01*
X102535Y81285D01*
X102581Y81231D01*
X102635Y81185D01*
X102695Y81148D01*
X102761Y81121D01*
X102829Y81104D01*
X102900Y81100D01*
X104994D01*
Y74012D01*
X104372Y73963D01*
X103760Y73816D01*
X103178Y73575D01*
X102642Y73246D01*
X102163Y72837D01*
X101754Y72358D01*
X101550Y72026D01*
Y82449D01*
X101621Y82454D01*
X101689Y82471D01*
X101755Y82498D01*
X101815Y82535D01*
X101869Y82581D01*
X101915Y82635D01*
X101952Y82695D01*
X101979Y82761D01*
X101996Y82829D01*
X102000Y82900D01*
Y87100D01*
X101996Y87171D01*
X101979Y87239D01*
X101952Y87305D01*
X101915Y87365D01*
X101869Y87419D01*
X101815Y87465D01*
X101755Y87502D01*
X101689Y87529D01*
X101621Y87546D01*
X101550Y87551D01*
Y100000D01*
G37*
G36*
X99994D02*X101550D01*
Y87551D01*
X101479Y87546D01*
X101411Y87529D01*
X101345Y87502D01*
X101285Y87465D01*
X101231Y87419D01*
X101185Y87365D01*
X101148Y87305D01*
X101121Y87239D01*
X101104Y87171D01*
X101100Y87100D01*
Y82900D01*
X101104Y82829D01*
X101121Y82761D01*
X101148Y82695D01*
X101185Y82635D01*
X101231Y82581D01*
X101285Y82535D01*
X101345Y82498D01*
X101411Y82471D01*
X101479Y82454D01*
X101550Y82449D01*
Y72026D01*
X101425Y71822D01*
X101184Y71240D01*
X101037Y70628D01*
X100988Y70000D01*
X101037Y69372D01*
X101184Y68760D01*
X101425Y68178D01*
X101550Y67974D01*
Y45571D01*
X99994Y47127D01*
Y100000D01*
G37*
G36*
X86950D02*X99994D01*
Y47127D01*
X96500Y50621D01*
Y66635D01*
X96651Y66728D01*
X96986Y67014D01*
X97272Y67349D01*
X97503Y67725D01*
X97671Y68132D01*
X97774Y68561D01*
X97800Y69000D01*
X97774Y69439D01*
X97671Y69868D01*
X97503Y70275D01*
X97272Y70651D01*
X96986Y70986D01*
X96651Y71272D01*
X96275Y71503D01*
X95868Y71671D01*
X95439Y71774D01*
X95000Y71809D01*
X94561Y71774D01*
X94132Y71671D01*
X93725Y71503D01*
X93349Y71272D01*
X93014Y70986D01*
X92728Y70651D01*
X92497Y70275D01*
X92329Y69868D01*
X92226Y69439D01*
X92191Y69000D01*
X92226Y68561D01*
X92329Y68132D01*
X92497Y67725D01*
X92728Y67349D01*
X93014Y67014D01*
X93349Y66728D01*
X93500Y66635D01*
Y50059D01*
X93495Y50000D01*
X93514Y49765D01*
X93569Y49535D01*
X93659Y49317D01*
X93783Y49116D01*
X93936Y48936D01*
X93981Y48898D01*
X99994Y42885D01*
Y34012D01*
X99372Y33963D01*
X98760Y33816D01*
X98178Y33575D01*
X97642Y33246D01*
X97163Y32837D01*
X96754Y32358D01*
X96425Y31822D01*
X96184Y31240D01*
X96037Y30628D01*
X95988Y30000D01*
X96037Y29372D01*
X96184Y28760D01*
X96425Y28178D01*
X96754Y27642D01*
X97163Y27163D01*
X97642Y26754D01*
X98178Y26425D01*
X98760Y26184D01*
X99372Y26037D01*
X99994Y25988D01*
Y2000D01*
X86950D01*
Y20983D01*
X86986Y21014D01*
X87272Y21349D01*
X87503Y21725D01*
X87671Y22132D01*
X87774Y22561D01*
X87800Y23000D01*
X87774Y23439D01*
X87671Y23868D01*
X87503Y24275D01*
X87272Y24651D01*
X86986Y24986D01*
X86950Y25017D01*
Y27929D01*
X93500Y21379D01*
Y18600D01*
X93224Y18486D01*
X92701Y18165D01*
X92234Y17766D01*
X91835Y17299D01*
X91514Y16776D01*
X91279Y16209D01*
X91136Y15612D01*
X91088Y15000D01*
X91136Y14388D01*
X91279Y13791D01*
X91514Y13224D01*
X91835Y12701D01*
X92234Y12234D01*
X92701Y11835D01*
X93224Y11514D01*
X93791Y11279D01*
X94388Y11136D01*
X95000Y11088D01*
X95612Y11136D01*
X96209Y11279D01*
X96776Y11514D01*
X97299Y11835D01*
X97766Y12234D01*
X98165Y12701D01*
X98486Y13224D01*
X98721Y13791D01*
X98864Y14388D01*
X98900Y15000D01*
X98864Y15612D01*
X98721Y16209D01*
X98486Y16776D01*
X98165Y17299D01*
X97766Y17766D01*
X97299Y18165D01*
X96776Y18486D01*
X96500Y18600D01*
Y21941D01*
X96505Y22000D01*
X96486Y22235D01*
X96486Y22235D01*
X96431Y22465D01*
X96341Y22683D01*
X96217Y22884D01*
X96064Y23064D01*
X96019Y23102D01*
X86950Y32171D01*
Y66839D01*
X87064Y66936D01*
X87102Y66981D01*
X96019Y75898D01*
X96064Y75936D01*
X96217Y76115D01*
X96217Y76116D01*
X96341Y76317D01*
X96431Y76535D01*
X96486Y76765D01*
X96505Y77000D01*
X96500Y77059D01*
Y81400D01*
X96776Y81514D01*
X97299Y81835D01*
X97766Y82234D01*
X98165Y82701D01*
X98486Y83224D01*
X98721Y83791D01*
X98864Y84388D01*
X98900Y85000D01*
X98864Y85612D01*
X98721Y86209D01*
X98486Y86776D01*
X98165Y87299D01*
X97766Y87766D01*
X97299Y88165D01*
X96776Y88486D01*
X96209Y88721D01*
X95612Y88864D01*
X95000Y88912D01*
X94388Y88864D01*
X93791Y88721D01*
X93224Y88486D01*
X92701Y88165D01*
X92234Y87766D01*
X91835Y87299D01*
X91514Y86776D01*
X91279Y86209D01*
X91136Y85612D01*
X91088Y85000D01*
X91136Y84388D01*
X91279Y83791D01*
X91514Y83224D01*
X91835Y82701D01*
X92234Y82234D01*
X92701Y81835D01*
X93224Y81514D01*
X93500Y81400D01*
Y77621D01*
X86950Y71071D01*
Y90983D01*
X86986Y91014D01*
X87272Y91349D01*
X87503Y91725D01*
X87671Y92132D01*
X87774Y92561D01*
X87800Y93000D01*
X87774Y93439D01*
X87671Y93868D01*
X87503Y94275D01*
X87272Y94651D01*
X86986Y94986D01*
X86950Y95017D01*
Y100000D01*
G37*
G36*
X68994Y21500D02*X72941D01*
X73000Y21495D01*
X73059Y21500D01*
X82635D01*
X82728Y21349D01*
X83014Y21014D01*
X83349Y20728D01*
X83725Y20497D01*
X84132Y20329D01*
X84561Y20226D01*
X85000Y20191D01*
X85439Y20226D01*
X85868Y20329D01*
X86275Y20497D01*
X86651Y20728D01*
X86950Y20983D01*
Y2000D01*
X68994D01*
Y10988D01*
X69000Y10988D01*
X69628Y11037D01*
X70240Y11184D01*
X70822Y11425D01*
X71358Y11754D01*
X71837Y12163D01*
X72246Y12642D01*
X72575Y13178D01*
X72816Y13760D01*
X72963Y14372D01*
X73000Y15000D01*
X72963Y15628D01*
X72816Y16240D01*
X72575Y16822D01*
X72246Y17358D01*
X71837Y17837D01*
X71358Y18246D01*
X70822Y18575D01*
X70240Y18816D01*
X69628Y18963D01*
X69000Y19012D01*
X68994Y19012D01*
Y21500D01*
G37*
G36*
X57994D02*X68994D01*
Y19012D01*
X68372Y18963D01*
X67760Y18816D01*
X67178Y18575D01*
X66642Y18246D01*
X66163Y17837D01*
X65754Y17358D01*
X65425Y16822D01*
X65184Y16240D01*
X65037Y15628D01*
X64988Y15000D01*
X65037Y14372D01*
X65184Y13760D01*
X65425Y13178D01*
X65754Y12642D01*
X66163Y12163D01*
X66642Y11754D01*
X67178Y11425D01*
X67760Y11184D01*
X68372Y11037D01*
X68994Y10988D01*
Y2000D01*
X57994D01*
Y11128D01*
X58372Y11037D01*
X59000Y10988D01*
X59628Y11037D01*
X60240Y11184D01*
X60822Y11425D01*
X61358Y11754D01*
X61837Y12163D01*
X62246Y12642D01*
X62575Y13178D01*
X62816Y13760D01*
X62963Y14372D01*
X63000Y15000D01*
X62963Y15628D01*
X62816Y16240D01*
X62575Y16822D01*
X62246Y17358D01*
X61837Y17837D01*
X61358Y18246D01*
X60822Y18575D01*
X60240Y18816D01*
X59628Y18963D01*
X59000Y19012D01*
X58372Y18963D01*
X57994Y18872D01*
Y21500D01*
G37*
G36*
X76909Y45501D02*X77500Y45502D01*
Y43621D01*
X76909Y43031D01*
Y45501D01*
G37*
G36*
Y27501D02*X82157Y27509D01*
X82310Y27546D01*
X82455Y27606D01*
X82590Y27688D01*
X82709Y27791D01*
X82812Y27910D01*
X82894Y28045D01*
X82954Y28190D01*
X82991Y28343D01*
X83000Y28500D01*
X82997Y30500D01*
X84379D01*
X86950Y27929D01*
Y25017D01*
X86651Y25272D01*
X86275Y25503D01*
X85868Y25671D01*
X85439Y25774D01*
X85000Y25809D01*
X84561Y25774D01*
X84132Y25671D01*
X83725Y25503D01*
X83349Y25272D01*
X83014Y24986D01*
X82728Y24651D01*
X82635Y24500D01*
X76909D01*
Y27501D01*
G37*
G36*
Y63501D02*X82157Y63509D01*
X82310Y63546D01*
X82455Y63606D01*
X82590Y63688D01*
X82709Y63791D01*
X82812Y63910D01*
X82894Y64045D01*
X82954Y64190D01*
X82991Y64343D01*
X83000Y64500D01*
X82997Y66500D01*
X85941D01*
X86000Y66495D01*
X86235Y66514D01*
X86235Y66514D01*
X86465Y66569D01*
X86683Y66659D01*
X86884Y66783D01*
X86950Y66839D01*
Y32171D01*
X86102Y33019D01*
X86064Y33064D01*
X85884Y33217D01*
X85683Y33341D01*
X85465Y33431D01*
X85235Y33486D01*
X85235Y33486D01*
X85000Y33505D01*
X84941Y33500D01*
X82994D01*
X82991Y35657D01*
X82954Y35810D01*
X82894Y35955D01*
X82812Y36090D01*
X82709Y36209D01*
X82590Y36312D01*
X82455Y36394D01*
X82310Y36454D01*
X82157Y36491D01*
X82000Y36500D01*
X76909Y36492D01*
Y39500D01*
X76941D01*
X77000Y39495D01*
X77235Y39514D01*
X77235Y39514D01*
X77465Y39569D01*
X77683Y39659D01*
X77884Y39783D01*
X78064Y39936D01*
X78102Y39981D01*
X80019Y41898D01*
X80064Y41936D01*
X80217Y42115D01*
X80217Y42116D01*
X80341Y42317D01*
X80431Y42535D01*
X80486Y42765D01*
X80505Y43000D01*
X80500Y43059D01*
Y45507D01*
X82157Y45509D01*
X82310Y45546D01*
X82455Y45606D01*
X82590Y45688D01*
X82709Y45791D01*
X82812Y45910D01*
X82894Y46045D01*
X82954Y46190D01*
X82991Y46343D01*
X83000Y46500D01*
X82991Y53657D01*
X82954Y53810D01*
X82894Y53955D01*
X82812Y54090D01*
X82709Y54209D01*
X82590Y54312D01*
X82455Y54394D01*
X82310Y54454D01*
X82157Y54491D01*
X82000Y54500D01*
X76909Y54492D01*
Y63501D01*
G37*
G36*
X81994Y91500D02*X82635D01*
X82728Y91349D01*
X83014Y91014D01*
X83349Y90728D01*
X83725Y90497D01*
X84132Y90329D01*
X84561Y90226D01*
X85000Y90191D01*
X85439Y90226D01*
X85868Y90329D01*
X86275Y90497D01*
X86651Y90728D01*
X86950Y90983D01*
Y71071D01*
X85379Y69500D01*
X82994D01*
X82991Y71657D01*
X82954Y71810D01*
X82894Y71955D01*
X82812Y72090D01*
X82709Y72209D01*
X82590Y72312D01*
X82455Y72394D01*
X82310Y72454D01*
X82157Y72491D01*
X82000Y72500D01*
X81994Y72500D01*
Y72988D01*
X82000Y72988D01*
X82628Y73037D01*
X83240Y73184D01*
X83822Y73425D01*
X84358Y73754D01*
X84837Y74163D01*
X85246Y74642D01*
X85575Y75178D01*
X85816Y75760D01*
X85963Y76372D01*
X86000Y77000D01*
X85963Y77628D01*
X85816Y78240D01*
X85575Y78822D01*
X85246Y79358D01*
X84837Y79837D01*
X84358Y80246D01*
X83822Y80575D01*
X83240Y80816D01*
X82628Y80963D01*
X82000Y81012D01*
X81994Y81012D01*
Y81509D01*
X82157Y81509D01*
X82310Y81546D01*
X82455Y81606D01*
X82590Y81688D01*
X82709Y81791D01*
X82812Y81910D01*
X82894Y82045D01*
X82954Y82190D01*
X82991Y82343D01*
X83000Y82500D01*
X82991Y89657D01*
X82954Y89810D01*
X82894Y89955D01*
X82812Y90090D01*
X82709Y90209D01*
X82590Y90312D01*
X82455Y90394D01*
X82310Y90454D01*
X82157Y90491D01*
X82000Y90500D01*
X81994Y90500D01*
Y91500D01*
G37*
G36*
Y72500D02*X76909Y72492D01*
Y76142D01*
X76967Y76456D01*
X77000Y76818D01*
Y77182D01*
X76967Y77544D01*
X76909Y77858D01*
Y81501D01*
X81994Y81509D01*
Y81012D01*
X81372Y80963D01*
X80760Y80816D01*
X80178Y80575D01*
X79642Y80246D01*
X79163Y79837D01*
X78754Y79358D01*
X78425Y78822D01*
X78184Y78240D01*
X78037Y77628D01*
X77988Y77000D01*
X78037Y76372D01*
X78184Y75760D01*
X78425Y75178D01*
X78754Y74642D01*
X79163Y74163D01*
X79642Y73754D01*
X80178Y73425D01*
X80760Y73184D01*
X81372Y73037D01*
X81994Y72988D01*
Y72500D01*
G37*
G36*
X76909Y91500D02*X81994D01*
Y90500D01*
X76909Y90492D01*
Y91500D01*
G37*
G36*
Y36492D02*X75843Y36491D01*
X75690Y36454D01*
X75545Y36394D01*
X75410Y36312D01*
X75291Y36209D01*
X75188Y36090D01*
X75106Y35955D01*
X75046Y35810D01*
X75009Y35657D01*
X75000Y35500D01*
X75009Y28343D01*
X75046Y28190D01*
X75106Y28045D01*
X75188Y27910D01*
X75291Y27791D01*
X75410Y27688D01*
X75545Y27606D01*
X75690Y27546D01*
X75843Y27509D01*
X76000Y27500D01*
X76909Y27501D01*
Y24500D01*
X74500D01*
Y38379D01*
X75621Y39500D01*
X76909D01*
Y36492D01*
G37*
G36*
X73002Y75495D02*X73235Y75514D01*
X73465Y75569D01*
X73683Y75659D01*
X73884Y75783D01*
X74064Y75936D01*
X74217Y76116D01*
X74341Y76317D01*
X74431Y76535D01*
X74486Y76765D01*
X74500Y77000D01*
Y79379D01*
X74694Y79572D01*
X74741Y79575D01*
X74818Y79591D01*
X74892Y79619D01*
X74960Y79658D01*
X75021Y79707D01*
X75074Y79766D01*
X75117Y79832D01*
X75149Y79904D01*
X75170Y79980D01*
X75178Y80057D01*
X76622Y81501D01*
X76909Y81501D01*
Y77858D01*
X76901Y77902D01*
X76803Y78252D01*
X76674Y78592D01*
X76515Y78919D01*
X76472Y78985D01*
X76419Y79044D01*
X76357Y79094D01*
X76288Y79133D01*
X76214Y79161D01*
X76137Y79177D01*
X76058Y79181D01*
X75979Y79173D01*
X75903Y79152D01*
X75830Y79120D01*
X75764Y79077D01*
X75705Y79024D01*
X75656Y78962D01*
X75616Y78893D01*
X75588Y78819D01*
X75572Y78742D01*
X75568Y78663D01*
X75576Y78584D01*
X75597Y78507D01*
X75630Y78436D01*
X75753Y78193D01*
X75850Y77938D01*
X75923Y77676D01*
X75972Y77408D01*
X75997Y77136D01*
Y76864D01*
X75972Y76592D01*
X75923Y76324D01*
X75850Y76062D01*
X75753Y75807D01*
X75633Y75563D01*
X75600Y75491D01*
X75579Y75416D01*
X75571Y75337D01*
X75575Y75259D01*
X75591Y75182D01*
X75619Y75108D01*
X75658Y75040D01*
X75707Y74979D01*
X75766Y74926D01*
X75832Y74883D01*
X75904Y74851D01*
X75980Y74830D01*
X76058Y74822D01*
X76136Y74826D01*
X76213Y74842D01*
X76287Y74870D01*
X76355Y74909D01*
X76416Y74958D01*
X76469Y75017D01*
X76511Y75083D01*
X76674Y75408D01*
X76803Y75748D01*
X76901Y76098D01*
X76909Y76142D01*
Y72492D01*
X75843Y72491D01*
X75690Y72454D01*
X75545Y72394D01*
X75410Y72312D01*
X75291Y72209D01*
X75188Y72090D01*
X75106Y71955D01*
X75046Y71810D01*
X75009Y71657D01*
X75000Y71500D01*
X75009Y64343D01*
X75046Y64190D01*
X75106Y64045D01*
X75188Y63910D01*
X75291Y63791D01*
X75410Y63688D01*
X75545Y63606D01*
X75690Y63546D01*
X75843Y63509D01*
X76000Y63500D01*
X76909Y63501D01*
Y54492D01*
X75843Y54491D01*
X75690Y54454D01*
X75545Y54394D01*
X75410Y54312D01*
X75291Y54209D01*
X75188Y54090D01*
X75106Y53955D01*
X75046Y53810D01*
X75009Y53657D01*
X75000Y53500D01*
X75009Y46343D01*
X75046Y46190D01*
X75106Y46045D01*
X75188Y45910D01*
X75291Y45791D01*
X75410Y45688D01*
X75545Y45606D01*
X75690Y45546D01*
X75843Y45509D01*
X76000Y45500D01*
X76909Y45501D01*
Y43031D01*
X76379Y42500D01*
X75059D01*
X75000Y42505D01*
X74765Y42486D01*
X74535Y42431D01*
X74317Y42341D01*
X74116Y42217D01*
X74115Y42217D01*
X73936Y42064D01*
X73898Y42019D01*
X73002Y41123D01*
Y73000D01*
X73182D01*
X73544Y73033D01*
X73902Y73099D01*
X74252Y73197D01*
X74592Y73326D01*
X74919Y73485D01*
X74985Y73528D01*
X75044Y73581D01*
X75094Y73643D01*
X75133Y73712D01*
X75161Y73786D01*
X75177Y73863D01*
X75181Y73942D01*
X75173Y74021D01*
X75152Y74097D01*
X75120Y74170D01*
X75077Y74236D01*
X75024Y74295D01*
X74962Y74344D01*
X74893Y74384D01*
X74819Y74412D01*
X74742Y74428D01*
X74663Y74432D01*
X74584Y74424D01*
X74507Y74403D01*
X74436Y74370D01*
X74193Y74247D01*
X73938Y74150D01*
X73676Y74077D01*
X73408Y74028D01*
X73136Y74003D01*
X73002D01*
Y75495D01*
G37*
G36*
Y91500D02*X76909D01*
Y90492D01*
X75843Y90491D01*
X75690Y90454D01*
X75545Y90394D01*
X75410Y90312D01*
X75291Y90209D01*
X75188Y90090D01*
X75106Y89955D01*
X75046Y89810D01*
X75009Y89657D01*
X75000Y89500D01*
X75007Y84128D01*
X73002Y82123D01*
Y91500D01*
G37*
G36*
X69716Y81509D02*X70157Y81509D01*
X70310Y81546D01*
X70455Y81606D01*
X70590Y81688D01*
X70709Y81791D01*
X70812Y81910D01*
X70894Y82045D01*
X70954Y82190D01*
X70991Y82343D01*
X71000Y82500D01*
X70991Y89657D01*
X70954Y89810D01*
X70894Y89955D01*
X70812Y90090D01*
X70709Y90209D01*
X70590Y90312D01*
X70455Y90394D01*
X70310Y90454D01*
X70157Y90491D01*
X70000Y90500D01*
X69716Y90500D01*
Y91500D01*
X73002D01*
Y82123D01*
X71981Y81102D01*
X71936Y81064D01*
X71783Y80884D01*
X71729Y80796D01*
X71408Y80674D01*
X71081Y80515D01*
X71015Y80472D01*
X70956Y80419D01*
X70906Y80357D01*
X70867Y80288D01*
X70839Y80214D01*
X70823Y80137D01*
X70819Y80058D01*
X70827Y79979D01*
X70848Y79903D01*
X70880Y79830D01*
X70923Y79764D01*
X70976Y79705D01*
X71038Y79656D01*
X71107Y79616D01*
X71181Y79588D01*
X71258Y79572D01*
X71337Y79568D01*
X71416Y79576D01*
X71493Y79597D01*
X71500Y79600D01*
Y77000D01*
X71514Y76765D01*
X71569Y76535D01*
X71659Y76317D01*
X71783Y76116D01*
X71936Y75936D01*
X72116Y75783D01*
X72317Y75659D01*
X72535Y75569D01*
X72765Y75514D01*
X73000Y75495D01*
X73002Y75495D01*
Y74003D01*
X72864D01*
X72592Y74028D01*
X72324Y74077D01*
X72062Y74150D01*
X71807Y74247D01*
X71563Y74367D01*
X71491Y74400D01*
X71415Y74421D01*
X71337Y74429D01*
X71259Y74425D01*
X71182Y74409D01*
X71108Y74381D01*
X71040Y74342D01*
X70979Y74293D01*
X70926Y74234D01*
X70883Y74168D01*
X70851Y74096D01*
X70830Y74020D01*
X70822Y73942D01*
X70826Y73864D01*
X70842Y73787D01*
X70870Y73713D01*
X70909Y73645D01*
X70958Y73584D01*
X71017Y73531D01*
X71083Y73489D01*
X71408Y73326D01*
X71748Y73197D01*
X72098Y73099D01*
X72456Y73033D01*
X72818Y73000D01*
X73002D01*
Y41123D01*
X71981Y40102D01*
X71936Y40064D01*
X71783Y39884D01*
X71659Y39683D01*
X71569Y39465D01*
X71514Y39235D01*
X71514Y39235D01*
X71495Y39000D01*
X71500Y38941D01*
Y24500D01*
X69716D01*
Y27509D01*
X70157Y27509D01*
X70310Y27546D01*
X70455Y27606D01*
X70590Y27688D01*
X70709Y27791D01*
X70812Y27910D01*
X70894Y28045D01*
X70954Y28190D01*
X70991Y28343D01*
X71000Y28500D01*
X70991Y35657D01*
X70954Y35810D01*
X70894Y35955D01*
X70812Y36090D01*
X70709Y36209D01*
X70590Y36312D01*
X70455Y36394D01*
X70310Y36454D01*
X70157Y36491D01*
X70000Y36500D01*
X69716Y36500D01*
Y40320D01*
X69774Y40561D01*
X69800Y41000D01*
X69774Y41439D01*
X69716Y41680D01*
Y45509D01*
X70157Y45509D01*
X70310Y45546D01*
X70455Y45606D01*
X70590Y45688D01*
X70709Y45791D01*
X70812Y45910D01*
X70894Y46045D01*
X70954Y46190D01*
X70991Y46343D01*
X71000Y46500D01*
X70991Y53657D01*
X70954Y53810D01*
X70894Y53955D01*
X70812Y54090D01*
X70709Y54209D01*
X70590Y54312D01*
X70455Y54394D01*
X70310Y54454D01*
X70157Y54491D01*
X70000Y54500D01*
X69716Y54500D01*
Y56060D01*
X69837Y56163D01*
X70246Y56642D01*
X70575Y57178D01*
X70816Y57760D01*
X70963Y58372D01*
X71000Y59000D01*
X70963Y59628D01*
X70816Y60240D01*
X70575Y60822D01*
X70246Y61358D01*
X69837Y61837D01*
X69716Y61940D01*
Y63509D01*
X70157Y63509D01*
X70310Y63546D01*
X70455Y63606D01*
X70590Y63688D01*
X70709Y63791D01*
X70812Y63910D01*
X70894Y64045D01*
X70954Y64190D01*
X70991Y64343D01*
X71000Y64500D01*
X70991Y71657D01*
X70954Y71810D01*
X70894Y71955D01*
X70812Y72090D01*
X70709Y72209D01*
X70590Y72312D01*
X70455Y72394D01*
X70310Y72454D01*
X70157Y72491D01*
X70000Y72500D01*
X69716Y72500D01*
Y74865D01*
X69786Y74839D01*
X69863Y74823D01*
X69942Y74819D01*
X70021Y74827D01*
X70097Y74848D01*
X70170Y74880D01*
X70236Y74923D01*
X70295Y74976D01*
X70344Y75038D01*
X70384Y75107D01*
X70412Y75181D01*
X70428Y75258D01*
X70432Y75337D01*
X70424Y75416D01*
X70403Y75493D01*
X70370Y75564D01*
X70247Y75807D01*
X70150Y76062D01*
X70077Y76324D01*
X70028Y76592D01*
X70003Y76864D01*
Y77136D01*
X70028Y77408D01*
X70077Y77676D01*
X70150Y77938D01*
X70247Y78193D01*
X70367Y78437D01*
X70400Y78509D01*
X70421Y78585D01*
X70429Y78663D01*
X70425Y78741D01*
X70409Y78818D01*
X70381Y78892D01*
X70342Y78960D01*
X70293Y79021D01*
X70234Y79074D01*
X70168Y79117D01*
X70096Y79149D01*
X70020Y79170D01*
X69942Y79178D01*
X69864Y79174D01*
X69787Y79158D01*
X69716Y79131D01*
Y81509D01*
G37*
G36*
Y61940D02*X69358Y62246D01*
X68822Y62575D01*
X68500Y62708D01*
Y63507D01*
X69716Y63509D01*
Y61940D01*
G37*
G36*
Y54500D02*X66994Y54495D01*
Y54988D01*
X67000Y54988D01*
X67628Y55037D01*
X68240Y55184D01*
X68822Y55425D01*
X69358Y55754D01*
X69716Y56060D01*
Y54500D01*
G37*
G36*
Y41680D02*X69671Y41868D01*
X69503Y42275D01*
X69272Y42651D01*
X68986Y42986D01*
X68651Y43272D01*
X68500Y43365D01*
Y45507D01*
X69716Y45509D01*
Y41680D01*
G37*
G36*
Y36500D02*X66994Y36495D01*
Y38192D01*
X67000Y38191D01*
X67439Y38226D01*
X67868Y38329D01*
X68275Y38497D01*
X68651Y38728D01*
X68986Y39014D01*
X69272Y39349D01*
X69503Y39725D01*
X69671Y40132D01*
X69716Y40320D01*
Y36500D01*
G37*
G36*
Y24500D02*X66994D01*
Y27505D01*
X69716Y27509D01*
Y24500D01*
G37*
G36*
Y90500D02*X68500Y90498D01*
Y91379D01*
X68621Y91500D01*
X69716D01*
Y90500D01*
G37*
G36*
X66994Y81505D02*X69716Y81509D01*
Y79131D01*
X69713Y79130D01*
X69645Y79091D01*
X69584Y79042D01*
X69531Y78983D01*
X69489Y78917D01*
X69326Y78592D01*
X69197Y78252D01*
X69099Y77902D01*
X69033Y77544D01*
X69000Y77182D01*
Y76818D01*
X69033Y76456D01*
X69099Y76098D01*
X69197Y75748D01*
X69326Y75408D01*
X69485Y75081D01*
X69528Y75015D01*
X69581Y74956D01*
X69643Y74906D01*
X69712Y74867D01*
X69716Y74865D01*
Y72500D01*
X66994Y72495D01*
Y81505D01*
G37*
G36*
Y100000D02*X86950D01*
Y95017D01*
X86651Y95272D01*
X86275Y95503D01*
X85868Y95671D01*
X85439Y95774D01*
X85000Y95809D01*
X84561Y95774D01*
X84132Y95671D01*
X83725Y95503D01*
X83349Y95272D01*
X83014Y94986D01*
X82728Y94651D01*
X82635Y94500D01*
X68059D01*
X68000Y94505D01*
X67765Y94486D01*
X67535Y94431D01*
X67317Y94341D01*
X67116Y94217D01*
X67115Y94217D01*
X66994Y94113D01*
Y100000D01*
G37*
G36*
Y24500D02*X57994D01*
Y35824D01*
X63006Y30812D01*
X63009Y28343D01*
X63046Y28190D01*
X63106Y28045D01*
X63188Y27910D01*
X63291Y27791D01*
X63410Y27688D01*
X63545Y27606D01*
X63690Y27546D01*
X63843Y27509D01*
X64000Y27500D01*
X66994Y27505D01*
Y24500D01*
G37*
G36*
X57994Y100000D02*X66994D01*
Y94113D01*
X66936Y94064D01*
X66898Y94019D01*
X65981Y93102D01*
X65936Y93064D01*
X65783Y92884D01*
X65659Y92683D01*
X65569Y92465D01*
X65514Y92235D01*
X65514Y92235D01*
X65495Y92000D01*
X65500Y91941D01*
Y90493D01*
X63843Y90491D01*
X63690Y90454D01*
X63545Y90394D01*
X63410Y90312D01*
X63291Y90209D01*
X63188Y90090D01*
X63106Y89955D01*
X63046Y89810D01*
X63009Y89657D01*
X63000Y89500D01*
X63009Y82343D01*
X63046Y82190D01*
X63106Y82045D01*
X63188Y81910D01*
X63291Y81791D01*
X63410Y81688D01*
X63545Y81606D01*
X63690Y81546D01*
X63843Y81509D01*
X64000Y81500D01*
X66994Y81505D01*
Y72495D01*
X63843Y72491D01*
X63690Y72454D01*
X63545Y72394D01*
X63410Y72312D01*
X63291Y72209D01*
X63188Y72090D01*
X63106Y71955D01*
X63046Y71810D01*
X63009Y71657D01*
X63000Y71500D01*
X63009Y64343D01*
X63046Y64190D01*
X63106Y64045D01*
X63188Y63910D01*
X63291Y63791D01*
X63410Y63688D01*
X63545Y63606D01*
X63690Y63546D01*
X63843Y63509D01*
X64000Y63500D01*
X65500Y63502D01*
Y62708D01*
X65178Y62575D01*
X64642Y62246D01*
X64163Y61837D01*
X63754Y61358D01*
X63425Y60822D01*
X63184Y60240D01*
X63037Y59628D01*
X62988Y59000D01*
X63037Y58372D01*
X63184Y57760D01*
X63425Y57178D01*
X63754Y56642D01*
X64163Y56163D01*
X64642Y55754D01*
X65178Y55425D01*
X65760Y55184D01*
X66372Y55037D01*
X66994Y54988D01*
Y54495D01*
X63843Y54491D01*
X63690Y54454D01*
X63545Y54394D01*
X63410Y54312D01*
X63291Y54209D01*
X63188Y54090D01*
X63106Y53955D01*
X63046Y53810D01*
X63009Y53657D01*
X63000Y53500D01*
X63009Y46343D01*
X63046Y46190D01*
X63106Y46045D01*
X63188Y45910D01*
X63291Y45791D01*
X63410Y45688D01*
X63545Y45606D01*
X63690Y45546D01*
X63843Y45509D01*
X64000Y45500D01*
X65500Y45502D01*
Y43365D01*
X65349Y43272D01*
X65014Y42986D01*
X64728Y42651D01*
X64497Y42275D01*
X64329Y41868D01*
X64226Y41439D01*
X64191Y41000D01*
X64226Y40561D01*
X64329Y40132D01*
X64497Y39725D01*
X64728Y39349D01*
X65014Y39014D01*
X65349Y38728D01*
X65725Y38497D01*
X66132Y38329D01*
X66561Y38226D01*
X66994Y38192D01*
Y36495D01*
X63843Y36491D01*
X63721Y36461D01*
X59250Y40932D01*
Y52912D01*
X59257Y53000D01*
X59229Y53353D01*
X59146Y53697D01*
X59107Y53793D01*
X59011Y54025D01*
X58896Y54212D01*
X58826Y54327D01*
X58826Y54327D01*
X58596Y54596D01*
X58529Y54653D01*
X57994Y55188D01*
Y100000D01*
G37*
G36*
X49000Y10988D02*X49628Y11037D01*
X50240Y11184D01*
X50822Y11425D01*
X51358Y11754D01*
X51837Y12163D01*
X52246Y12642D01*
X52575Y13178D01*
X52816Y13760D01*
X52963Y14372D01*
X53000Y15000D01*
X52963Y15628D01*
X52816Y16240D01*
X52683Y16561D01*
X57621Y21500D01*
X57994D01*
Y18872D01*
X57760Y18816D01*
X57178Y18575D01*
X56642Y18246D01*
X56163Y17837D01*
X55754Y17358D01*
X55425Y16822D01*
X55184Y16240D01*
X55037Y15628D01*
X54988Y15000D01*
X55037Y14372D01*
X55184Y13760D01*
X55425Y13178D01*
X55754Y12642D01*
X56163Y12163D01*
X56642Y11754D01*
X57178Y11425D01*
X57760Y11184D01*
X57994Y11128D01*
Y2000D01*
X49000D01*
Y10988D01*
G37*
G36*
X52500Y52750D02*X54068D01*
X54750Y52068D01*
Y40088D01*
X54743Y40000D01*
X54771Y39647D01*
X54854Y39303D01*
X54989Y38975D01*
X55174Y38673D01*
X55174Y38673D01*
X55404Y38404D01*
X55471Y38347D01*
X57994Y35824D01*
Y24500D01*
X57059D01*
X57000Y24505D01*
X56765Y24486D01*
X56535Y24431D01*
X56317Y24341D01*
X56116Y24217D01*
X56115Y24217D01*
X55936Y24064D01*
X55898Y24019D01*
X52500Y20621D01*
Y32498D01*
X52578Y32505D01*
X52655Y32523D01*
X52728Y32553D01*
X52795Y32594D01*
X52855Y32645D01*
X52906Y32705D01*
X52947Y32772D01*
X52977Y32845D01*
X52995Y32922D01*
X53000Y33000D01*
Y37000D01*
X52995Y37078D01*
X52977Y37155D01*
X52947Y37228D01*
X52906Y37295D01*
X52855Y37355D01*
X52795Y37406D01*
X52728Y37447D01*
X52655Y37477D01*
X52578Y37495D01*
X52500Y37502D01*
Y43056D01*
X52575Y43178D01*
X52816Y43760D01*
X52963Y44372D01*
X53000Y45000D01*
X52963Y45628D01*
X52816Y46240D01*
X52575Y46822D01*
X52500Y46944D01*
Y52750D01*
G37*
G36*
Y20621D02*X50561Y18683D01*
X50240Y18816D01*
X49628Y18963D01*
X49000Y19012D01*
Y31000D01*
X51000D01*
X51078Y31005D01*
X51155Y31023D01*
X51228Y31053D01*
X51295Y31094D01*
X51355Y31145D01*
X51406Y31205D01*
X51447Y31272D01*
X51477Y31345D01*
X51495Y31422D01*
X51502Y31500D01*
X51495Y31578D01*
X51477Y31655D01*
X51447Y31728D01*
X51406Y31795D01*
X51355Y31855D01*
X51295Y31906D01*
X51228Y31947D01*
X51155Y31977D01*
X51078Y31995D01*
X51000Y32000D01*
X49000D01*
Y38000D01*
X51000D01*
X51078Y38005D01*
X51155Y38023D01*
X51228Y38053D01*
X51295Y38094D01*
X51355Y38145D01*
X51406Y38205D01*
X51447Y38272D01*
X51477Y38345D01*
X51495Y38422D01*
X51502Y38500D01*
X51495Y38578D01*
X51477Y38655D01*
X51447Y38728D01*
X51406Y38795D01*
X51355Y38855D01*
X51295Y38906D01*
X51228Y38947D01*
X51155Y38977D01*
X51078Y38995D01*
X51000Y39000D01*
X49000D01*
Y40988D01*
X49628Y41037D01*
X50240Y41184D01*
X50822Y41425D01*
X51358Y41754D01*
X51837Y42163D01*
X52246Y42642D01*
X52500Y43056D01*
Y37502D01*
X52422Y37495D01*
X52345Y37477D01*
X52272Y37447D01*
X52205Y37406D01*
X52145Y37355D01*
X52094Y37295D01*
X52053Y37228D01*
X52023Y37155D01*
X52005Y37078D01*
X52000Y37000D01*
Y33000D01*
X52005Y32922D01*
X52023Y32845D01*
X52053Y32772D01*
X52094Y32705D01*
X52145Y32645D01*
X52205Y32594D01*
X52272Y32553D01*
X52345Y32523D01*
X52422Y32505D01*
X52500Y32498D01*
Y20621D01*
G37*
G36*
X49000Y50988D02*X49628Y51037D01*
X50240Y51184D01*
X50822Y51425D01*
X51358Y51754D01*
X51837Y52163D01*
X52246Y52642D01*
X52312Y52750D01*
X52500D01*
Y46944D01*
X52246Y47358D01*
X51837Y47837D01*
X51358Y48246D01*
X50822Y48575D01*
X50240Y48816D01*
X49628Y48963D01*
X49000Y49012D01*
Y50988D01*
G37*
G36*
Y100000D02*X57994D01*
Y55188D01*
X56653Y56529D01*
X56596Y56596D01*
X56327Y56826D01*
X56025Y57011D01*
X55697Y57146D01*
X55353Y57229D01*
X55353Y57229D01*
X55000Y57257D01*
X54912Y57250D01*
X52312D01*
X52246Y57358D01*
X51837Y57837D01*
X51358Y58246D01*
X51250Y58312D01*
Y71805D01*
X51299Y71835D01*
X51766Y72234D01*
X52165Y72701D01*
X52486Y73224D01*
X52721Y73791D01*
X52864Y74388D01*
X52900Y75000D01*
X52864Y75612D01*
X52721Y76209D01*
X52486Y76776D01*
X52165Y77299D01*
X51766Y77766D01*
X51299Y78165D01*
X50776Y78486D01*
X50209Y78721D01*
X49612Y78864D01*
X49000Y78912D01*
Y81104D01*
X52141Y81108D01*
X52279Y81141D01*
X52410Y81196D01*
X52531Y81270D01*
X52638Y81362D01*
X52730Y81469D01*
X52804Y81590D01*
X52859Y81721D01*
X52892Y81859D01*
X52900Y82000D01*
X52892Y88141D01*
X52859Y88279D01*
X52804Y88410D01*
X52730Y88531D01*
X52638Y88638D01*
X52531Y88730D01*
X52410Y88804D01*
X52279Y88859D01*
X52141Y88892D01*
X52000Y88900D01*
X49000Y88896D01*
Y100000D01*
G37*
G36*
X45500Y13056D02*X45754Y12642D01*
X46163Y12163D01*
X46642Y11754D01*
X47178Y11425D01*
X47760Y11184D01*
X48372Y11037D01*
X49000Y10988D01*
X49000D01*
Y2000D01*
X45500D01*
Y13056D01*
G37*
G36*
Y43056D02*X45754Y42642D01*
X46163Y42163D01*
X46642Y41754D01*
X47178Y41425D01*
X47760Y41184D01*
X48372Y41037D01*
X49000Y40988D01*
X49000D01*
Y39000D01*
X47000D01*
X46922Y38995D01*
X46845Y38977D01*
X46772Y38947D01*
X46705Y38906D01*
X46645Y38855D01*
X46594Y38795D01*
X46553Y38728D01*
X46523Y38655D01*
X46505Y38578D01*
X46498Y38500D01*
X46505Y38422D01*
X46523Y38345D01*
X46553Y38272D01*
X46594Y38205D01*
X46645Y38145D01*
X46705Y38094D01*
X46772Y38053D01*
X46845Y38023D01*
X46922Y38005D01*
X47000Y38000D01*
X49000D01*
Y32000D01*
X47000D01*
X46922Y31995D01*
X46845Y31977D01*
X46772Y31947D01*
X46705Y31906D01*
X46645Y31855D01*
X46594Y31795D01*
X46553Y31728D01*
X46523Y31655D01*
X46505Y31578D01*
X46498Y31500D01*
X46505Y31422D01*
X46523Y31345D01*
X46553Y31272D01*
X46594Y31205D01*
X46645Y31145D01*
X46705Y31094D01*
X46772Y31053D01*
X46845Y31023D01*
X46922Y31005D01*
X47000Y31000D01*
X49000D01*
Y19012D01*
X49000D01*
X48372Y18963D01*
X47760Y18816D01*
X47178Y18575D01*
X46642Y18246D01*
X46163Y17837D01*
X45754Y17358D01*
X45500Y16944D01*
Y32498D01*
X45578Y32505D01*
X45655Y32523D01*
X45728Y32553D01*
X45795Y32594D01*
X45855Y32645D01*
X45906Y32705D01*
X45947Y32772D01*
X45977Y32845D01*
X45995Y32922D01*
X46000Y33000D01*
Y37000D01*
X45995Y37078D01*
X45977Y37155D01*
X45947Y37228D01*
X45906Y37295D01*
X45855Y37355D01*
X45795Y37406D01*
X45728Y37447D01*
X45655Y37477D01*
X45578Y37495D01*
X45500Y37502D01*
Y43056D01*
G37*
G36*
Y53056D02*X45754Y52642D01*
X46163Y52163D01*
X46642Y51754D01*
X47178Y51425D01*
X47760Y51184D01*
X48372Y51037D01*
X49000Y50988D01*
X49000D01*
Y49012D01*
X49000D01*
X48372Y48963D01*
X47760Y48816D01*
X47178Y48575D01*
X46642Y48246D01*
X46163Y47837D01*
X45754Y47358D01*
X45500Y46944D01*
Y53056D01*
G37*
G36*
Y73259D02*X45514Y73224D01*
X45835Y72701D01*
X46234Y72234D01*
X46701Y71835D01*
X46750Y71805D01*
Y58312D01*
X46642Y58246D01*
X46163Y57837D01*
X45754Y57358D01*
X45500Y56944D01*
Y73259D01*
G37*
G36*
Y81251D02*X45590Y81196D01*
X45721Y81141D01*
X45859Y81108D01*
X46000Y81100D01*
X49000Y81104D01*
Y78912D01*
X49000D01*
X48388Y78864D01*
X47791Y78721D01*
X47224Y78486D01*
X46701Y78165D01*
X46234Y77766D01*
X45835Y77299D01*
X45514Y76776D01*
X45500Y76741D01*
Y81251D01*
G37*
G36*
Y100000D02*X49000D01*
Y88896D01*
X45859Y88892D01*
X45721Y88859D01*
X45590Y88804D01*
X45500Y88749D01*
Y100000D01*
G37*
G36*
X22974D02*X45500D01*
Y88749D01*
X45469Y88730D01*
X45362Y88638D01*
X45270Y88531D01*
X45196Y88410D01*
X45141Y88279D01*
X45108Y88141D01*
X45100Y88000D01*
X45108Y81859D01*
X45141Y81721D01*
X45196Y81590D01*
X45270Y81469D01*
X45362Y81362D01*
X45469Y81270D01*
X45500Y81251D01*
Y76741D01*
X45279Y76209D01*
X45136Y75612D01*
X45088Y75000D01*
X45136Y74388D01*
X45279Y73791D01*
X45500Y73259D01*
Y56944D01*
X45425Y56822D01*
X45184Y56240D01*
X45037Y55628D01*
X44988Y55000D01*
X45037Y54372D01*
X45184Y53760D01*
X45425Y53178D01*
X45500Y53056D01*
Y46944D01*
X45425Y46822D01*
X45184Y46240D01*
X45037Y45628D01*
X44988Y45000D01*
X45037Y44372D01*
X45184Y43760D01*
X45425Y43178D01*
X45500Y43056D01*
Y37502D01*
X45422Y37495D01*
X45345Y37477D01*
X45272Y37447D01*
X45205Y37406D01*
X45145Y37355D01*
X45094Y37295D01*
X45053Y37228D01*
X45023Y37155D01*
X45005Y37078D01*
X45000Y37000D01*
Y33000D01*
X45005Y32922D01*
X45023Y32845D01*
X45053Y32772D01*
X45094Y32705D01*
X45145Y32645D01*
X45205Y32594D01*
X45272Y32553D01*
X45345Y32523D01*
X45422Y32505D01*
X45500Y32498D01*
Y16944D01*
X45425Y16822D01*
X45184Y16240D01*
X45037Y15628D01*
X44988Y15000D01*
X45037Y14372D01*
X45184Y13760D01*
X45425Y13178D01*
X45500Y13056D01*
Y2000D01*
X22974D01*
Y6401D01*
X23000Y6399D01*
X25597Y6603D01*
X28130Y7211D01*
X30537Y8208D01*
X32758Y9569D01*
X34739Y11261D01*
X36431Y13242D01*
X37792Y15463D01*
X38789Y17870D01*
X39397Y20403D01*
X39550Y23000D01*
X39397Y25597D01*
X38789Y28130D01*
X37792Y30537D01*
X36431Y32758D01*
X34739Y34739D01*
X32758Y36431D01*
X30537Y37792D01*
X28130Y38789D01*
X25597Y39397D01*
X23000Y39601D01*
X22974Y39599D01*
Y62401D01*
X23000Y62399D01*
X25597Y62603D01*
X28130Y63211D01*
X30537Y64208D01*
X32758Y65569D01*
X34739Y67261D01*
X36431Y69242D01*
X37792Y71463D01*
X38789Y73870D01*
X39397Y76403D01*
X39550Y79000D01*
X39397Y81597D01*
X38789Y84130D01*
X37792Y86537D01*
X36431Y88758D01*
X34739Y90739D01*
X32758Y92431D01*
X30537Y93792D01*
X28130Y94789D01*
X25597Y95397D01*
X23000Y95601D01*
X22974Y95599D01*
Y100000D01*
G37*
G36*
X2000D02*X22974D01*
Y95599D01*
X20403Y95397D01*
X17870Y94789D01*
X15463Y93792D01*
X13242Y92431D01*
X11261Y90739D01*
X9569Y88758D01*
X8208Y86537D01*
X7211Y84130D01*
X6603Y81597D01*
X6399Y79000D01*
X6603Y76403D01*
X7211Y73870D01*
X8208Y71463D01*
X9569Y69242D01*
X11261Y67261D01*
X13242Y65569D01*
X15463Y64208D01*
X17870Y63211D01*
X20403Y62603D01*
X22974Y62401D01*
Y39599D01*
X20403Y39397D01*
X17870Y38789D01*
X15463Y37792D01*
X13242Y36431D01*
X11261Y34739D01*
X9569Y32758D01*
X8208Y30537D01*
X7211Y28130D01*
X6603Y25597D01*
X6399Y23000D01*
X6603Y20403D01*
X7211Y17870D01*
X8208Y15463D01*
X9569Y13242D01*
X11261Y11261D01*
X13242Y9569D01*
X15463Y8208D01*
X17870Y7211D01*
X20403Y6603D01*
X22974Y6401D01*
Y2000D01*
X2000D01*
Y100000D01*
G37*
G54D22*X49000Y15000D02*X57000Y23000D01*
X85000D01*
X73000D02*Y39000D01*
G54D23*X67000Y32000D02*X65000D01*
X57000Y40000D01*
Y53000D01*
G54D22*X133000Y86000D02*Y79000D01*
Y50000D02*Y68000D01*
Y79000D02*X131000Y77000D01*
X151000Y75000D02*X145000Y69000D01*
X151000Y85000D02*X150000D01*
X133000Y68000D01*
X131000Y77000D02*X123000D01*
X121000Y75000D01*
Y86000D02*X116000D01*
X114000Y84000D01*
Y77000D01*
X121000Y75000D02*Y68000D01*
G54D23*X49000Y75000D02*Y55000D01*
G54D22*X79000Y68000D02*X86000D01*
X85000Y93000D02*X68000D01*
X67000Y92000D01*
Y86000D01*
X73000Y77000D02*Y80000D01*
X79000Y86000D01*
X86000Y68000D02*X95000Y77000D01*
Y85000D01*
Y50000D02*Y69000D01*
X67000Y59000D02*Y68000D01*
G54D23*X49000Y55000D02*X55000D01*
X57000Y53000D01*
G54D22*X73000Y39000D02*X75000Y41000D01*
X77000D01*
X79000Y43000D01*
Y50000D01*
Y32000D02*X85000D01*
X67000Y50000D02*Y41000D01*
X85000Y32000D02*X95000Y22000D01*
Y15000D01*
X104000Y41000D02*X95000Y50000D01*
X121000Y59000D02*Y50000D01*
X104000Y41000D02*X136000D01*
X145000Y69000D02*Y51000D01*
X151000Y45000D01*
X136000Y41000D02*X141000Y36000D01*
Y24000D01*
X132000Y15000D01*
X133000Y32000D02*X128000D01*
X127000Y31000D01*
Y15000D01*
X121000Y32000D02*Y20000D01*
X127000Y15000D02*X125000Y13000D01*
X117000D01*
X110000Y20000D01*
Y25000D01*
G54D24*X69000Y15000D03*
X59000D03*
X49000D03*
G54D21*G36*
X46000Y38000D02*Y32000D01*
X52000D01*
Y38000D01*
X46000D01*
G37*
G54D24*X49000Y55000D03*
Y45000D03*
Y75000D03*
G54D21*G36*
X46000Y88000D02*Y82000D01*
X52000D01*
Y88000D01*
X46000D01*
G37*
G54D24*X132000Y15000D03*
X142000D03*
X152000D03*
X105000D03*
X95000D03*
Y85000D03*
G54D21*G36*
X102000Y88000D02*Y82000D01*
X108000D01*
Y88000D01*
X102000D01*
G37*
G54D24*X151000Y45000D03*
G54D21*G36*
X148000Y38000D02*Y32000D01*
X154000D01*
Y38000D01*
X148000D01*
G37*
G54D24*X151000Y85000D03*
Y75000D03*
G54D21*G36*
X148000Y68000D02*Y62000D01*
X154000D01*
Y68000D01*
X148000D01*
G37*
G54D25*X121000Y86500D02*Y85500D01*
X133000Y86500D02*Y85500D01*
X121000Y68500D02*Y67500D01*
Y50500D02*Y49500D01*
Y32500D02*Y31500D01*
X133000Y68500D02*Y67500D01*
Y50500D02*Y49500D01*
Y32500D02*Y31500D01*
X67000Y50500D02*Y49500D01*
X79000Y50500D02*Y49500D01*
X67000Y32500D02*Y31500D01*
Y86500D02*Y85500D01*
X79000Y86500D02*Y85500D01*
X67000Y68500D02*Y67500D01*
X79000Y68500D02*Y67500D01*
Y32500D02*Y31500D01*
G54D26*X121000Y59000D03*
X114000Y77000D03*
X95000Y69000D03*
X85000Y93000D03*
G54D24*X105000Y70000D03*
G54D26*X67000Y41000D03*
G54D24*X73000Y77000D03*
X82000D03*
X67000Y59000D03*
G54D26*X85000Y23000D03*
X110000Y25000D03*
G54D24*X100000Y30000D03*
X121000Y20000D03*
G54D27*G54D28*G54D29*G54D28*G54D27*G54D29*G54D27*G54D29*G54D28*G54D29*G54D30*M02*
