G04 start of page 8 for group -4062 idx -4062 *
G04 Title: (unknown), soldermask *
G04 Creator: pcb 20140316 *
G04 CreationDate: Sat 19 Jul 2014 12:31:25 AM GMT UTC *
G04 For: visage *
G04 Format: Gerber/RS-274X *
G04 PCB-Dimensions (mil): 2010.00 1020.00 *
G04 PCB-Coordinate-Origin: lower left *
%MOIN*%
%FSLAX25Y25*%
%LNBOTTOMMASK*%
%ADD49R,0.0700X0.0700*%
%ADD48C,0.0800*%
%ADD47C,0.0560*%
%ADD46C,0.1260*%
%ADD45C,0.0660*%
%ADD44C,0.0001*%
%ADD43C,0.0700*%
G54D43*X69000Y15000D03*
X59000D03*
X49000D03*
G54D44*G36*
X45500Y38500D02*Y31500D01*
X52500D01*
Y38500D01*
X45500D01*
G37*
G54D43*X49000Y55000D03*
Y45000D03*
G54D45*Y75000D03*
G54D44*G36*
X45700Y88300D02*Y81700D01*
X52300D01*
Y88300D01*
X45700D01*
G37*
G54D43*X132000Y15000D03*
X142000D03*
X152000D03*
G54D45*X105000D03*
X95000D03*
Y85000D03*
G54D44*G36*
X101700Y88300D02*Y81700D01*
X108300D01*
Y88300D01*
X101700D01*
G37*
G54D45*X151000Y45000D03*
G54D44*G36*
X147700Y38300D02*Y31700D01*
X154300D01*
Y38300D01*
X147700D01*
G37*
G54D43*X151000Y85000D03*
Y75000D03*
G54D44*G36*
X147500Y68500D02*Y61500D01*
X154500D01*
Y68500D01*
X147500D01*
G37*
G54D46*X178000Y79000D03*
Y23000D03*
G54D47*X121000Y59000D03*
X114000Y77000D03*
X95000Y69000D03*
X85000Y93000D03*
G54D48*X105000Y70000D03*
G54D47*X67000Y41000D03*
G54D46*X23000Y23000D03*
G54D48*X73000Y77000D03*
G54D46*X23000Y79000D03*
G54D48*X82000Y77000D03*
X67000Y59000D03*
G54D47*X85000Y23000D03*
X110000Y25000D03*
G54D48*X100000Y30000D03*
X121000Y20000D03*
G54D49*Y86500D02*Y85500D01*
X133000Y86500D02*Y85500D01*
X121000Y68500D02*Y67500D01*
Y50500D02*Y49500D01*
Y32500D02*Y31500D01*
X133000Y68500D02*Y67500D01*
Y50500D02*Y49500D01*
Y32500D02*Y31500D01*
X67000Y50500D02*Y49500D01*
X79000Y50500D02*Y49500D01*
X67000Y32500D02*Y31500D01*
Y86500D02*Y85500D01*
X79000Y86500D02*Y85500D01*
X67000Y68500D02*Y67500D01*
X79000Y68500D02*Y67500D01*
Y32500D02*Y31500D01*
M02*
