G04 start of page 10 for group -4078 idx -4078 *
G04 Title: (unknown), bottomsilk *
G04 Creator: pcb 20140316 *
G04 CreationDate: Sat 19 Jul 2014 12:31:25 AM GMT UTC *
G04 For: visage *
G04 Format: Gerber/RS-274X *
G04 PCB-Dimensions (mil): 2010.00 1020.00 *
G04 PCB-Coordinate-Origin: lower left *
%MOIN*%
%FSLAX25Y25*%
%LNBOTTOMSILK*%
%ADD52C,0.0100*%
G54D52*X128000Y42500D02*X130000Y40000D01*
X128000Y42500D02*X130500D01*
X130000Y40000D02*Y44000D01*
X131700Y40000D02*Y44000D01*
Y42000D02*X133700Y40000D01*
X131700Y42000D02*X133700Y44000D01*
X135400D02*X137400Y40000D01*
X134900D02*X137400D01*
X126000Y92800D02*X126800Y92000D01*
Y96000D01*
X126000D02*X127500D01*
X128700Y95500D02*X129200Y96000D01*
X128700Y92500D02*Y95500D01*
Y92500D02*X129200Y92000D01*
X130200D01*
X130700Y92500D01*
Y95500D01*
X130200Y96000D02*X130700Y95500D01*
X129200Y96000D02*X130200D01*
X128700Y95000D02*X130700Y93000D01*
X131900Y94000D02*Y95500D01*
X132400Y96000D01*
X133400D01*
X133900Y95500D01*
Y94000D02*Y95500D01*
X135100Y92000D02*Y96000D01*
Y92000D02*X137100D01*
X135100Y93800D02*X136600D01*
X169000Y53000D02*X171000D01*
X171500Y52500D01*
Y51300D02*Y52500D01*
X171000Y50800D02*X171500Y51300D01*
X169500Y50800D02*X171000D01*
X169500Y49000D02*Y53000D01*
X169000Y49000D02*X171000D01*
X171500Y49500D01*
Y50300D01*
X171000Y50800D02*X171500Y50300D01*
X172700Y49000D02*X173700Y51000D01*
X174700Y49000D01*
X173700Y51000D02*Y53000D01*
X169500Y43000D02*Y47000D01*
X170800Y43000D02*X171500Y43700D01*
Y46300D01*
X170800Y47000D02*X171500Y46300D01*
X169000Y47000D02*X170800D01*
X169000Y43000D02*X170800D01*
X172700Y44800D02*X174200D01*
X172700Y47000D02*X174700D01*
X172700Y43000D02*Y47000D01*
Y43000D02*X174700D01*
X177900D02*X178400Y43500D01*
X176400Y43000D02*X177900D01*
X175900Y43500D02*X176400Y43000D01*
X175900Y43500D02*Y44500D01*
X176400Y45000D01*
X177900D01*
X178400Y45500D01*
Y46500D01*
X177900Y47000D02*X178400Y46500D01*
X176400Y47000D02*X177900D01*
X175900Y46500D02*X176400Y47000D01*
X179600Y43000D02*X180600D01*
X180100D02*Y47000D01*
X179600D02*X180600D01*
X183800Y43000D02*X184300Y43500D01*
X182300Y43000D02*X183800D01*
X181800Y43500D02*X182300Y43000D01*
X181800Y43500D02*Y46500D01*
X182300Y47000D01*
X183800D01*
X184300Y46500D01*
Y45500D02*Y46500D01*
X183800Y45000D02*X184300Y45500D01*
X182800Y45000D02*X183800D01*
X185500Y43000D02*Y47000D01*
Y43000D02*X188000Y47000D01*
Y43000D02*Y47000D01*
X169000Y55000D02*X170000Y59000D01*
X171000Y55000D01*
X172200D02*X173200D01*
X172700D02*Y59000D01*
X172200D02*X173200D01*
X176400Y55000D02*X176900Y55500D01*
X174900Y55000D02*X176400D01*
X174400Y55500D02*X174900Y55000D01*
X174400Y55500D02*Y56500D01*
X174900Y57000D01*
X176400D01*
X176900Y57500D01*
Y58500D01*
X176400Y59000D02*X176900Y58500D01*
X174900Y59000D02*X176400D01*
X174400Y58500D02*X174900Y59000D01*
X178100Y56000D02*Y59000D01*
Y56000D02*X178800Y55000D01*
X179900D01*
X180600Y56000D01*
Y59000D01*
X178100Y57000D02*X180600D01*
X183800Y55000D02*X184300Y55500D01*
X182300Y55000D02*X183800D01*
X181800Y55500D02*X182300Y55000D01*
X181800Y55500D02*Y58500D01*
X182300Y59000D01*
X183800D01*
X184300Y58500D01*
Y57500D02*Y58500D01*
X183800Y57000D02*X184300Y57500D01*
X182800Y57000D02*X183800D01*
X185500Y56800D02*X187000D01*
X185500Y59000D02*X187500D01*
X185500Y55000D02*Y59000D01*
Y55000D02*X187500D01*
X129000Y74800D02*X129800Y74000D01*
Y78000D01*
X129000D02*X130500D01*
X131700Y77500D02*X132200Y78000D01*
X131700Y74500D02*Y77500D01*
Y74500D02*X132200Y74000D01*
X133200D01*
X133700Y74500D01*
Y77500D01*
X133200Y78000D02*X133700Y77500D01*
X132200Y78000D02*X133200D01*
X131700Y77000D02*X133700Y75000D01*
X134900Y74000D02*Y78000D01*
Y76000D02*X136900Y74000D01*
X134900Y76000D02*X136900Y78000D01*
X78000Y40800D02*X78800Y40000D01*
Y44000D01*
X78000D02*X79500D01*
X80700Y40000D02*Y44000D01*
Y42000D02*X82700Y40000D01*
X80700Y42000D02*X82700Y44000D01*
X63000Y92800D02*X63800Y92000D01*
Y96000D01*
X63000D02*X64500D01*
X65700Y95500D02*X66200Y96000D01*
X65700Y92500D02*Y95500D01*
Y92500D02*X66200Y92000D01*
X67200D01*
X67700Y92500D01*
Y95500D01*
X67200Y96000D02*X67700Y95500D01*
X66200Y96000D02*X67200D01*
X65700Y95000D02*X67700Y93000D01*
X68900Y95500D02*X69400Y96000D01*
X68900Y92500D02*Y95500D01*
Y92500D02*X69400Y92000D01*
X70400D01*
X70900Y92500D01*
Y95500D01*
X70400Y96000D02*X70900Y95500D01*
X69400Y96000D02*X70400D01*
X68900Y95000D02*X70900Y93000D01*
X72600Y94500D02*Y96000D01*
Y94500D02*X73100Y94000D01*
X73600D01*
X74100Y94500D01*
Y96000D01*
X72100Y94000D02*X72600Y94500D01*
X75300Y92000D02*Y96000D01*
Y92000D02*X77300D01*
X75300Y93800D02*X76800D01*
X14000Y50000D02*X15000Y54000D01*
X16000Y50000D01*
X17200Y51800D02*X18700D01*
X17200Y54000D02*X19200D01*
X17200Y50000D02*Y54000D01*
Y50000D02*X19200D01*
X20400D02*X22400D01*
X22900Y50500D01*
Y51500D01*
X22400Y52000D02*X22900Y51500D01*
X20900Y52000D02*X22400D01*
X20900Y50000D02*Y54000D01*
X21700Y52000D02*X22900Y54000D01*
X25900Y50800D02*X26700Y50000D01*
Y54000D01*
X25900D02*X27400D01*
X28600D02*X29100D01*
X30300Y50500D02*X30800Y50000D01*
X32300D01*
X32800Y50500D01*
Y51500D01*
X30300Y54000D02*X32800Y51500D01*
X30300Y54000D02*X32800D01*
X74500Y62000D02*X76500Y58000D01*
X74000D02*X76500D01*
X77700D02*X79700D01*
X77700D02*Y60000D01*
X78200Y59500D01*
X79200D01*
X79700Y60000D01*
Y61500D01*
X79200Y62000D02*X79700Y61500D01*
X78200Y62000D02*X79200D01*
X77700Y61500D02*X78200Y62000D01*
X80900Y61500D02*X81400Y62000D01*
X80900Y58500D02*Y61500D01*
Y58500D02*X81400Y58000D01*
X82400D01*
X82900Y58500D01*
Y61500D01*
X82400Y62000D02*X82900Y61500D01*
X81400Y62000D02*X82400D01*
X80900Y61000D02*X82900Y59000D01*
X126000Y22800D02*X126800Y22000D01*
Y26000D01*
X126000D02*X127500D01*
X128700Y25500D02*X129200Y26000D01*
X128700Y22500D02*Y25500D01*
Y22500D02*X129200Y22000D01*
X130200D01*
X130700Y22500D01*
Y25500D01*
X130200Y26000D02*X130700Y25500D01*
X129200Y26000D02*X130200D01*
X128700Y25000D02*X130700Y23000D01*
X132400Y24500D02*Y26000D01*
Y24500D02*X132900Y24000D01*
X133400D01*
X133900Y24500D01*
Y26000D01*
X131900Y24000D02*X132400Y24500D01*
X135100Y22000D02*Y26000D01*
Y22000D02*X137100D01*
X135100Y23800D02*X136600D01*
X62500Y45000D02*X70000D01*
X76000D02*X83500D01*
X62500Y55000D02*X70000D01*
X76000D02*X83500D01*
X62500Y45000D02*Y55000D01*
X83500Y45000D02*Y55000D01*
X62500Y27000D02*X70000D01*
X76000D02*X83500D01*
X62500Y37000D02*X70000D01*
X76000D02*X83500D01*
X62500Y27000D02*Y37000D01*
X83500Y27000D02*Y37000D01*
X57000Y32000D02*X61000D01*
X59000Y30000D02*Y34000D01*
X85000Y32000D02*X89000D01*
X62500Y81000D02*X70000D01*
X76000D02*X83500D01*
X62500Y91000D02*X70000D01*
X76000D02*X83500D01*
X62500Y81000D02*Y91000D01*
X83500Y81000D02*Y91000D01*
X62500Y63000D02*X70000D01*
X76000D02*X83500D01*
X62500Y73000D02*X70000D01*
X76000D02*X83500D01*
X62500Y63000D02*Y73000D01*
X83500Y63000D02*Y73000D01*
X116500Y81000D02*X124000D01*
X130000D02*X137500D01*
X116500Y91000D02*X124000D01*
X130000D02*X137500D01*
X116500Y81000D02*Y91000D01*
X137500Y81000D02*Y91000D01*
X115000Y86000D02*X111000D01*
X113000Y84000D02*Y88000D01*
X139000Y86000D02*X143000D01*
X116500Y63000D02*X124000D01*
X130000D02*X137500D01*
X116500Y73000D02*X124000D01*
X130000D02*X137500D01*
X116500Y63000D02*Y73000D01*
X137500Y63000D02*Y73000D01*
X116500Y45000D02*X124000D01*
X130000D02*X137500D01*
X116500Y55000D02*X124000D01*
X130000D02*X137500D01*
X116500Y45000D02*Y55000D01*
X137500Y45000D02*Y55000D01*
X116500Y27000D02*X124000D01*
X130000D02*X137500D01*
X116500Y37000D02*X124000D01*
X130000D02*X137500D01*
X116500Y27000D02*Y37000D01*
X137500Y27000D02*Y37000D01*
X75000Y86500D02*Y87800D01*
X74300Y88500D02*X75000Y87800D01*
X71700Y88500D02*X74300D01*
X71700D02*X71000Y87800D01*
Y86500D02*Y87800D01*
X71500Y85300D02*X71000Y84800D01*
Y83300D02*Y84800D01*
Y83300D02*X71500Y82800D01*
X72500D01*
X75000Y85300D02*X72500Y82800D01*
X75000D02*Y85300D01*
X71000Y68500D02*Y70500D01*
Y68500D02*X71500Y68000D01*
X72500D01*
X73000Y68500D02*X72500Y68000D01*
X73000Y68500D02*Y70000D01*
X71000D02*X75000D01*
X73000Y69200D02*X75000Y68000D01*
Y66300D02*X71000Y64300D01*
Y66800D01*
Y50500D02*Y52500D01*
Y50500D02*X71500Y50000D01*
X72500D01*
X73000Y50500D02*X72500Y50000D01*
X73000Y50500D02*Y52000D01*
X71000D02*X75000D01*
X73000Y51200D02*X75000Y50000D01*
X71500Y48800D02*X71000Y48300D01*
Y47300D02*Y48300D01*
Y47300D02*X71500Y46800D01*
X75000Y47300D02*X74500Y46800D01*
X75000Y47300D02*Y48300D01*
X74500Y48800D02*X75000Y48300D01*
X72800Y47300D02*Y48300D01*
X71500Y46800D02*X72300D01*
X73300D02*X74500D01*
X73300D02*X72800Y47300D01*
X72300Y46800D02*X72800Y47300D01*
X71000Y34000D02*X75000D01*
X71000Y32700D02*X71700Y32000D01*
X74300D01*
X75000Y32700D02*X74300Y32000D01*
X75000Y32700D02*Y34500D01*
X71000Y32700D02*Y34500D01*
X71500Y30800D02*X71000Y30300D01*
Y28800D02*Y30300D01*
Y28800D02*X71500Y28300D01*
X72500D01*
X75000Y30800D02*X72500Y28300D01*
X75000D02*Y30800D01*
X129000Y86500D02*Y87800D01*
X128300Y88500D02*X129000Y87800D01*
X125700Y88500D02*X128300D01*
X125700D02*X125000Y87800D01*
Y86500D02*Y87800D01*
X125500Y85300D02*X125000Y84800D01*
Y83800D02*Y84800D01*
Y83800D02*X125500Y83300D01*
X129000Y83800D02*X128500Y83300D01*
X129000Y83800D02*Y84800D01*
X128500Y85300D02*X129000Y84800D01*
X126800Y83800D02*Y84800D01*
X125500Y83300D02*X126300D01*
X127300D02*X128500D01*
X127300D02*X126800Y83800D01*
X126300Y83300D02*X126800Y83800D01*
X125000Y68500D02*Y70500D01*
Y68500D02*X125500Y68000D01*
X126500D01*
X127000Y68500D02*X126500Y68000D01*
X127000Y68500D02*Y70000D01*
X125000D02*X129000D01*
X127000Y69200D02*X129000Y68000D01*
X127500Y66800D02*X125000Y64800D01*
X127500Y64300D02*Y66800D01*
X125000Y64800D02*X129000D01*
X125000Y50500D02*Y52500D01*
Y50500D02*X125500Y50000D01*
X126500D01*
X127000Y50500D02*X126500Y50000D01*
X127000Y50500D02*Y52000D01*
X125000D02*X129000D01*
X127000Y51200D02*X129000Y50000D01*
X125000Y46800D02*Y48800D01*
X127000D01*
X126500Y48300D01*
Y47300D02*Y48300D01*
Y47300D02*X127000Y46800D01*
X128500D01*
X129000Y47300D02*X128500Y46800D01*
X129000Y47300D02*Y48300D01*
X128500Y48800D02*X129000Y48300D01*
Y32500D02*Y33800D01*
X128300Y34500D02*X129000Y33800D01*
X125700Y34500D02*X128300D01*
X125700D02*X125000Y33800D01*
Y32500D02*Y33800D01*
X125800Y31300D02*X125000Y30500D01*
X129000D01*
Y29800D02*Y31300D01*
M02*
