M48
INCH,TZ
T10C0.038
T11C0.020
T12C0.035
T13C0.126
%
T10
X004900Y008500
X004900Y007500
X004900Y005500
X004900Y004500
X004900Y003500
X004900Y001500
X005900Y001500
X006900Y001500
X009500Y008500
X009500Y001500
X010500Y008500
X010500Y001500
X013200Y001500
X014200Y001500
X015100Y008500
X015100Y007500
X015100Y006500
X015100Y004500
X015100Y003500
X015200Y001500
T11
X006700Y004100
X008500Y009300
X008500Y002300
X009500Y006900
X011000Y002500
X011400Y007700
X012100Y005900
T12
X006700Y005900
X007300Y007700
X008200Y007700
X010000Y003000
X010500Y007000
X012100Y002000
T13
X002300Y007900
X002300Y002300
X017800Y007900
X017800Y002300
M30

